<svg xmlns="http://www.w3.org/2000/svg" width="24" height="24" viewBox="0 0 24 24"><g transform="translate(-862 -372)"><g transform="translate(862 372)"><path d="M14,.75H0A.75.75,0,0,1-.75,0,.75.75,0,0,1,0-.75H14a.75.75,0,0,1,.75.75A.75.75,0,0,1,14,.75Z" transform="translate(5 12)" fill="#21263b"/><path d="M12,19.75a.75.75,0,0,1-.53-1.28L17.939,12,11.47,5.53A.75.75,0,0,1,12.53,4.47l7,7a.75.75,0,0,1,0,1.061l-7,7A.748.748,0,0,1,12,19.75Z" fill="#21263b"/></g><rect width="24" height="24" transform="translate(862 372)" fill="none"/></g></svg>