<svg xmlns="http://www.w3.org/2000/svg" width="51.019" height="147.793" viewBox="0 0 51.019 147.793">
  <g id="Group_42864" data-name="Group 42864" transform="translate(-1224.362 -541.465)">
    <path id="Path_85591" data-name="Path 85591" d="M1251.083,572.95s9.53-3.812,17.136.191,14.418,39.5-8.881,44.013h0S1237.473,641,1251.083,572.95Z" fill="#1e3865"/>
    <path id="Path_85592" data-name="Path 85592" d="M1225.018,628.888l.582-2.1s2.794-.28,2.828-.225l-.248,6.353a4.631,4.631,0,0,1-1.968-.925l-1.023-1.705A3.133,3.133,0,0,1,1225.018,628.888Z" fill="#ffae73"/>
    <path id="Path_85593" data-name="Path 85593" d="M1232.268,574.49s-3.415-.176-5.327,4.324c-3.963,9.328-2.242,29.463-2,32.345,0,0-1.361,5.724.661,15.624l2.525-.14s4.17-37.416,3.674-41.281S1232.268,574.49,1232.268,574.49Z" fill="#fff"/>
    <path id="Path_85594" data-name="Path 85594" d="M1260.748,684.595l-1.292,4.663H1248.54S1245.291,683.3,1260.748,684.595Z" fill="#fff"/>
    <path id="Path_85595" data-name="Path 85595" d="M1237.341,684.595l-1.291,4.663h-10.916S1221.885,683.3,1237.341,684.595Z" fill="#fff"/>
    <path id="Path_85596" data-name="Path 85596" d="M1236.867,574.172l10.239,5.23,1.348-6.773a29.362,29.362,0,0,1-1.334-6.691,36.054,36.054,0,0,1-.069-5.964l-8.343,4.27a15.628,15.628,0,0,1,.324,1.84,15.285,15.285,0,0,1,.064,3.238A6.884,6.884,0,0,1,1236.867,574.172Z" fill="#ffae73"/>
    <path id="Path_85597" data-name="Path 85597" d="M1228.449,615.942l20.707,1.634s2.558,36.271-11.048,68.407l-12.216-.819Z" fill="#1e3865"/>
    <path id="Path_85598" data-name="Path 85598" d="M1260.582,617.934s4.07,20.813,1.218,67.48H1249l-8.01-56.713c-.257-1.658-3.522-3.966-3.522-3.966l-.128-6.4Z" fill="#25468f"/>
    <path id="Path_85599" data-name="Path 85599" d="M1260.478,590.6l-1.19,8.446,3.282,16.883a2.537,2.537,0,0,1-2.319,3.017c-6.234.425-21.3,1.049-31.529-1.846a2.966,2.966,0,0,1-2.157-3.087l1.8-22.583.632-7.946.651-8.164a23.9,23.9,0,0,1,8.535-2.694c-.082,1.256.34,2.408,2.926,2.687a9.474,9.474,0,0,0,7-2.317,2.74,2.74,0,0,1,.342-.37c1.846.175,3.975.5,5.8.862.288.058,6.8,12.994,6.8,12.994Z" fill="#ff7758"/>
    <path id="Path_85600" data-name="Path 85600" d="M1262.57,615.934s-28.977-14.83-14.745-39.046c.682-1.16,1.823-3.281,3.258-3.938a14.086,14.086,0,0,1,2.682.448c-1.477.41-3.61,3.877-4.739,7.023-2.112,5.883-7.34,17.018,13.165,31.685Z" fill="#25468f"/>
    <path id="Path_85601" data-name="Path 85601" d="M1253.163,598.313c-.321-.024-3.013.078-3.013.078s-1.339-5.042-5.053-5.042c0,0-1.737-.17-1.2,1.236a6.425,6.425,0,0,1,1.158,2.429c.565,2.046,1.179,2.578,3.08,3.655l1.6.435S1254.008,598.375,1253.163,598.313Z" fill="#ffae73"/>
    <path id="Path_85602" data-name="Path 85602" d="M1239.032,570.088c3.133.4,7.969-4.059,8.088-4.15,0,0-5.8.046-8.088.146A23.939,23.939,0,0,1,1239.032,570.088Z" fill="#f9924f"/>
    <path id="Path_85603" data-name="Path 85603" d="M1236.554,567.923s12.721,1.55,12.992-7.412-5.03-14.767-8.569-14.7c-7.057.132-8.221,2.984-9.039,5.953S1230.7,567.291,1236.554,567.923Z" fill="#ffae73"/>
    <g id="Group_42863" data-name="Group 42863">
      <path id="Path_85605" data-name="Path 85605" d="M1246.781,565.952a17.184,17.184,0,0,0,.947-4.982s2.543-3.243,1.061-4.046-2.281,1.116-2.621.739-.869-6.749-2.669-6.548-9.947,2.521-12.866,0,5.652-12.608,17.652-8.809S1257.9,559.289,1246.781,565.952Z" fill="#2a3967"/>
      <path id="Path_85606" data-name="Path 85606" d="M1254.2,547.543a4.222,4.222,0,0,0-.04-2.78,4.434,4.434,0,0,1-.655,2.3C1252.884,547.778,1254.2,547.543,1254.2,547.543Z" fill="#2a3967"/>
      <path id="Path_85607" data-name="Path 85607" d="M1253.956,546.409a2.392,2.392,0,0,1,2.185.973,1.909,1.909,0,0,0-2.1.043Z" fill="#2a3967"/>
    </g>
    <path id="Path_85608" data-name="Path 85608" d="M1254.254,573.493s2.438-.137,6.8,7.138c2.33,3.888,12.266,22.35,7.15,24.356s-15.413-.014-18.052-2.806l1.493-4.3s7.138.324,7.1-.06a30.643,30.643,0,0,0-3.638-6.906C1248.131,581.093,1254.254,573.493,1254.254,573.493Z" fill="#fff"/>
    <path id="Path_85609" data-name="Path 85609" d="M1241.108,575.318s5.014-2.258,6.775-4.7c0,0,1.818,1.054,1.988,2.349S1243.735,576.52,1241.108,575.318Z" fill="#fff"/>
    <path id="Path_85610" data-name="Path 85610" d="M1238.758,571.147s.35,3.519,2.35,4.171c0,0-3.654.262-4.879-2.365C1236.229,572.953,1237.493,571.112,1238.758,571.147Z" fill="#fff"/>
    <path id="Path_85611" data-name="Path 85611" d="M1238.412,589.043a.632.632,0,1,0,.62-.753A.7.7,0,0,0,1238.412,589.043Z" fill="#fc7600"/>
    <path id="Path_85612" data-name="Path 85612" d="M1238.412,599.144a.632.632,0,1,0,.62-.753A.7.7,0,0,0,1238.412,599.144Z" fill="#fc7600"/>
    <path id="Path_85613" data-name="Path 85613" d="M1238.412,610.042a.632.632,0,1,0,.62-.754A.7.7,0,0,0,1238.412,610.042Z" fill="#fc7600"/>
    <path id="Path_85614" data-name="Path 85614" d="M1225.6,626.783l-.667-1.909,3.251-.193-.059,1.962Z" fill="#fff"/>
    <path id="Path_85615" data-name="Path 85615" d="M1250.248,597.439a15.847,15.847,0,0,1-.407-3c.113-.569-.995-.138-.993,1.039a1.306,1.306,0,0,0,.313.724l.58,2.329Z" fill="#ffae73"/>
    <path id="Path_85616" data-name="Path 85616" d="M1250.248,597.439l2.911.634-.531,3.532h-2.16l1.235,1.756-.553.233-3.019-2.925A10.684,10.684,0,0,0,1250.248,597.439Z" fill="#d2e8ff"/>
  </g>
</svg>
