<svg xmlns="http://www.w3.org/2000/svg" width="304.787" height="60" viewBox="0 0 304.787 60">
  <g id="certificate" transform="translate(-1402.736 -1226.154)">
    <g id="Group_13483" data-name="Group 13483" transform="translate(1584.308 1229.904)">
      <g id="Group_13483-2" data-name="Group 13483" transform="translate(0 0)">
        <path id="Path_16408" data-name="Path 16408" d="M592.982.02a9.578,9.578,0,0,0-3.666-4.384,17.642,17.642,0,0,0-16.894-.512,9.831,9.831,0,0,0-4.971,6.837c-.99,4.558-.735,9.982,2.774,13.4,4.1,3.592,10.057,4.384,15.366,2.906a6.59,6.59,0,0,0,1.594-.537l.157-.066a10.822,10.822,0,0,0,4.393-3.311C594.444,10.4,594.625,4.47,592.982.02Zm-8.637,10.238a2.8,2.8,0,0,1-1.684,2.081,5.745,5.745,0,0,1-4.789-.281c-1.131-.793-1.28-2.122-1.429-3.377-.107-2.477-.289-5.1.4-7.373.545-1.4,2.047-1.759,3.4-1.866,1.429,0,2.815.215,3.691,1.362a6.288,6.288,0,0,1,.627,2.882A45.091,45.091,0,0,1,584.346,10.258Z" transform="translate(-524.825 22.154)" fill="#003578"/>
        <path id="Path_16409" data-name="Path 16409" d="M578.028,12.262c-1.206-.074-2.56.033-3.724-.107l.033-12.616.074-.107L578.028-.6c.041-2.048.074-4.244-.033-6.11l-13.789-.041-2.27.041c-.033,1.9-.033,4.128,0,6.069,1.247.041,2.411,0,3.625.116V11.684l-.041.5-3.617.074c-.074,2.006-.074,3.955,0,5.928h16.126Z" transform="translate(-561.847 22.38)" fill="#003578"/>
        <path id="Path_16410" data-name="Path 16410" d="M610.284-3.342a28.045,28.045,0,0,1-5.6,5.97c-.074.107-.289.066-.364-.033-.916-.578-1.9-1.049-2.782-1.618a30.279,30.279,0,0,0,3.187-4.351h-1.139A25.341,25.341,0,0,1,600.516.547a39.047,39.047,0,0,0-4.714-1.66l-.182-.14a17.744,17.744,0,0,0,.876-2.122H595.5l-.983,1.94a46.135,46.135,0,0,0-6.729-.859c-.115-.322.033-.793-.115-1.082h-.949c-.075.429.115.76-.108,1.115a42.42,42.42,0,0,0-6.581.793l-.991-1.907a3.162,3.162,0,0,0-1.024.033l.917,2.122-.107.107A46.425,46.425,0,0,0,574,.58l-.149-.074a29.212,29.212,0,0,1-2.816-3.55c-.181-.619-.916-.256-1.313-.33a31.549,31.549,0,0,0,3.212,4.426c-.983.57-1.966,1.214-3,1.684a26.025,26.025,0,0,1-5.771-6.077,4.647,4.647,0,0,0-1.173,0A28.668,28.668,0,0,0,574,6.475l.041-.033c.033,0,.1.066.033.1a30.045,30.045,0,0,0,9.214,2.84A28.789,28.789,0,0,0,611.456-3.342,6.946,6.946,0,0,0,610.284-3.342ZM595.033-.106l.107-.074a20.994,20.994,0,0,1,4.467,1.544,22.861,22.861,0,0,1-4.062,3.451c-.842.5-1.684,1.049-2.567,1.478l-1.569-.685.115-.248A43.491,43.491,0,0,0,595.033-.106Zm-7.208-1.073a27.994,27.994,0,0,1,6.11.718l.033.107a36.351,36.351,0,0,1-3.691,5.565,10.556,10.556,0,0,1-1.825-.206l-.628-.074C587.751,2.809,587.718.935,587.825-1.179Zm-7.051.644a31.393,31.393,0,0,1,5.92-.644l.034,6.077c-.768.173-1.61.173-2.337.355a32.112,32.112,0,0,1-3.806-5.648Zm-5.9,1.94A24.475,24.475,0,0,1,579.337-.18l.157.041a54.357,54.357,0,0,0,3.691,5.714c-.512.289-1.139.462-1.643.751a24.565,24.565,0,0,1-6.663-4.814ZM579.6,7.548a25.99,25.99,0,0,1-8.562-4.021V3.412a21.718,21.718,0,0,1,2.708-1.5,37.545,37.545,0,0,0,6.581,5.061A2.723,2.723,0,0,1,579.6,7.548Zm13.566.471A27.95,27.95,0,0,1,581.1,7.945c-.074-.173.182-.215.3-.322a11.458,11.458,0,0,1,12.03.173C593.531,8.019,593.242,7.945,593.167,8.019Zm3.51-1.007-1.718.537a3.829,3.829,0,0,1-.809-.578l.075-.107a32.1,32.1,0,0,0,6.473-5,14.882,14.882,0,0,1,2.824,1.544A24.586,24.586,0,0,1,596.677,7.012Z" transform="translate(-553.504 46.604)" fill="#003578"/>
        <path id="Path_16411" data-name="Path 16411" d="M564.161,4.248A33.491,33.491,0,0,1,567.117.7a19.157,19.157,0,0,1,2.857-2.411c.949.611,2.014,1.115,2.923,1.693a31.5,31.5,0,0,0-3.146,4.31,2.234,2.234,0,0,0,1.1,0A28.187,28.187,0,0,1,573.92.442c1.569.578,3.113,1.189,4.723,1.618l.14.14-.908,2.089a3.489,3.489,0,0,0,1.057,0c.33-.611.587-1.3.949-1.907a36.133,36.133,0,0,0,6.622.793c.289.248.075.793.182,1.115h.991c.107-.355-.041-.76.107-1.073a35.451,35.451,0,0,0,6.407-.834l.173.041.991,1.866a2.312,2.312,0,0,0,1.024-.074l-.917-2.081.074-.074A39.616,39.616,0,0,0,600.4.334a33.2,33.2,0,0,1,3.146,3.955,3.516,3.516,0,0,0,1.1-.074,14.77,14.77,0,0,0-1.569-2.271A15.676,15.676,0,0,0,601.457.012V-.169l2.559-1.47.372-.149a26.74,26.74,0,0,1,5.78,6c.438,0,.8.149,1.172-.033A28.953,28.953,0,0,0,589.616-8.542l-.041.074-.074-.074a16.4,16.4,0,0,0-3.253-.041,8.492,8.492,0,0,0-1.354.041A28.65,28.65,0,0,0,562.988,4.289C563.352,4.248,563.789,4.4,564.161,4.248Zm15.176-3.154-.149.033a29.641,29.641,0,0,1-4.351-1.478l.074-.215a28.735,28.735,0,0,1,6.473-4.706c.545.215,1.1.4,1.643.652l-.107.281A45.366,45.366,0,0,0,579.336,1.094Zm7.274.966a13.228,13.228,0,0,1-2.964-.116,19.873,19.873,0,0,1-3.212-.57,31.635,31.635,0,0,1,3.8-5.631l2.345.314C586.685-2.077,586.611.087,586.611,2.06Zm1.131.041c-.066-1.916-.033-4.029,0-6.011.735-.1,1.535-.215,2.271-.322a31.037,31.037,0,0,1,3.773,5.606A26.088,26.088,0,0,1,587.742,2.1ZM599.417-.417a24.5,24.5,0,0,1-4.467,1.511,61.436,61.436,0,0,0-3.765-5.648c.512-.281,1.132-.5,1.684-.784a25.772,25.772,0,0,1,6.614,4.805Zm-4.69-6.151a25.928,25.928,0,0,1,8.6,4.029l-.075.14-2.518,1.4h-.181a31.881,31.881,0,0,0-6.515-4.962C594.108-6.2,594.479-6.387,594.727-6.568Zm-1.461-.355v.074a11.16,11.16,0,0,1-11.7.388c-.182-.14-.546-.215-.586-.462A27.2,27.2,0,0,1,593.266-6.923Zm-22.31,4.459a26.447,26.447,0,0,1,7.571-3.815c.116-.107.182-.215.331-.215v.074c.3.074.512-.256.768-.041.222.182.479.33.66.5a37.007,37.007,0,0,0-6.547,5.07A12.155,12.155,0,0,1,570.956-2.4Z" transform="translate(-553.569 8.646)" fill="#003578"/>
        <path id="Path_16412" data-name="Path 16412" d="M579.573,12.751a9.714,9.714,0,0,1-9.66-2.37c-.289-.355-.471-.784-.768-1.148l-4.937.041c-.074,2.906-.107,6.25,0,9.124l5.482-.033.074-1.726c.627.289,1.247.644,1.866.966,3.806,1.585,8.7,1.94,12.476,0a7.381,7.381,0,0,0,3.8-7.547c-.4-3.055-3.328-5.821-6.283-6.572L572.769.935l-.661-.33a1.006,1.006,0,0,1-.4-.966c.694-1.181,2.3-.826,3.518-.793,2.559.363,5.193,1.222,6.688,3.559,1.61,0,3.476.033,5.227-.033.075-2.948-.025-5.532-.066-8.521-1.651-.033-3.666-.033-5.309.041a6.306,6.306,0,0,1-.108,1.47l-1.684-.9c-4.021-1.684-9.653-1.866-13.31.76a7.243,7.243,0,0,0-2.485,7.547c.471,2.584,2.956,4.492,5.342,5.383,3.253,1.148,6.654,1.982,9.949,3.1.322.14.76.471.694.867C580.159,12.429,579.829,12.619,579.573,12.751Z" transform="translate(-546.49 22.172)" fill="#003578"/>
      </g>
      <g id="Group_13484" data-name="Group 13484" transform="translate(77.603 2.87)">
        <path id="Path_16413" data-name="Path 16413" d="M581.078,4.747c0,2.878-1.59,4.443-4.945,4.443-3.18,0-4.829-1.565-4.829-4.3V4.451h3.065v.612a1.479,1.479,0,0,0,1.674,1.687c1.146,0,1.8-.464,1.8-2.105v-3.1h-.057a3.086,3.086,0,0,1-2.943,1.487c-2.389,0-3.593-1.391-3.593-3.908V-4c0-2.736,1.738-4.3,4.913-4.3s4.919,1.565,4.919,4.3Zm-3.239-5.84V-4.171a1.465,1.465,0,0,0-1.68-1.661,1.461,1.461,0,0,0-1.674,1.661v3.078A1.479,1.479,0,0,0,576.159.594,1.484,1.484,0,0,0,577.839-1.093Z" transform="translate(-571.246 8.298)" fill="#003578"/>
        <path id="Path_16414" data-name="Path 16414" d="M573.067-4c0-2.736,1.732-4.3,4.913-4.3S582.9-6.733,582.9-4V4.889c0,2.736-1.739,4.3-4.919,4.3s-4.913-1.565-4.913-4.3Zm3.238,9.059a1.677,1.677,0,1,0,3.355,0V-4.171a1.484,1.484,0,0,0-1.68-1.687,1.479,1.479,0,0,0-1.674,1.687Z" transform="translate(-560.544 8.298)" fill="#003578"/>
        <path id="Path_16415" data-name="Path 16415" d="M574.876-4c0-2.736,1.738-4.3,4.919-4.3s4.913,1.565,4.913,4.3V4.889c0,2.736-1.739,4.3-4.913,4.3s-4.919-1.565-4.919-4.3Zm3.239,9.059a1.677,1.677,0,1,0,3.354,0V-4.171A1.479,1.479,0,0,0,579.8-5.858a1.484,1.484,0,0,0-1.681,1.687Z" transform="translate(-549.896 8.298)" fill="#003578"/>
        <path id="Path_16416" data-name="Path 16416" d="M577.04-6.117c2.5,0,3.059-1,3.561-2.151h2.176v17.1h-3.239V-4.212h-2.5Z" transform="translate(-539.74 8.461)" fill="#003578"/>
        <path id="Path_16418" data-name="Path 16418" d="M576.161-2.416a1.484,1.484,0,0,0-1.68,1.687V1.1h-3.059V-.561c0-2.73,1.649-4.295,4.829-4.295s4.829,1.565,4.829,4.295c0,2.273-1,4.108-4,6.767-1.912,1.713-2.447,2.518-2.447,3.419a1.415,1.415,0,0,0,.032.367h6.123v2.44h-9.362v-2.1c0-1.906.825-3.342,3.239-5.447,2.472-2.17,3.181-3.516,3.181-5.344C577.842-2,577.191-2.416,576.161-2.416Z" transform="translate(-570.289 27.018)" fill="#003578"/>
        <path id="Path_16419" data-name="Path 16419" d="M573.192-.561c0-2.73,1.738-4.295,4.919-4.295s4.913,1.565,4.913,4.295V8.331c0,2.736-1.732,4.3-4.913,4.3s-4.919-1.565-4.919-4.3ZM576.43,8.5a1.677,1.677,0,1,0,3.355,0V-.729a1.479,1.479,0,0,0-1.674-1.687A1.484,1.484,0,0,0,576.43-.729Z" transform="translate(-560.668 27.018)" fill="#003578"/>
        <path id="Path_16420" data-name="Path 16420" d="M575.355-2.675c2.505,0,3.059-1,3.561-2.151h2.176v17.1H577.86V-.77h-2.505Z" transform="translate(-548.904 27.182)" fill="#003578"/>
        <path id="Path_16421" data-name="Path 16421" d="M579.89,6.751v1.59a1.677,1.677,0,0,0,3.354,0V4.581a1.677,1.677,0,1,0-3.354,0V5.09h-3.059l.586-9.916h8.538v2.447H580.3L580.038,1.7h.058A3.235,3.235,0,0,1,582.9.454c2.382,0,3.586,1.391,3.586,3.9V8.168c0,2.736-1.648,4.3-4.823,4.3s-4.829-1.565-4.829-4.3V6.751Z" transform="translate(-540.871 27.182)" fill="#003578"/>
      </g>
      <g id="Group_13486" data-name="Group 13486" transform="translate(77.602 45.589)">
        <path id="Path_16422" data-name="Path 16422" d="M122.076,138.658a14.294,14.294,0,0,0-2.98-.132v5.338a25.667,25.667,0,0,0,2.7-.019,2.557,2.557,0,0,0,2.188-2.415A2.6,2.6,0,0,0,122.076,138.658ZM121.567,143a13.237,13.237,0,0,1-1.509.094v-3.7a4.582,4.582,0,0,1,1.83.132,1.761,1.761,0,0,1,1.094,1.962A1.646,1.646,0,0,1,121.567,143Z" transform="translate(-78.439 -138.433)" fill="#092a4e"/>
        <path id="Path_16423" data-name="Path 16423" d="M107.069,141.9a3,3,0,0,0,.34-.151,1.508,1.508,0,0,0,.905-1.207,1.649,1.649,0,0,0-1.622-2c-.717-.038-1.415,0-2.132-.019h-.6V143.9h.924v-1.849h1.188c.434.622.887,1.245,1.32,1.849h1.094C107.993,143.217,107.54,142.576,107.069,141.9Zm-2.169-.679v-1.811c.6,0,1.17-.019,1.735.019a.773.773,0,0,1,.736.792.807.807,0,0,1-.66.905C106.125,141.2,105.522,141.18,104.9,141.217Z" transform="translate(-91.858 -138.427)" fill="#092a4e"/>
        <path id="Path_16424" data-name="Path 16424" d="M116.1,138.531h3.952v.815h-3v1.422h2.65v.856h-2.66v1.411h3.06v.854h-4Z" transform="translate(-81.095 -138.417)" fill="#092a4e"/>
        <path id="Path_16425" data-name="Path 16425" d="M100.968,138.532h3.946v.817h-3v1.42h2.65v.855h-2.658v1.411h3.056v.854h-4Z" transform="translate(-94.507 -138.416)" fill="#092a4e"/>
        <path id="Path_16426" data-name="Path 16426" d="M101.895,142.491c.185.2.358.4.538.6-.611,1.037-2.575,1.288-3.754.449a2.855,2.855,0,0,1-.485-4.1,2.92,2.92,0,0,1,4.242-.115c-.089.106-.179.215-.272.323s-.194.223-.313.357a2.138,2.138,0,0,0-1.869-.628,1.752,1.752,0,0,0-1.051.655,2.058,2.058,0,0,0,.162,2.635C99.818,143.391,100.765,143.338,101.895,142.491Z" transform="translate(-97.543 -138.471)" fill="#092a4e"/>
        <path id="Path_16427" data-name="Path 16427" d="M112.548,139.343v1.5h2.7v.855H112.54v2.184h-.922v-5.344h3.971v.8Z" transform="translate(-85.068 -138.41)" fill="#092a4e"/>
        <path id="Path_16428" data-name="Path 16428" d="M111.309,138.54v.8h-1.692v4.54h-.941v-4.516h-1.709v-.822Z" transform="translate(-89.19 -138.409)" fill="#092a4e"/>
        <path id="Path_16429" data-name="Path 16429" d="M110.1,138.535h.89v5.342h-.89Z" transform="translate(-86.414 -138.414)" fill="#092a4e"/>
        <path id="Path_16430" data-name="Path 16430" d="M115.477,143.889h-.888v-5.355h.888Z" transform="translate(-82.435 -138.414)" fill="#092a4e"/>
      </g>
    </g>
    <g id="Group_12651" data-name="Group 12651" transform="translate(1402.736 1226.154)">
      <g id="Group_12646" data-name="Group 12646" transform="translate(58.75)">
        <path id="Path_14404" data-name="Path 14404" d="M75.867,66.216c-5.2,6.179-12.69,10.533-16.4,8.46a4.638,4.638,0,0,0,.415.622,18.391,18.391,0,0,0,1.576,1.016c3.462,1.057,10.325-2.281,15.468-8.418,5.163-6.138,6.884-13.021,5.246-16.235a15.7,15.7,0,0,0-1.265-1.368,5.02,5.02,0,0,0-.684-.311C82.439,52.511,81.071,60.037,75.867,66.216Z" transform="translate(-53.103 -45.639)" fill="#163029"/>
        <path id="Path_14405" data-name="Path 14405" d="M60.389,57.844c-2.405-7.423.5-13.622,2.882-16.131a2.166,2.166,0,0,0-.954-.083c-.332.124-.643.249-.954.394-2.239,1.783-5.37,8.812-2.8,16.774S68.5,72.835,71.378,72.959c.332-.062.664-.145,1.016-.228a2.522,2.522,0,0,0,.726-.622C69.719,71.487,62.794,65.267,60.389,57.844Z" transform="translate(-51.952 -40.481)" fill="#163029"/>
        <path id="Path_14406" data-name="Path 14406" d="M78.99,69.321c-.415-2.053-5.225-6.8-12.026-11.031S53.653,51.8,51.642,52.34c-.228.249-.456.518-.684.788a1.982,1.982,0,0,0,.083.436c-.269.477-.726,1.265-.975,1.721a2.476,2.476,0,0,1,1.472-.725c3.069-.145,8.853,1.617,14.555,5.163s9.745,7.879,10.969,10.7a1.443,1.443,0,0,1-.415,1.327l1.369-1.12.021-.187a1.722,1.722,0,0,0,.539-.124C78.721,69.964,78.866,69.632,78.99,69.321Z" transform="translate(-47.311 -47.044)" fill="#163029"/>
        <path id="Path_14407" data-name="Path 14407" d="M49.72,60.083a.908.908,0,0,0-.187.27C49.45,60.519,49.554,60.353,49.72,60.083Z" transform="translate(-46.965 -51.863)" fill="#163029"/>
        <path id="Path_14408" data-name="Path 14408" d="M70.744,42.2c7.423,4.478,9.994,13.871,5.7,20.962l.58.352A16.4,16.4,0,0,0,48.932,46.6l.58.352C53.825,39.858,63.3,37.723,70.744,42.2Z" transform="translate(-46.612 -38.668)" fill="#009d4f"/>
        <path id="Path_14409" data-name="Path 14409" d="M50.826,81.857a16.4,16.4,0,0,0,22.5-5.578l-.58-.352c-4.272,7.091-13.54,9-20.983,4.52S41.538,66.825,45.83,59.733l-.58-.352A16.349,16.349,0,0,0,50.826,81.857Z" transform="translate(-42.888 -51.431)" fill="#009d4f"/>
        <path id="Path_14410" data-name="Path 14410" d="M74.718,45.764c-.166-.145-.353-.29-.519-.415-.394-.311-.788-.58-1.2-.85-3.877-1.887-11.466.829-16.815,7.215C50.811,58.08,49.567,65.876,52.1,69.38c.332.352.663.705,1.037,1.037a5.423,5.423,0,0,0,.518.456c.311.249.622.5.933.725a2.506,2.506,0,0,1-.415-.622c-1.721-3.193,1-10.2,6.2-16.38S71.5,45.163,74.946,46.282a3.46,3.46,0,0,1,.684.311C75.319,46.282,75.008,46.013,74.718,45.764Z" transform="translate(-47.787 -41.899)" fill="#009d4f"/>
        <path id="Path_14411" data-name="Path 14411" d="M86,52.4c-2.55-7.858-9.351-13.021-12.876-13.063-.456.083-.892.166-1.368.291-.311.083-.622.166-.912.269a10.15,10.15,0,0,0-.954.352,2.166,2.166,0,0,1,.954.083c2.82.829,8.708,5.951,11.093,13.374,2.405,7.423.539,14.721-1.265,17.023a2.279,2.279,0,0,1-.726.622c.332-.083.664-.187.975-.269.311-.1.6-.207.912-.332a11.677,11.677,0,0,0,1.265-.56C85.94,68.1,88.553,60.239,86,52.4Z" transform="translate(-59.527 -39.081)" fill="#009d4f"/>
        <path id="Path_14412" data-name="Path 14412" d="M47.861,56.683a5.3,5.3,0,0,0-.249.477c-.829,2.488,2.841,9.538,10.2,14.1s15.717,5,17.562,3.152c.1-.145.207-.291.311-.456.124-.166.228-.352.332-.518a16.908,16.908,0,0,0,.975-1.8c-3.338,1.306-10.575-1.41-16.276-4.955S49.022,57.1,49.374,54.465a14.243,14.243,0,0,0-1.182,1.68C48.068,56.331,47.985,56.518,47.861,56.683Z" transform="translate(-45.728 -48.402)" fill="#009d4f"/>
      </g>
      <g id="Group_12650" data-name="Group 12650" transform="translate(0 43.024)">
        <g id="Group_12647" data-name="Group 12647">
          <path id="Path_14413" data-name="Path 14413" d="M155.691,74.516a7.806,7.806,0,0,1-1.488.926,7.723,7.723,0,0,1-1.77.586,10.7,10.7,0,0,1-2.157.2,8.494,8.494,0,0,1-3.352-.657,8.091,8.091,0,0,1-4.431-4.478,8.64,8.64,0,0,1-.633-3.305V67.74a8.527,8.527,0,0,1,2.392-5.99,8.148,8.148,0,0,1,2.7-1.828,8.772,8.772,0,0,1,3.47-.669,10.88,10.88,0,0,1,2.1.188,8.778,8.778,0,0,1,1.723.516,7.51,7.51,0,0,1,1.43.8,9.681,9.681,0,0,1,1.219,1.032l-2.3,2.649a8.7,8.7,0,0,0-1.957-1.36,4.988,4.988,0,0,0-2.239-.492,4.576,4.576,0,0,0-1.911.4,4.525,4.525,0,0,0-1.512,1.1,5.138,5.138,0,0,0-.985,1.63,5.533,5.533,0,0,0-.352,1.981v.047a5.628,5.628,0,0,0,.352,1.993,5.215,5.215,0,0,0,.973,1.641,4.514,4.514,0,0,0,3.435,1.524,5.028,5.028,0,0,0,2.38-.516,9.237,9.237,0,0,0,1.934-1.407L157,73.3A11.825,11.825,0,0,1,155.691,74.516Z" transform="translate(-141.858 -59.253)" fill="#0a271b"/>
          <path id="Path_14414" data-name="Path 14414" d="M202.534,76.4V65.684l-4.619,7.01h-.094l-4.572-6.939V76.4h-3.564V59.987h3.892l4.314,6.939,4.314-6.939H206.1V76.4Z" transform="translate(-171.329 -59.705)" fill="#0a271b"/>
          <path id="Path_14415" data-name="Path 14415" d="M256.408,76.4V65.684l-4.618,7.01H251.7l-4.572-6.939V76.4h-3.564V59.987h3.891l4.314,6.939,4.314-6.939h3.892V76.4Z" transform="translate(-204.526 -59.705)" fill="#0a271b"/>
          <path id="Path_14416" data-name="Path 14416" d="M297.863,76.4V59.987h3.611V76.4Z" transform="translate(-237.986 -59.705)" fill="#0a271b"/>
        </g>
        <g id="Group_12648" data-name="Group 12648" transform="translate(143.72 0.131)">
          <path id="Path_14417" data-name="Path 14417" d="M516.755,60.491a.338.338,0,0,0,.113.143.822.822,0,0,0,.226.117,2.648,2.648,0,0,0,.372.1,1.61,1.61,0,0,1,.674.282.611.611,0,0,1,.217.5.734.734,0,0,1-.069.321.725.725,0,0,1-.192.247.85.85,0,0,1-.294.156,1.229,1.229,0,0,1-.375.055,1.645,1.645,0,0,1-.6-.106,1.692,1.692,0,0,1-.518-.328l.191-.227a1.6,1.6,0,0,0,.434.291,1.236,1.236,0,0,0,.5.1.7.7,0,0,0,.443-.129.412.412,0,0,0,.167-.34.445.445,0,0,0-.032-.174.346.346,0,0,0-.109-.139.791.791,0,0,0-.218-.114,2.969,2.969,0,0,0-.354-.1,2.753,2.753,0,0,1-.41-.117,1.014,1.014,0,0,1-.288-.16.6.6,0,0,1-.169-.219.751.751,0,0,1-.054-.3.677.677,0,0,1,.066-.3.7.7,0,0,1,.187-.237.912.912,0,0,1,.286-.157,1.082,1.082,0,0,1,.359-.057,1.51,1.51,0,0,1,.525.083,1.6,1.6,0,0,1,.436.249l-.179.238a1.35,1.35,0,0,0-.385-.226,1.174,1.174,0,0,0-.4-.07.776.776,0,0,0-.241.035.61.61,0,0,0-.182.094.406.406,0,0,0-.118.14.389.389,0,0,0-.041.176A.451.451,0,0,0,516.755,60.491Z" transform="translate(-516.309 -59.595)" fill="#999a9d"/>
          <path id="Path_14418" data-name="Path 14418" d="M524.739,61.682h-.015l-1-1.462v2.212h-.3V59.7h.313l1,1.493,1-1.493h.313v2.736h-.309V60.216Z" transform="translate(-520.694 -59.657)" fill="#999a9d"/>
        </g>
        <g id="Group_12649" data-name="Group 12649" transform="translate(69.222 0.053)">
          <path id="Path_14419" data-name="Path 14419" d="M333.161,68.708a9.686,9.686,0,0,0-4.034-1.685,16.253,16.253,0,0,1-2.218-.6,4.957,4.957,0,0,1-1.355-.7,2.051,2.051,0,0,1-.679-.852,2.863,2.863,0,0,1-.189-1.056,2.35,2.35,0,0,1,.246-1.052,2.43,2.43,0,0,1,.7-.844,3.7,3.7,0,0,1,1.1-.56,4.574,4.574,0,0,1,1.439-.211,6.943,6.943,0,0,1,2.418.422,7.93,7.93,0,0,1,2.3,1.355l1.075-1.428a9.542,9.542,0,0,0-2.606-1.489,9.1,9.1,0,0,0-3.144-.5,6.523,6.523,0,0,0-2.149.338,5.437,5.437,0,0,0-1.708.937,4.2,4.2,0,0,0-1.12,1.416,4.077,4.077,0,0,0-.4,1.8,4.4,4.4,0,0,0,.33,1.777,3.552,3.552,0,0,0,1.006,1.313,6.146,6.146,0,0,0,1.724.96,17.133,17.133,0,0,0,2.449.7,16.562,16.562,0,0,1,2.118.583,4.684,4.684,0,0,1,1.3.679,2.106,2.106,0,0,1,.656.833,2.75,2.75,0,0,1,.188,1.04,2.466,2.466,0,0,1-.994,2.038,4.215,4.215,0,0,1-2.652.771,7.485,7.485,0,0,1-3.017-.572,9.705,9.705,0,0,1-2.595-1.743l-1.144,1.355a10.118,10.118,0,0,0,3.1,1.961,9.782,9.782,0,0,0,3.585.633,7.364,7.364,0,0,0,2.245-.326,5.136,5.136,0,0,0,1.758-.936,4.306,4.306,0,0,0,1.562-3.4A3.656,3.656,0,0,0,333.161,68.708Z" transform="translate(-322.21 -59.466)" fill="#0a271b"/>
          <path id="Path_14420" data-name="Path 14420" d="M373.012,60.122,367.17,74.216l-5.823-14.094H359.29L366.325,76.6h1.639L375,60.122Z" transform="translate(-345.058 -59.842)" fill="#0a271b"/>
          <path id="Path_14421" data-name="Path 14421" d="M418.624,72.246a10.012,10.012,0,0,1-2.384,1.739,6.308,6.308,0,0,1-2.9.622,6.02,6.02,0,0,1-2.51-.526,6.3,6.3,0,0,1-2.011-1.439,6.58,6.58,0,0,1-1.332-2.149,7.327,7.327,0,0,1-.48-2.664,7.236,7.236,0,0,1,.48-2.652,6.666,6.666,0,0,1,1.332-2.142,6.476,6.476,0,0,1,7.408-1.309,10.285,10.285,0,0,1,2.257,1.616l1.262-1.359a13.071,13.071,0,0,0-1.262-1.063,7.652,7.652,0,0,0-1.424-.818,8.543,8.543,0,0,0-1.674-.526,8.67,8.67,0,0,0-.956-.138c-.338-.031-.691-.046-1.063-.046a9,9,0,0,0-.917.046,7.827,7.827,0,0,0-2.4.618,8.009,8.009,0,0,0-2.618,1.823,8.463,8.463,0,0,0-1.719,2.7,9.17,9.17,0,0,0,0,6.617,8.194,8.194,0,0,0,1.719,2.675,8.031,8.031,0,0,0,5.865,2.441,9.181,9.181,0,0,0,2.034-.207,8.615,8.615,0,0,0,1.708-.587,8.137,8.137,0,0,0,1.481-.9,11.519,11.519,0,0,0,1.321-1.182Z" transform="translate(-373.28 -59.392)" fill="#0a271b"/>
          <path id="Path_14422" data-name="Path 14422" d="M458.975,59.512,450.88,76.388h1.27l8.095-16.876Z" transform="translate(-401.495 -59.466)" fill="#0a271b"/>
        </g>
        <path id="Path_14423" data-name="Path 14423" d="M426.24,59.438h-1.98a8.985,8.985,0,0,1,.917-.046C425.549,59.392,425.9,59.407,426.24,59.438Z" transform="translate(-315.87 -59.339)" fill="#999a9d"/>
        <path id="Path_14424" data-name="Path 14424" d="M493.5,69.328a4.179,4.179,0,0,0-.994-1.363,4.481,4.481,0,0,0-1.417-.856,8.742,8.742,0,0,0-1.642-.445l4.168-3.961V59.982H482.5v3.1h6.448l-3.915,3.93L485.6,69.3h1.5a4.413,4.413,0,0,1,2.38.537,1.759,1.759,0,0,1,.833,1.566,1.824,1.824,0,0,1-.645,1.474,2.521,2.521,0,0,1-1.677.537,4.491,4.491,0,0,1-2.192-.5,6.568,6.568,0,0,1-1.773-1.466l-2.483,2.372a8.1,8.1,0,0,0,2.613,2.069,8.323,8.323,0,0,0,3.788.791,7.247,7.247,0,0,0,2.464-.4,5.281,5.281,0,0,0,1.873-1.125,5,5,0,0,0,1.179-1.712,5.52,5.52,0,0,0,.414-2.157A4.622,4.622,0,0,0,493.5,69.328Z" transform="translate(-351.168 -59.702)" fill="#0a271b"/>
      </g>
    </g>
  </g>
</svg>
