<svg xmlns="http://www.w3.org/2000/svg" xmlns:xlink="http://www.w3.org/1999/xlink" width="173.964" height="60" viewBox="0 0 173.964 60">
  <defs>
    <linearGradient id="linear-gradient" x1="1.157" y1="4.601" x2="3.554" y2="4.601" gradientUnits="objectBoundingBox">
      <stop offset="0" stop-color="#fff"/>
      <stop offset="0.038" stop-color="#fcebe1"/>
      <stop offset="0.12" stop-color="#f6b894"/>
      <stop offset="0.239" stop-color="#ec681b"/>
      <stop offset="0.247" stop-color="#ec6313"/>
      <stop offset="1" stop-color="#f06212"/>
    </linearGradient>
    <linearGradient id="linear-gradient-2" x1="1.353" y1="4.852" x2="4.082" y2="4.852" gradientUnits="objectBoundingBox">
      <stop offset="0" stop-color="#fff"/>
      <stop offset="0.116" stop-color="#fcddc7"/>
      <stop offset="0.231" stop-color="#fabf97"/>
      <stop offset="0.351" stop-color="#f8a66e"/>
      <stop offset="0.472" stop-color="#f6924d"/>
      <stop offset="0.596" stop-color="#f58233"/>
      <stop offset="0.723" stop-color="#f47620"/>
      <stop offset="0.855" stop-color="#f47015"/>
      <stop offset="1" stop-color="#f46e12"/>
    </linearGradient>
  </defs>
  <g id="footerLogo" transform="translate(-127.433 -305.992)">
    <path id="Path_85418" data-name="Path 85418" d="M168.595,334.811h2.64v-2.7h2.714l-.13-1.952h2.87a18,18,0,0,1,14.422,9.665c.358-.687.811-1.5.811-1.5l3-9.714s.684-1.33,1.913-.842a1.5,1.5,0,0,1,.924,1.889c-.089.257-.9,2.784-.9,2.784s1.947-1.267,2.558-1.65c1.138.068,4.863,0,4.863,0v1.9h2.886v2.524h2.411v26s-4.05-3.878-12.505-1.885c-.854.212-1.755.633-2.708.968a7.983,7.983,0,0,1-2.143.631l-8.371-.8a19.621,19.621,0,0,0-8.981-1.113,12.624,12.624,0,0,0-6.28,2.2C168.5,340.94,168.595,334.811,168.595,334.811Z" transform="translate(-27.996 -14.755)" fill="#fff"/>
    <g id="Group_42760" data-name="Group 42760" transform="translate(186.317 311.947)">
      <g id="Group_42756" data-name="Group 42756" transform="translate(0.138 0.364)">
        <path id="Path_85419" data-name="Path 85419" d="M343.234,362.929s.547,4.926-2.187,6.2-7.2-.275-8.022-2.46.456-5.927,5.56-8.115,12.581-5.288,15.312,3.281.776,15.221-10.549,17.775-19.895-1.276-23.541-6.563c.365-3.1,3.92-9.389,4.831-9.573,3.008,4.106,9.664,10.941,18.687,10.485s7.292-9.39,5.378-11.58S344.783,360.835,343.234,362.929Z" transform="translate(-317.438 -346.473)" fill="#1a1718"/>
        <path id="Path_85420" data-name="Path 85420" d="M430.594,362.681l-11.007-.126a14.776,14.776,0,0,0-2.326-2.874c3.09.045,11.605,0,11.605,0S429.323,362.006,430.594,362.681Z" transform="translate(-383.793 -348.868)" fill="#1a1718"/>
        <path id="Path_85421" data-name="Path 85421" d="M312.385,359.048v3h18.194a11.341,11.341,0,0,1,1.509-1.014,34.109,34.109,0,0,1,5.285-2.224c-16.056-.13-24.988,0-24.988,0Z" transform="translate(-312.385 -348.235)" fill="#1a1718"/>
        <path id="Path_85422" data-name="Path 85422" d="M457.778,333.81a3.12,3.12,0,0,0,3.162,2.916,3.839,3.839,0,0,0,2.916-6.259c-2.187-2.734-4.07-3.219-6.442-.974s-10.5,10.647.682,12.956a64.22,64.22,0,0,1,6.187-4.587c-4.5,1.84-8.387,2.413-9.3,0S457.778,333.81,457.778,333.81Z" transform="translate(-407.676 -327.347)" fill="#1a1718"/>
        <path id="Path_85423" data-name="Path 85423" d="M468.332,350.389c-4.2,1.143-12.581,7.518-15.588,11.164s-4.558,13.127,4.362,14.31,11.59-.546,14.87-3.738ZM465.871,369.3c-4.376,3.736-9.506.546-8.765-2.552s5.209-7.386,7.031-7.658C464.137,359.091,466.508,365.564,465.871,369.3Z" transform="translate(-406.348 -342.541)" fill="#1a1718"/>
        <path id="Path_85424" data-name="Path 85424" d="M490.474,350.389l1.053,6.284s3.595-1.054,5.42,0c-4.259-.266-2.645,5.79,0,12.172s-3.346,15.317-14.04,14.675l7.838,6.747s11.214-4.488,12.126-13.772-1.218-9.073-4.378-14.668c-1.457-2.642,1.733-5.743,2.008-5.837C498.769,353.621,496.122,350.5,490.474,350.389Z" transform="translate(-428.49 -342.541)" fill="#1a1718"/>
        <g id="Group_42754" data-name="Group 42754" transform="translate(73.961 9.413)">
          <path id="Path_85425" data-name="Path 85425" d="M566.262,385.311c-.071-1.232-.584-19.188-.584-26.5v-3.036s-1.546-.2-4.246-.409v26.2a9.019,9.019,0,0,0-7.018-4.192c-.183-.82.2-.913.919-1.549s4.185-4.285,3.363-5.559a40.53,40.53,0,0,0-7.656-6.837c3.374-2.28,9.937-2.188,9.937-2.188l.449-5.878a32.325,32.325,0,0,0-12.664,1.776c-4.1,1.915-6.382,3.373-2.917,6.836s7.384,5.834,6.745,6.838a35.683,35.683,0,0,1-6.017,5.924c-.728.547-.82,1.095-.364,1.641s1.185,1.551,1.823,2.37,1.367,1,1.823.729,7.657-2.279,11.393,3.19c.73,1.549-.182,5.923,3.009,5.467S566.353,386.861,566.262,385.311Z" transform="translate(-544.149 -355.296)" fill="#1a1718"/>
          <path id="Path_85426" data-name="Path 85426" d="M598.293,355.295l-.005.074h0Z" transform="translate(-581.011 -355.295)" fill="#1a1718"/>
        </g>
        <path id="Path_85427" data-name="Path 85427" d="M617.666,376.315s3.919-.729,2,3.647c.274,1.548-1,2.46-1.366,3.554a2.1,2.1,0,0,1-3.737,0c-.912-1.914-2.461-4.644,0-9.75s5.286-9.16,9.115-4.352,4.376,7.812,4.284,9.545c-.092-14.766.009-19.145.009-19.145H611.611v-3.005h19.453v31.265s0,2.948-2.63,3.031c-1.42.043-2.7-.448-2.838-1.938-.368-3.82-.456-14.583-5.926-15.859C618.485,373.945,617.484,375.678,617.666,376.315Z" transform="translate(-516.122 -346.912)" fill="#1a1718"/>
        <path id="Path_85428" data-name="Path 85428" d="M565.847,449.547a4.193,4.193,0,1,1-4.193-4.193A4.2,4.2,0,0,1,565.847,449.547Z" transform="translate(-479.253 -407.201)" fill="#1a1718"/>
        <g id="Group_42755" data-name="Group 42755" transform="translate(91.06 9.413)">
          <path id="Path_85429" data-name="Path 85429" d="M597.733,384.831c.729,1.549-.182,5.924,3.009,5.467s2.1-3.279,2-4.831c-.071-1.231-.584-19.188-.584-26.494v-3.036s-1.546-.2-4.246-.411v26.2" transform="translate(-597.733 -355.453)" fill="#1a1718"/>
          <path id="Path_85430" data-name="Path 85430" d="M598.293,355.295l-.005.074h0Z" transform="translate(-598.111 -355.295)" fill="#1a1718"/>
        </g>
        <path id="Path_85431" data-name="Path 85431" d="M420.218,353.655a13.884,13.884,0,0,1-1.763,1.815c1.063,1.006,2.975,4.379,4.615,11.578.823,3.92,5.014,2.644,5.2.551s.819-38.378.819-39.927,0-2.826-2.1-.912-5.617,4.557-3.218,7.018c.627,1,.393,11.306.393,11.306l-.393,15.677S423.015,355.025,420.218,353.655Z" transform="translate(-384.606 -325.797)" fill="#1a1718"/>
      </g>
      <g id="Group_42759" data-name="Group 42759" transform="translate(0 0)">
        <path id="Path_85432" data-name="Path 85432" d="M342.807,361.788s.547,4.925-2.187,6.2-7.2-.273-8.022-2.461.457-5.927,5.56-8.113,12.579-5.289,15.314,3.278.775,15.226-10.551,17.777-19.893-1.276-23.539-6.562c.364-3.1,3.919-9.391,4.83-9.57,3.009,4.1,9.662,10.937,18.687,10.481s7.29-9.39,5.377-11.58S344.358,359.693,342.807,361.788Z" transform="translate(-317.011 -345.329)" fill="#fff"/>
        <path id="Path_85433" data-name="Path 85433" d="M430.162,361.533l-11-.127a14.938,14.938,0,0,0-2.329-2.877c3.092.047,11.607,0,11.607,0S428.892,360.855,430.162,361.533Z" transform="translate(-383.36 -347.719)" fill="#001d31"/>
        <path id="Path_85434" data-name="Path 85434" d="M311.952,357.9v3h18.2a11.186,11.186,0,0,1,1.508-1.014,33.984,33.984,0,0,1,5.287-2.225c-16.057-.134-24.99,0-24.99,0Z" transform="translate(-311.952 -347.09)" fill="#fff"/>
        <path id="Path_85435" data-name="Path 85435" d="M457.351,332.666a3.119,3.119,0,0,0,3.159,2.916,3.841,3.841,0,0,0,2.917-6.261c-2.188-2.733-4.07-3.218-6.441-.97s-10.5,10.648.681,12.956a64.032,64.032,0,0,1,6.185-4.586c-4.5,1.838-8.386,2.413-9.3,0S457.351,332.666,457.351,332.666Z" transform="translate(-407.246 -326.203)" fill="#fff"/>
        <path id="Path_85436" data-name="Path 85436" d="M467.9,349.247c-4.194,1.144-12.578,7.515-15.587,11.164s-4.558,13.125,4.362,14.31,11.589-.547,14.871-3.738Zm-2.461,18.911c-4.374,3.738-9.5.548-8.764-2.551s5.208-7.387,7.031-7.657C463.709,357.95,466.081,364.422,465.441,368.158Z" transform="translate(-405.918 -341.399)" fill="#fff"/>
        <path id="Path_85437" data-name="Path 85437" d="M490.047,349.247l1.054,6.283s3.6-1.056,5.417,0c-4.257-.267-2.644,5.793,0,12.173s-3.345,15.315-14.036,14.676l7.837,6.743s11.213-4.487,12.125-13.773-1.215-9.069-4.374-14.666c-1.46-2.642,1.73-5.742,2.005-5.836C498.342,352.482,495.7,349.354,490.047,349.247Z" transform="translate(-428.063 -341.399)" fill="#fff"/>
        <g id="Group_42757" data-name="Group 42757" transform="translate(73.962 9.411)">
          <path id="Path_85438" data-name="Path 85438" d="M565.834,384.168c-.071-1.232-.586-19.187-.586-26.494v-3.04s-1.546-.2-4.244-.409v26.205a9.025,9.025,0,0,0-7.019-4.192c-.181-.822.2-.91.92-1.551s4.185-4.282,3.364-5.559a40.649,40.649,0,0,0-7.657-6.836c3.373-2.28,9.936-2.19,9.936-2.19l.45-5.877A32.4,32.4,0,0,0,548.332,356c-4.1,1.915-6.38,3.375-2.915,6.839s7.383,5.836,6.745,6.837a35.791,35.791,0,0,1-6.015,5.924c-.729.547-.82,1.095-.364,1.642s1.185,1.548,1.822,2.368,1.368,1,1.823.729,7.659-2.279,11.4,3.191c.729,1.547-.184,5.924,3.006,5.468S565.924,385.72,565.834,384.168Z" transform="translate(-543.721 -354.151)" fill="#fff"/>
          <path id="Path_85439" data-name="Path 85439" d="M597.866,354.146l-.006.075h.006Z" transform="translate(-580.583 -354.146)" fill="#fff"/>
        </g>
        <path id="Path_85440" data-name="Path 85440" d="M617.236,375.172s3.916-.729,2,3.645c.272,1.549-1,2.46-1.367,3.554a2.1,2.1,0,0,1-3.737,0c-.912-1.913-2.462-4.641,0-9.751s5.287-9.159,9.114-4.352,4.375,7.815,4.286,9.547c-.092-14.768.009-19.144.009-19.144H611.178v-3.008h19.455v31.266s0,2.948-2.631,3.031c-1.417.043-2.7-.448-2.837-1.938-.367-3.819-.456-14.583-5.926-15.858C618.053,372.8,617.053,374.532,617.236,375.172Z" transform="translate(-515.689 -345.768)" fill="#fff"/>
        <path id="Path_85441" data-name="Path 85441" d="M565.416,448.4a4.194,4.194,0,1,1-4.194-4.191A4.195,4.195,0,0,1,565.416,448.4Z" transform="translate(-478.819 -406.059)" fill="#fff"/>
        <g id="Group_42758" data-name="Group 42758" transform="translate(91.063 9.411)">
          <path id="Path_85442" data-name="Path 85442" d="M597.309,383.694c.729,1.546-.183,5.925,3.006,5.466s2.1-3.279,2.005-4.831c-.071-1.228-.586-19.187-.586-26.494V354.8s-1.546-.2-4.244-.407v26.2" transform="translate(-597.309 -354.311)" fill="#fff"/>
          <path id="Path_85443" data-name="Path 85443" d="M597.866,354.146l-.006.075.006,0Z" transform="translate(-597.684 -354.146)" fill="#fff"/>
        </g>
        <path id="Path_85444" data-name="Path 85444" d="M419.79,352.512a13.866,13.866,0,0,1-1.762,1.815c1.061,1.006,2.976,4.379,4.617,11.581.82,3.919,5.012,2.645,5.195.545s.821-38.375.821-39.924,0-2.826-2.1-.912-5.619,4.557-3.221,7.018c.629,1,.395,11.3.395,11.3l-.395,15.678S422.588,353.884,419.79,352.512Z" transform="translate(-384.177 -324.655)" fill="#fff"/>
      </g>
    </g>
    <path id="Path_85445" data-name="Path 85445" d="M152.5,434.209a21.344,21.344,0,0,0,7.061-2.353c3.1-1.837,6.487-4.65,10.046-3.445s7.061.8,9.185,1.205,6.085.632-1.091,3.331c-2.812.573-6.946.229-7,.631s3.1.8,5.97.631,5.281-.516,6.085-3.559a27.921,27.921,0,0,1,7.463-2.239c2.411-.4,4.994.325,1.263,2.774-1.578,1.036-3.627,1.722-5.971,2.967-3.2,1.7-6.911,3.809-10.39,3.444,0,0-7.406-1.008-10.964.041a29.484,29.484,0,0,0-5.605,2.2S153.474,435.644,152.5,434.209Z" transform="translate(-17.066 -83.155)" fill="#fff"/>
    <path id="Path_85446" data-name="Path 85446" d="M183.731,375.38s-8.373-3.387-15.261,1.09c-.23-25.717,0-26.405,0-26.405h1.951v23.306S176.662,370.559,183.731,375.38Z" transform="translate(-27.872 -30.009)" fill="#001d31"/>
    <path id="Path_85447" data-name="Path 85447" d="M190.222,369.794s-5.625-5.453-13.26-3.618V341.608h1.952v21.584S186.549,363.25,190.222,369.794Z" transform="translate(-33.723 -24.25)" fill="#7f8284"/>
    <path id="Path_85448" data-name="Path 85448" d="M196.5,365.629s-4.211-7.065-11.157-7.58c-.172-21.811-.287-22.559-.287-22.559h2.87v20.9S191.758,355.813,196.5,365.629Z" transform="translate(-39.236 -20.086)" fill="#c8c9ce"/>
    <path id="Path_85449" data-name="Path 85449" d="M202.626,365.629s-4.364-9.128-8.574-9.243v-20.9a18.1,18.1,0,0,1,14.16,8.841C203.62,352.827,201.862,360.749,202.626,365.629Z" transform="translate(-45.36 -20.086)" fill="#fff"/>
    <path id="Path_85450" data-name="Path 85450" d="M244.239,367.607s.435-.961,1.193-2.287c1.511-2.641,4.3-6.726,7.475-7.529.172-11.079,0-20.322,0-20.322S244.123,343.9,244.239,367.607Z" transform="translate(-79.53 -21.432)" fill="#fff"/>
    <path id="Path_85451" data-name="Path 85451" d="M247.98,365.32s4.858-5.579,10.386-5.692c.016-13.893,0-22.159,0-22.159h-2.911V357.79A16.817,16.817,0,0,0,247.98,365.32Z" transform="translate(-82.078 -21.432)" fill="#c8c9ce"/>
    <path id="Path_85452" data-name="Path 85452" d="M246.758,371.021s4.707-6.544,11.481-6.544c.172-16.417,0-21.067,0-21.067h2.182v24.051A15.814,15.814,0,0,0,246.758,371.021Z" transform="translate(-81.246 -25.477)" fill="#7f8284"/>
    <path id="Path_85453" data-name="Path 85453" d="M249.455,376.407s7.864-5.053,13.376-2.239c.23-22.159,0-22.848,0-22.848h1.837v26S259.214,372.561,249.455,376.407Z" transform="translate(-83.082 -30.863)" fill="#001d31"/>
    <path id="Path_85454" data-name="Path 85454" d="M229.349,367.607l-6.276-.631s1.07-19.43,10.342-27.432a26.3,26.3,0,0,1,3.129-2.076C230.727,347.132,228.431,354.709,229.349,367.607Z" transform="translate(-65.12 -21.432)" fill="#001d31"/>
    <g id="Group_42766" data-name="Group 42766" transform="translate(159.536 312.885)">
      <g id="Group_42761" data-name="Group 42761" transform="translate(0.061 24.961)">
        <path id="Path_85455" data-name="Path 85455" d="M229.672,409.476c.587-1.03,1.2-2.134,1.486-2.768-.228.028-2.78-.773-2.78-.773l-.068,3.212A6.57,6.57,0,0,0,229.672,409.476Z" transform="translate(-228.281 -405.894)" fill="#fed1b8"/>
        <path id="Path_85456" data-name="Path 85456" d="M229.63,409.421l-.018,0a6.485,6.485,0,0,1-1.363-.328l-.025-.007v-.024l.069-3.252.037.01a27.742,27.742,0,0,0,2.765.772l.055,0-.022.047c-.243.536-.741,1.47-1.486,2.771Zm-1.348-.384a6.22,6.22,0,0,0,1.315.321c.718-1.259,1.207-2.166,1.456-2.707-.392-.04-2.391-.665-2.7-.761Z" transform="translate(-228.222 -405.808)" fill="#fdd7bd"/>
      </g>
      <path id="Path_85457" data-name="Path 85457" d="M231.273,353.417l-.009,0c-.228.029-2.681-.74-2.784-.77l-.016-.006.007-.016c.069-.232,7.042-23.436,7.218-23.907a1.772,1.772,0,0,1,.394-.6,1.366,1.366,0,0,1,1.548-.357,1.526,1.526,0,0,1,.924,1.889Zm-2.771-.79c.2.058,2.484.773,2.749.766l7.274-23.749a1.479,1.479,0,0,0-.909-1.854,1.332,1.332,0,0,0-1.511.353,1.732,1.732,0,0,0-.391.584C235.542,329.2,228.708,351.934,228.5,352.627Z" transform="translate(-228.326 -327.632)" fill="#f16711"/>
      <g id="Group_42762" data-name="Group 42762" transform="translate(0.119 0.004)">
        <path id="Path_85458" data-name="Path 85458" d="M231.3,353.44c-.228.028-2.78-.773-2.78-.773s7.042-23.43,7.219-23.909a1.494,1.494,0,1,1,2.841.922Z" transform="translate(-228.485 -327.67)" fill="url(#linear-gradient)"/>
        <path id="Path_85459" data-name="Path 85459" d="M231.245,353.4l-.018,0a28.754,28.754,0,0,1-2.792-.776l-.03-.005.011-.028c.068-.237,7.041-23.44,7.215-23.911a1.839,1.839,0,0,1,.4-.6,1.373,1.373,0,0,1,1.563-.364,1.545,1.545,0,0,1,.935,1.906Zm-2.766-.819c.708.223,2.461.753,2.72.761l7.273-23.737a1.471,1.471,0,0,0-.9-1.834,1.324,1.324,0,0,0-1.5.349,1.718,1.718,0,0,0-.386.582C235.518,329.168,228.763,351.647,228.479,352.581Z" transform="translate(-228.404 -327.604)" fill="#f16112"/>
      </g>
      <g id="Group_42763" data-name="Group 42763" transform="translate(0 28.108)">
        <path id="Path_85460" data-name="Path 85460" d="M229.538,416.249c-.717,1.255-1.392,2.387-1.392,2.387l.056-2.818A5.581,5.581,0,0,0,229.538,416.249Z" transform="translate(-228.109 -415.771)" fill="#1a1718"/>
        <path id="Path_85461" data-name="Path 85461" d="M228.031,418.65l.062-2.978.042.021a5.789,5.789,0,0,0,1.331.424l.04.011-.023.035c-.708,1.244-1.388,2.375-1.395,2.387Z" transform="translate(-228.031 -415.672)" fill="#7f8284"/>
      </g>
      <g id="Group_42764" data-name="Group 42764" transform="translate(1.052 1.37)">
        <path id="Path_85462" data-name="Path 85462" d="M239.756,332.266a2.533,2.533,0,0,1-.994-.248l-7.306,23.876,1,.289Z" transform="translate(-231.415 -331.976)" fill="url(#linear-gradient-2)"/>
        <path id="Path_85463" data-name="Path 85463" d="M232.388,356.131l-1.059-.307,7.331-23.939.029.015a2.584,2.584,0,0,0,.983.248l.04,0-.012.041Zm-.982-.348.945.273,7.28-23.848a2.565,2.565,0,0,1-.934-.237Z" transform="translate(-231.329 -331.885)" fill="#e30023"/>
      </g>
      <g id="Group_42765" data-name="Group 42765" transform="translate(7.391 0)">
        <path id="Path_85464" data-name="Path 85464" d="M251.308,328.626a2.5,2.5,0,0,0,.385.268,5.376,5.376,0,0,0,.576.189s.253.11.43.164a1.792,1.792,0,0,0,.573.073,3.658,3.658,0,0,0,.4.131c.147.031.46.062.46.062a1.585,1.585,0,0,0-1.151-1.776C252.042,327.492,251.545,328.3,251.308,328.626Z" transform="translate(-251.271 -327.66)" fill="#9b9da1"/>
        <path id="Path_85465" data-name="Path 85465" d="M254.074,329.476h-.026s-.318-.032-.459-.064a3.162,3.162,0,0,1-.353-.112,3.843,3.843,0,0,1-.621-.093,4.334,4.334,0,0,1-.426-.157s-.437-.128-.586-.2a2.518,2.518,0,0,1-.379-.265l-.031-.026.058-.084a3.108,3.108,0,0,1,.355-.449,1.279,1.279,0,0,1,1.3-.393,1.622,1.622,0,0,1,1.173,1.8Zm-2.8-.925a2.116,2.116,0,0,0,.357.247,5.772,5.772,0,0,0,.565.187,4.57,4.57,0,0,0,.433.164,1.774,1.774,0,0,0,.56.074h.011l.006,0a4.152,4.152,0,0,0,.4.13c.118.025.345.049.425.057a1.538,1.538,0,0,0-1.135-1.714,1.2,1.2,0,0,0-1.239.376,3.554,3.554,0,0,0-.353.438Z" transform="translate(-251.193 -327.591)" fill="#6a6c6e"/>
      </g>
      <path id="Path_85466" data-name="Path 85466" d="M254.426,332.1" transform="translate(-246.003 -330.661)" fill="none" stroke="#e53518" stroke-width="0.089"/>
    </g>
    <path id="Path_85467" data-name="Path 85467" d="M200.068,349.909s6.355.431,10.483,4.841A11.951,11.951,0,0,0,200.068,349.909Z" transform="translate(-49.456 -29.884)" fill="#fba269"/>
    <path id="Path_85468" data-name="Path 85468" d="M253.7,367.216a8.179,8.179,0,0,1,5.462-1.175A5.631,5.631,0,0,0,253.7,367.216Z" transform="translate(-85.976 -40.707)" fill="#494949"/>
    <path id="Path_85469" data-name="Path 85469" d="M255.742,360.456a6.239,6.239,0,0,1,4.16-.9A4.29,4.29,0,0,0,255.742,360.456Z" transform="translate(-87.363 -36.337)" fill="#494949"/>
    <path id="Path_85470" data-name="Path 85470" d="M250.7,374.651A7.642,7.642,0,0,1,256.93,373S253.02,371.569,250.7,374.651Z" transform="translate(-83.927 -45.4)" fill="#494949"/>
    <path id="Path_85471" data-name="Path 85471" d="M249.381,385.871a7.347,7.347,0,0,1,6.616-.6S252.078,382.987,249.381,385.871Z" transform="translate(-83.032 -53.395)" fill="#494949"/>
    <path id="Path_85472" data-name="Path 85472" d="M249.381,380.28a7.346,7.346,0,0,1,6.616-.6S252.078,377.4,249.381,380.28Z" transform="translate(-83.032 -49.588)" fill="#494949"/>
    <path id="Path_85473" data-name="Path 85473" d="M249,391.649a7.349,7.349,0,0,1,6.615-.6S251.7,388.763,249,391.649Z" transform="translate(-82.775 -57.328)" fill="#494949"/>
    <path id="Path_85474" data-name="Path 85474" d="M247.8,399.156a8.333,8.333,0,0,1,7.121-.835S250.784,396.082,247.8,399.156Z" transform="translate(-81.955 -62.329)" fill="#494949"/>
    <path id="Path_85475" data-name="Path 85475" d="M199.1,358.967s5.9-.268,10.131,3.662A10.651,10.651,0,0,0,199.1,358.967Z" transform="translate(-48.793 -35.936)" fill="#fba269"/>
    <path id="Path_85476" data-name="Path 85476" d="M198.33,367.425a12.624,12.624,0,0,1,9.244,3S203.963,365.789,198.33,367.425Z" transform="translate(-48.273 -41.591)" fill="#fba269"/>
    <path id="Path_85477" data-name="Path 85477" d="M196.744,375.245a11.7,11.7,0,0,1,8.61,3.615S202.223,373.99,196.744,375.245Z" transform="translate(-47.193 -47.012)" fill="#fba269"/>
    <path id="Path_85478" data-name="Path 85478" d="M195.263,382.89a11.521,11.521,0,0,1,8.526,3.612S200.69,381.636,195.263,382.89Z" transform="translate(-46.184 -52.218)" fill="#fba269"/>
    <path id="Path_85479" data-name="Path 85479" d="M195.185,392.64a12.344,12.344,0,0,1,8.233,3.017A8.6,8.6,0,0,0,195.185,392.64Z" transform="translate(-46.131 -58.886)" fill="#fba269"/>
    <g id="Group_42767" data-name="Group 42767" transform="translate(127.433 305.992)">
      <path id="Path_85480" data-name="Path 85480" d="M188.18,335.447a29.479,29.479,0,0,1-5.482,18.311,30.191,30.191,0,1,1-7.235-41.824q.745.53,1.448,1.1a30.278,30.278,0,0,1,7.265,8.494c.376.653,1.373,2.668,1.05,1.994a34.293,34.293,0,0,0-9.205-11.187,27.893,27.893,0,1,0,11.547,22.106,17.279,17.279,0,0,0-.529-4.384c.252.731.362,1.05.514,1.583A27.167,27.167,0,0,1,188.18,335.447Z" transform="translate(-127.858 -306.174)" fill="#001d31"/>
      <path id="Path_85481" data-name="Path 85481" d="M187.557,335.181a29.479,29.479,0,0,1-5.482,18.308,30.19,30.19,0,1,1-7.234-41.822c.5.353.977.719,1.445,1.1a30.256,30.256,0,0,1,7.267,8.5c.375.651,1.373,2.668,1.048,1.993a34.287,34.287,0,0,0-9.2-11.187,27.89,27.89,0,1,0,11.547,22.106,17.3,17.3,0,0,0-.529-4.384c.252.73.36,1.05.515,1.583A27.388,27.388,0,0,1,187.557,335.181Z" transform="translate(-127.433 -305.992)" fill="#fff"/>
    </g>
  </g>
</svg>
