<svg xmlns="http://www.w3.org/2000/svg" width="40.191" height="140.806" viewBox="0 0 40.191 140.806">
  <g id="Group_42862" data-name="Group 42862" transform="translate(-1175.829 -548.008)">
    <path id="Path_85560" data-name="Path 85560" d="M1199.382,578.458s6.526-2.312,11.734.116,9.873,23.959-6.082,26.7h0S1190.062,619.736,1199.382,578.458Z" fill="#1e3865"/>
    <path id="Path_85561" data-name="Path 85561" d="M1197.642,652.453a27.334,27.334,0,0,1-.278,5.708c-1.172,9.391-5,24.388-5,24.388l-4.793.581c.35-2.651-.648-12.807-1.972-24.062-2-16.979-4.746-36.459-4.746-36.459s10.435-8.624,16.584-6.242S1196.921,645.873,1197.642,652.453Z" fill="#25468f"/>
    <path id="Path_85562" data-name="Path 85562" d="M1197.364,658.161c-1.172,9.391-5,24.388-5,24.388l-4.793.581c.35-2.651-.648-12.807-1.972-24.062,1.705.3,6.334.9,10.206-.562A4.851,4.851,0,0,1,1197.364,658.161Z" fill="#dceaff"/>
    <path id="Path_85563" data-name="Path 85563" d="M1192.974,552.907a6.969,6.969,0,0,0-5.363,0c-2.836,1.213-4.9,6.377-3.63,11.2s-3.018,4.905-1.032,8.773c.7,1.372,10.025,2.539,10.343-2.8.2-3.31-2.8-3.474-1.926-7.071S1192.974,552.907,1192.974,552.907Z" fill="#2a3967"/>
    <path id="Path_85564" data-name="Path 85564" d="M1206.357,651.426a34.157,34.157,0,0,1-.067,7.511c-.814,9.573-3.416,23.255-3.416,23.255l-4.741,1.1c.181-2.619-1.367-12.47-3.321-23.49-3.037-17.144-7.052-37.123-7.052-37.123s9.885-9.253,16.17-7.252S1205.233,644.9,1206.357,651.426Z" fill="#25468f"/>
    <path id="Path_85565" data-name="Path 85565" d="M1187.63,682.185a5.6,5.6,0,0,1-3.309,2.577,5.437,5.437,0,0,0-3.258,2.027,1.275,1.275,0,0,0,1.037,2.025l11.027-.063a1.585,1.585,0,0,0,1.568-1.753c-.087-.817-.178-1.767-.22-2.5a5.242,5.242,0,0,0-1.815-3.022,11.362,11.362,0,0,1-2.1.971A7.824,7.824,0,0,1,1187.63,682.185Z" fill="#1f2d4e"/>
    <path id="Path_85566" data-name="Path 85566" d="M1204.65,607.474a84.8,84.8,0,0,1,8.541,30.964s-19.254,7.627-36.322,1.173l2.952-31.476S1192,612.494,1204.65,607.474Z" fill="#25468f"/>
    <path id="Path_85567" data-name="Path 85567" d="M1185.528,575.941s-7.2,12.149-8.659,22.055c0,0,3.505,4.729,4.93,1.408S1193.456,578.308,1185.528,575.941Z" fill="#ffae73"/>
    <path id="Path_85568" data-name="Path 85568" d="M1186.9,554.374a14.805,14.805,0,0,1,9.33-6.244,8.913,8.913,0,0,1,10.2,7.52c.755,4.918-.015,11.292-8.04,13.588Z" fill="#2a3967"/>
    <path id="Path_85569" data-name="Path 85569" d="M1188.374,576.291l9.081,5.394,2.3-6.392a20,20,0,0,1-1.359-6.056,24.835,24.835,0,0,1,.146-5.372l-7.9,3.43a14.61,14.61,0,0,1,.193,1.77,12.752,12.752,0,0,1-.392,4.084A5.673,5.673,0,0,1,1188.374,576.291Z" fill="#ffae73"/>
    <path id="Path_85570" data-name="Path 85570" d="M1190.445,573.148c4.356.161,7.949-3.91,7.949-3.91l-7.557-.173A12.74,12.74,0,0,1,1190.445,573.148Z" fill="#f9924f"/>
    <path id="Path_85571" data-name="Path 85571" d="M1188.49,570.591s8.528,2.842,11.959-3.865c3.7-7.239.506-12.888-2.417-13.441-5.828-1.1-9.382.92-10.565,3.221S1183.781,569.066,1188.49,570.591Z" fill="#ffae73"/>
    <path id="Path_85573" data-name="Path 85573" d="M1176.869,598a24.59,24.59,0,0,0,5.99,16.767s1.822-2.193,1.592-2.874-2.842-11.134-4.75-12.621S1176.869,598,1176.869,598Z" fill="#f9924f"/>
    <path id="Path_85574" data-name="Path 85574" d="M1179.821,608.135a36.293,36.293,0,0,0,6,1.588,34.191,34.191,0,0,0,5.944.51,33.535,33.535,0,0,0,4.636-.334,30.594,30.594,0,0,0,5.965-1.459,17.957,17.957,0,0,0,2.28-.966,3.106,3.106,0,0,1,0-.559c.04-.65.178-1.721.38-3.045.014-.088.027-.178.041-.268.068-.444.143-.914.223-1.4,1.021-6.243,2.877-15.673,2.877-15.673l.586-4.324a5.11,5.11,0,0,0-2.477-5.087,5,5,0,0,0-.613-.307,16.191,16.191,0,0,0-2.19-.735c-1.06-.278-2.157-.468-3.62-.771-.023.022-.047.043-.072.065a13.1,13.1,0,0,1-1.664,1.255,8.186,8.186,0,0,1-5.862,1.41c-2.346-.459-2.808-1.725-2.681-3.074-.6.061-1.148.125-1.656.2a6.9,6.9,0,0,0-5.883,5.749c-.356,2.228-.761,6.344-1.165,11.5C1180.508,597.017,1180.148,602.467,1179.821,608.135Z" fill="#ff912b"/>
    <path id="Path_85575" data-name="Path 85575" d="M1184.451,611.889s3.432,1.586,2.266,3.276-3.5.679-3.858-.4S1184.451,611.889,1184.451,611.889Z" fill="#f9924f"/>
    <path id="Path_85576" data-name="Path 85576" d="M1194.465,554.081s-.808,8,6.782,10.837c3.018,1.127,4.59-11.093-1.717-13.534s-12.526.458-13.269,4.724-.177,5.155-.177,5.155S1189.036,553.148,1194.465,554.081Z" fill="#2a3967"/>
    <path id="Path_85577" data-name="Path 85577" d="M1187.369,613.79s-4.272-.031-4.51.974a3.09,3.09,0,0,0,4.222,3.052c3.124-1.1,3.046-1.78,3.046-1.78Z" fill="#ffae73"/>
    <path id="Path_85578" data-name="Path 85578" d="M1203.885,552.975a6.262,6.262,0,0,1,5.363,0c2.836,1.366,4.9,7.18,3.63,12.611s3.018,5.523,1.033,9.878c-.7,1.545-10.026,2.859-10.344-3.156-.2-3.727,2.8-3.911,1.926-7.961S1203.885,552.975,1203.885,552.975Z" fill="#2a3967"/>
    <path id="Path_85579" data-name="Path 85579" d="M1206.29,658.937c-.814,9.573-3.416,23.255-3.416,23.255l-4.741,1.1c.181-2.619-1.367-12.47-3.321-23.49A30.182,30.182,0,0,0,1206.29,658.937Z" fill="#fff"/>
    <path id="Path_85580" data-name="Path 85580" d="M1198,682.185a5.6,5.6,0,0,1-3.309,2.577,5.437,5.437,0,0,0-3.258,2.027,1.275,1.275,0,0,0,1.037,2.025l11.027-.063a1.585,1.585,0,0,0,1.568-1.753c-.087-.817-.178-1.767-.22-2.5a5.242,5.242,0,0,0-1.815-3.022,11.362,11.362,0,0,1-2.1.971A7.824,7.824,0,0,1,1198,682.185Z" fill="#2a3967"/>
    <path id="Path_85581" data-name="Path 85581" d="M1195.03,608.125a15.21,15.21,0,0,0,1.375,1.774,30.594,30.594,0,0,0,5.965-1.459c2.509-6.084,3.8-16.026,3.8-16.026Z" fill="#fc7600"/>
    <path id="Path_85582" data-name="Path 85582" d="M1182.988,578.353s-7.444,17.53-7.15,22.233,3.317,11.548,4.4,11.908l1.083.361s2.7-.663,2.763-2.281c0,0-2.184-10.076-1.662-11.575S1182.988,578.353,1182.988,578.353Z" fill="#ff912b"/>
    <g id="Group_42859" data-name="Group 42859">
      <path id="Path_85583" data-name="Path 85583" d="M1180.66,597.985c1.68-3.069,2.8-12.269,2.8-12.269l-1.858,18.4S1179.826,599.509,1180.66,597.985Z" fill="#fc7600"/>
      <path id="Path_85584" data-name="Path 85584" d="M1187.326,607.474c2.891-.655,7.261-10.543,7.261-10.543l4.5,5.135-7.321,8.167a34.191,34.191,0,0,1-5.944-.51l-2.067-.376-2.151-5.231.413-4.09C1181.314,607.2,1184.882,608.027,1187.326,607.474Z" fill="#fc7600"/>
    </g>
    <g id="Group_42860" data-name="Group 42860">
      <path id="Path_85585" data-name="Path 85585" d="M1192.391,578.045s4.944-2.264,6.7-4.7c0,0,1.973,1.131,2.143,2.427S1195.019,579.246,1192.391,578.045Z" fill="#fff"/>
      <path id="Path_85586" data-name="Path 85586" d="M1190.228,573.785s.271,3.375,2.163,4.26c0,0-3.569-.214-4.794-2.841C1187.6,575.2,1188.962,573.75,1190.228,573.785Z" fill="#fff"/>
      <path id="Path_85587" data-name="Path 85587" d="M1192.591,578.034a.319.319,0,1,0-.32.319A.319.319,0,0,0,1192.591,578.034Z" fill="#2a3967"/>
    </g>
    <g id="Group_42861" data-name="Group 42861">
      <path id="Path_85588" data-name="Path 85588" d="M1196.214,593.205c1.644,4.8,4.987,8.7,8.855,10.4.068-.444.143-.914.223-1.4-3.387-1.616-6.307-5.126-7.784-9.437-1.466-4.284-1.173-8.479.806-11.511a9.418,9.418,0,0,1,7.964-4.136,5,5,0,0,0-.613-.307,16.191,16.191,0,0,0-2.19-.735,10.208,10.208,0,0,0-6.307,4.429C1194.956,583.889,1194.608,588.52,1196.214,593.205Z" fill="#25468f"/>
    </g>
    <path id="Path_85589" data-name="Path 85589" d="M1198.89,580.77s-3.3,13.252-3.432,18.729c0,0-7.64,13.342-8.088,14.291s2.757,2.246,2.757,2.246,9.584-10.221,11.432-14.517,6.633-17.485,5.643-20.749C1205.772,576.057,1198.89,580.77,1198.89,580.77Z" fill="#ffae73"/>
    <path id="Path_85590" data-name="Path 85590" d="M1207.948,580.029c.623,3.53-3.1,19.23-5.057,23.337s-5.436,9.065-9.563,9.128c0,0-3.167-.765-3.516-3.089,0,0,1.8-6.188,3.431-8.819s4.2-19.288,5.831-20.331S1207.325,576.5,1207.948,580.029Z" fill="#ff912b"/>
  </g>
</svg>
