<svg xmlns="http://www.w3.org/2000/svg" width="213.84" height="200" viewBox="0 0 213.84 200">
  <g id="Group_43794" data-name="Group 43794" transform="translate(-454.081 -68.048)">
    <path id="Path_87455" data-name="Path 87455" d="M464.339,310.222a44.138,44.138,0,0,1-4.869-16.249c-1.07-11.137,2.021-24.364,9.274-31.514,10.478-10.33,23.042-1.474,42.658-3.939,36.93-4.641,38.05-41.768,78.265-50.7,5.757-1.279,32.853-6.539,55.042,10.565a65.188,65.188,0,0,1,19.474,25.851c12.982,30.771-1.4,61.273-3.711,65.975Z" transform="translate(-1.622 -43.19)" fill="#f7f7f9"/>
    <g id="Group_43746" data-name="Group 43746" transform="translate(454.081 266.674)">
      <path id="Path_87456" data-name="Path 87456" d="M454.743,358.522H667.259a.688.688,0,0,0,0-1.374H454.743a.688.688,0,0,0,0,1.374Z" transform="translate(-454.081 -357.148)" fill="#4d5369"/>
    </g>
    <g id="Group_43753" data-name="Group 43753" transform="translate(623.947 209.013)">
      <path id="Path_87457" data-name="Path 87457" d="M746.531,319.4a13.333,13.333,0,0,0-2.149,1.334c-2.671,2.034-2.945,3.861-5.455,5.164a8.259,8.259,0,0,1-2.472.816,8.661,8.661,0,0,1-4.274-.412s-2.495-5.382,7.555-8.325l.434,1.654.753-1.375a6.01,6.01,0,0,1,2.188-.243A6.2,6.2,0,0,1,746.531,319.4Z" transform="translate(-710.893 -287.229)" fill="#ffad9f"/>
      <path id="Path_87458" data-name="Path 87458" d="M742.123,292.642a11.521,11.521,0,0,1-2.975,5.213c-1.5,1.465-2.568,1.58-4.808,3.735a10.026,10.026,0,0,0-2.564,3.206,8.312,8.312,0,0,0-.448,5.09,16.335,16.335,0,0,0,8.284-3.877l-1.119-1.9,1.908,1.018A16.021,16.021,0,0,0,742.123,292.642Z" transform="translate(-710.647 -279.299)" fill="#ffad9f"/>
      <path id="Path_87459" data-name="Path 87459" d="M725.93,295.737c7.551-2.014,10.027-10.043,10.027-10.043-.243-.41-3.66-1.26-3.66-1.26l4.417-.826s.775-1.262.194-3.924,1.078-6.462,1.078-6.462a25.2,25.2,0,0,0-7.031,3.13c-2.3,1.485-5.775,3.732-7.045,7.847a10.674,10.674,0,0,0-.417,2.052l1.623,2.063-1.7-.724A15.861,15.861,0,0,0,725.93,295.737Z" transform="translate(-708.237 -273.222)" fill="#ffad9f"/>
      <path id="Path_87460" data-name="Path 87460" d="M712.468,305.186s5.988-12.516-11.147-16.29a8.551,8.551,0,0,1,1.846,6.083c-.121,4.085,1.128,4.694,1.128,4.694l3.143-.565-2.494,2.494S708.537,305.928,712.468,305.186Z" transform="translate(-701.321 -278.127)" fill="#ffad9f"/>
      <path id="Path_87461" data-name="Path 87461" d="M702.02,318.812s11.228-4.374,11.239,5.667c0,0-3.466,3.423-7.086-1.358l.827-1.934-1.559.4S703.191,319.07,702.02,318.812Z" transform="translate(-701.54 -287.193)" fill="#ffad9f"/>
      <g id="Group_43747" data-name="Group 43747" transform="translate(4.252 32.366)">
        <path id="Path_87462" data-name="Path 87462" d="M719.607,334.948l.012,0a.211.211,0,0,0,.168-.247c-2.238-11.6-11.913-14.335-12.01-14.361a.211.211,0,0,0-.11.407c.095.025,9.519,2.7,11.705,14.034A.212.212,0,0,0,719.607,334.948Z" transform="translate(-707.51 -320.33)" fill="#4d5369"/>
      </g>
      <g id="Group_43748" data-name="Group 43748" transform="translate(5.274 16.277)">
        <path id="Path_87463" data-name="Path 87463" d="M720.375,329.867a.211.211,0,0,0,.182-.23,75.642,75.642,0,0,0-11.17-32.623.211.211,0,0,0-.357.223,75.209,75.209,0,0,1,11.107,32.442.21.21,0,0,0,.23.189Z" transform="translate(-708.998 -296.914)" fill="#4d5369"/>
      </g>
      <g id="Group_43749" data-name="Group 43749" transform="translate(15.621 11.367)">
        <path id="Path_87464" data-name="Path 87464" d="M725.781,332.237l.014,0a.21.21,0,0,0,.164-.249,71.374,71.374,0,0,1,4-41.927.211.211,0,0,0-.113-.276.209.209,0,0,0-.275.114,71.779,71.779,0,0,0-4.026,42.172A.211.211,0,0,0,725.781,332.237Z" transform="translate(-724.058 -289.767)" fill="#4d5369"/>
      </g>
      <g id="Group_43750" data-name="Group 43750" transform="translate(16.459 22.536)">
        <path id="Path_87465" data-name="Path 87465" d="M725.613,333.666a.211.211,0,0,0,.182-.224c-.383-5.551.039-16.016,7.161-23.727a24.97,24.97,0,0,1,3.749-3.311.211.211,0,1,0-.246-.342,25.376,25.376,0,0,0-3.812,3.366c-7.23,7.828-7.66,18.423-7.272,24.043a.209.209,0,0,0,.224.2Z" transform="translate(-725.276 -306.023)" fill="#4d5369"/>
      </g>
      <g id="Group_43751" data-name="Group 43751" transform="translate(15.507 34.316)">
        <path id="Path_87466" data-name="Path 87466" d="M724.13,339.174a.212.212,0,0,0,.18-.175,19.763,19.763,0,0,1,12.4-15.424.212.212,0,0,0,.12-.273.216.216,0,0,0-.273-.12,20.19,20.19,0,0,0-12.662,15.749.21.21,0,0,0,.174.242A.207.207,0,0,0,724.13,339.174Z" transform="translate(-723.891 -323.168)" fill="#4d5369"/>
      </g>
      <g id="Group_43752" data-name="Group 43752" transform="translate(8.242 47.95)">
        <path id="Path_87467" data-name="Path 87467" d="M713.317,343.013l2.032,10.4h12.3l2.038-10.4Zm.7.578h14.965l-1.807,9.244H715.829Z" transform="translate(-713.317 -343.013)" fill="#4d5369"/>
        <path id="Path_87468" data-name="Path 87468" d="M714.334,343.854l1.813,9.243h11.345l1.807-9.243Z" transform="translate(-713.635 -343.276)" fill="#fff"/>
      </g>
      <path id="Path_87469" data-name="Path 87469" d="M712.6,341.462h16.594a.524.524,0,0,0,.5-.377l.691-2.356a.525.525,0,0,0-.5-.673H711.9a.525.525,0,0,0-.5.673l.69,2.356A.525.525,0,0,0,712.6,341.462Z" transform="translate(-704.469 -293.512)" fill="#ffad9f"/>
    </g>
    <g id="Group_43764" data-name="Group 43764" transform="translate(548.715 68.048)">
      <g id="Group_43757" data-name="Group 43757" transform="translate(8.245 8.245)">
        <g id="Group_43754" data-name="Group 43754" transform="translate(1.374 1.374)">
          <path id="Path_87470" data-name="Path 87470" d="M684.6,85.717v97.341a3.673,3.673,0,0,1-3.669,3.669H609.49a3.668,3.668,0,0,1-3.669-3.669V85.717a3.668,3.668,0,0,1,3.669-3.669h71.439A3.673,3.673,0,0,1,684.6,85.717Z" transform="translate(-605.821 -82.048)" fill="#4d5369"/>
        </g>
        <g id="Group_43755" data-name="Group 43755" transform="translate(0.687 0.687)">
          <path id="Path_87471" data-name="Path 87471" d="M682.224,84.03v3.621h-77.4V84.03a2.983,2.983,0,0,1,2.982-2.982h71.439A2.988,2.988,0,0,1,682.224,84.03Z" transform="translate(-604.821 -81.048)" fill="#fff"/>
          <path id="Path_87472" data-name="Path 87472" d="M682.224,91.658v93.033a2.984,2.984,0,0,1-2.982,2.982H607.8a2.979,2.979,0,0,1-2.982-2.982V91.658Z" transform="translate(-604.821 -84.368)" fill="#fff"/>
        </g>
        <g id="Group_43756" data-name="Group 43756">
          <path id="Path_87473" data-name="Path 87473" d="M678.929,80.048H607.49a3.668,3.668,0,0,0-3.669,3.669v97.341a3.668,3.668,0,0,0,3.669,3.669h71.439a3.673,3.673,0,0,0,3.669-3.669V83.717A3.673,3.673,0,0,0,678.929,80.048Zm2.982,101.01a2.984,2.984,0,0,1-2.982,2.982H607.49a2.979,2.979,0,0,1-2.982-2.982V88.025h77.4Zm0-93.72h-77.4V83.717a2.983,2.983,0,0,1,2.982-2.982h71.439a2.988,2.988,0,0,1,2.982,2.982Z" transform="translate(-603.821 -80.048)" fill="#4d5369"/>
        </g>
        <circle id="Ellipse_3508" data-name="Ellipse 3508" cx="1.271" cy="1.271" r="1.271" transform="translate(18.19 2.717)" fill="#4d5369"/>
        <circle id="Ellipse_3509" data-name="Ellipse 3509" cx="1.271" cy="1.271" r="1.271" transform="translate(11.32 2.717)" fill="#4d5369"/>
        <circle id="Ellipse_3510" data-name="Ellipse 3510" cx="1.271" cy="1.271" r="1.271" transform="translate(4.449 2.717)" fill="#4d5369"/>
      </g>
      <g id="Group_43761" data-name="Group 43761" transform="translate(0)">
        <g id="Group_43758" data-name="Group 43758" transform="translate(1.374 1.374)">
          <path id="Path_87474" data-name="Path 87474" d="M672.6,73.717v97.341a3.673,3.673,0,0,1-3.669,3.669H597.49a3.668,3.668,0,0,1-3.669-3.669V73.717a3.668,3.668,0,0,1,3.669-3.669h71.439A3.673,3.673,0,0,1,672.6,73.717Z" transform="translate(-593.821 -70.048)" fill="#4d5369"/>
        </g>
        <g id="Group_43759" data-name="Group 43759" transform="translate(0.687 0.687)">
          <path id="Path_87475" data-name="Path 87475" d="M670.224,72.03v3.621h-77.4V72.03a2.983,2.983,0,0,1,2.982-2.982h71.439A2.988,2.988,0,0,1,670.224,72.03Z" transform="translate(-592.821 -69.048)" fill="#fff"/>
          <path id="Path_87476" data-name="Path 87476" d="M670.224,79.658v93.033a2.983,2.983,0,0,1-2.982,2.982H595.8a2.979,2.979,0,0,1-2.982-2.982V79.658Z" transform="translate(-592.821 -72.368)" fill="#fff"/>
        </g>
        <g id="Group_43760" data-name="Group 43760">
          <path id="Path_87477" data-name="Path 87477" d="M666.929,68.048H595.49a3.668,3.668,0,0,0-3.669,3.669v97.341a3.668,3.668,0,0,0,3.669,3.669h71.439a3.673,3.673,0,0,0,3.669-3.669V71.717A3.673,3.673,0,0,0,666.929,68.048Zm2.982,101.01a2.983,2.983,0,0,1-2.982,2.982H595.49a2.979,2.979,0,0,1-2.982-2.982V76.025h77.4Zm0-93.72h-77.4V71.717a2.983,2.983,0,0,1,2.982-2.982h71.439a2.988,2.988,0,0,1,2.982,2.982Z" transform="translate(-591.821 -68.048)" fill="#4d5369"/>
        </g>
        <circle id="Ellipse_3511" data-name="Ellipse 3511" cx="1.271" cy="1.271" r="1.271" transform="translate(18.19 2.717)" fill="#4d5369"/>
        <circle id="Ellipse_3512" data-name="Ellipse 3512" cx="1.271" cy="1.271" r="1.271" transform="translate(11.32 2.717)" fill="#4d5369"/>
        <circle id="Ellipse_3513" data-name="Ellipse 3513" cx="1.271" cy="1.271" r="1.271" transform="translate(4.449 2.717)" fill="#4d5369"/>
      </g>
      <g id="Group_43762" data-name="Group 43762" transform="translate(10.917 21.12)">
        <path id="Path_87478" data-name="Path 87478" d="M672.9,110.368h8.354a1.336,1.336,0,0,1,1.333,1.34v11.309" transform="translate(-628.112 -102.412)" fill="none" stroke="#231f20" stroke-linecap="round" stroke-linejoin="round" stroke-width="1"/>
        <circle id="Ellipse_3514" data-name="Ellipse 3514" cx="1.905" cy="1.905" r="1.905" transform="translate(43.205 25.198)" fill="#ffad9f"/>
        <path id="Path_87479" data-name="Path 87479" d="M663.506,119.049H653.063a6.788,6.788,0,0,0,0,13.576h8.78v10.292a1,1,0,0,1-.989,1H611.861a3.472,3.472,0,0,1-3.463-3.47V105.226a4.155,4.155,0,0,0,3.463,1.862h42.865a.34.34,0,0,0,.344-.344v-6.28a1.68,1.68,0,0,0-1.683-1.676H611.861a4.148,4.148,0,0,0-4.15,4.15v37.506a4.156,4.156,0,0,0,4.15,4.157h48.993a1.68,1.68,0,0,0,1.676-1.683V132.625h.976a1.639,1.639,0,0,0,1.635-1.635V120.684A1.639,1.639,0,0,0,663.506,119.049ZM611.861,99.475h41.525a.991.991,0,0,1,1,.989V106.4H611.861a3.463,3.463,0,1,1,0-6.925Zm52.594,31.515a.95.95,0,0,1-.948.948h-1.25a.347.347,0,0,0-.137,0h-9.055a6.1,6.1,0,1,1,0-12.2h10.443a.95.95,0,0,1,.948.948Z" transform="translate(-607.711 -98.788)" fill="#4d5369"/>
        <path id="Path_87480" data-name="Path 87480" d="M653.7,99.788H612.174a3.463,3.463,0,1,0,0,6.925H654.7v-5.936A.991.991,0,0,0,653.7,99.788Zm-4.857,3.806H615.334a.344.344,0,0,1,0-.687h33.507a.344.344,0,1,1,0,.687Z" transform="translate(-608.024 -99.101)" fill="#ffad9f"/>
        <path id="Path_87481" data-name="Path 87481" d="M652.045,104.672a.34.34,0,0,1-.344.344H618.195a.344.344,0,0,1,0-.687H651.7A.34.34,0,0,1,652.045,104.672Z" transform="translate(-610.884 -100.522)" fill="#4d5369"/>
        <rect id="Rectangle_28933" data-name="Rectangle 28933" width="16.505" height="2.515" rx="1.257" transform="translate(5.372 38.114)" fill="#ffad9f"/>
        <rect id="Rectangle_28934" data-name="Rectangle 28934" width="10.978" height="2.515" rx="1.257" transform="translate(5.372 33.992)" fill="#ffad9f"/>
      </g>
      <rect id="Rectangle_28935" data-name="Rectangle 28935" width="54.074" height="10.679" rx="5.339" transform="translate(11.32 79.987)" fill="#ffad9f"/>
      <g id="Group_43763" data-name="Group 43763" transform="translate(18.69 84.228)">
        <path id="Path_87482" data-name="Path 87482" d="M621.518,192.885a1.33,1.33,0,0,1-.528.521,1.632,1.632,0,0,1-.8.19h-1.162v-2.919h1.162a1.7,1.7,0,0,1,.807.183,1.285,1.285,0,0,1,.528.514,1.644,1.644,0,0,1,0,1.511Zm-.841-.208a.83.83,0,0,0,0-1.094.788.788,0,0,0-.565-.2h-.277v1.484h.277A.793.793,0,0,0,620.677,192.677Z" transform="translate(-619.024 -190.653)" fill="#4d5369"/>
        <path id="Path_87483" data-name="Path 87483" d="M624.864,190.678V193.6h-.812v-2.919Z" transform="translate(-620.598 -190.653)" fill="#4d5369"/>
        <path id="Path_87484" data-name="Path 87484" d="M628.75,190.914a1.1,1.1,0,0,1,.433.734h-.853a.476.476,0,0,0-.193-.19.619.619,0,0,0-.3-.07.594.594,0,0,0-.471.2.781.781,0,0,0-.175.534.8.8,0,0,0,.187.575.728.728,0,0,0,.55.2.665.665,0,0,0,.363-.1.673.673,0,0,0,.248-.293h-.809v-.577h1.48v.8a1.523,1.523,0,0,1-.5.62,1.41,1.41,0,0,1-.868.258,1.567,1.567,0,0,1-.779-.188,1.278,1.278,0,0,1-.513-.526,1.742,1.742,0,0,1,0-1.54,1.288,1.288,0,0,1,.509-.524,1.545,1.545,0,0,1,.775-.188A1.478,1.478,0,0,1,628.75,190.914Z" transform="translate(-621.322 -190.642)" fill="#4d5369"/>
        <path id="Path_87485" data-name="Path 87485" d="M632.441,190.678V193.6h-.812v-2.919Z" transform="translate(-622.969 -190.653)" fill="#4d5369"/>
        <path id="Path_87486" data-name="Path 87486" d="M636.182,190.678v.647h-.788V193.6h-.807v-2.271h-.779v-.647Z" transform="translate(-623.651 -190.653)" fill="#4d5369"/>
        <path id="Path_87487" data-name="Path 87487" d="M640,193.115h-1.035l-.161.486h-.853l1.068-2.907h.936l1.064,2.907h-.857Zm-.2-.61-.313-.948-.317.948Z" transform="translate(-624.948 -190.659)" fill="#4d5369"/>
        <path id="Path_87488" data-name="Path 87488" d="M644.177,192.982h.911v.614h-1.722v-2.919h.811Z" transform="translate(-626.642 -190.653)" fill="#4d5369"/>
        <path id="Path_87489" data-name="Path 87489" d="M652.669,190.678l-.68,2.919h-1.006l-.4-1.8-.4,1.8h-1.006l-.68-2.919h.874l.322,1.986.449-1.986h.886l.453,1.986.322-1.986Z" transform="translate(-628.245 -190.653)" fill="#4d5369"/>
        <path id="Path_87490" data-name="Path 87490" d="M657.433,193.115H656.4l-.161.486h-.853l1.068-2.907h.936l1.064,2.907h-.857Zm-.2-.61-.313-.948-.317.948Z" transform="translate(-630.403 -190.659)" fill="#4d5369"/>
        <path id="Path_87491" data-name="Path 87491" d="M661.607,192.982h.911v.614h-1.723v-2.919h.812Z" transform="translate(-632.096 -190.653)" fill="#4d5369"/>
        <path id="Path_87492" data-name="Path 87492" d="M665.159,192.982h.911v.614h-1.723v-2.919h.812Z" transform="translate(-633.208 -190.653)" fill="#4d5369"/>
        <path id="Path_87493" data-name="Path 87493" d="M668.711,191.325v.482h.944v.614h-.944v.528h1.068v.647H667.9v-2.919h1.879v.647Z" transform="translate(-634.32 -190.653)" fill="#4d5369"/>
        <path id="Path_87494" data-name="Path 87494" d="M673.892,190.678v.647H673.1V193.6H672.3v-2.271h-.779v-.647Z" transform="translate(-635.452 -190.653)" fill="#4d5369"/>
      </g>
    </g>
    <g id="Group_43793" data-name="Group 43793" transform="translate(466.291 88.617)">
      <g id="Group_43766" data-name="Group 43766" transform="translate(45.246 163.005)">
        <g id="Group_43765" data-name="Group 43765">
          <path id="Path_87495" data-name="Path 87495" d="M538.209,337.811l.369,7.919,5.06-.673-.738-9.316Z" transform="translate(-537.865 -335.397)" fill="#fff"/>
          <path id="Path_87496" data-name="Path 87496" d="M538.421,345.916a.343.343,0,0,1-.343-.328l-.369-7.918a.345.345,0,0,1,.2-.331l4.69-2.07a.344.344,0,0,1,.315.019.34.34,0,0,1,.166.268l.739,9.316a.344.344,0,0,1-.3.368l-5.059.673A.332.332,0,0,1,538.421,345.916Zm-.014-8.043.34,7.31,4.366-.581-.674-8.508Z" transform="translate(-537.708 -335.241)" fill="#4d5369"/>
        </g>
      </g>
      <g id="Group_43768" data-name="Group 43768" transform="translate(11.464 165.542)">
        <g id="Group_43767" data-name="Group 43767">
          <path id="Path_87497" data-name="Path 87497" d="M489.934,340.57l-.9,4.917h4.427l1-6.055Z" transform="translate(-488.695 -339.089)" fill="#fff"/>
          <path id="Path_87498" data-name="Path 87498" d="M493.309,345.674h-4.427a.343.343,0,0,1-.263-.123.347.347,0,0,1-.075-.282l.9-4.917a.343.343,0,0,1,.254-.271l4.532-1.138a.343.343,0,0,1,.423.389l-1,6.056A.343.343,0,0,1,493.309,345.674Zm-4.015-.687h3.724l.868-5.25-3.81.956Z" transform="translate(-488.538 -338.932)" fill="#4d5369"/>
        </g>
      </g>
      <g id="Group_43774" data-name="Group 43774" transform="translate(0 171.223)">
        <g id="Group_43769" data-name="Group 43769" transform="translate(0.012)">
          <path id="Path_87499" data-name="Path 87499" d="M489.469,347.934v5.277h-17.6a1.346,1.346,0,0,1,1.02-1.149,29.874,29.874,0,0,0,5.288-1.87,29.5,29.5,0,0,0,5.075-2.99h5.471A.741.741,0,0,1,489.469,347.934Z" transform="translate(-471.87 -347.202)" fill="#0f183f"/>
        </g>
        <g id="Group_43770" data-name="Group 43770" transform="translate(44.903)">
          <path id="Path_87500" data-name="Path 87500" d="M555.336,353.357H537.209c.045-1.774.08-3.548.126-5.327a.771.771,0,0,1,.769-.749c2.007-.023,4.02-.051,6.027-.079a.879.879,0,0,1,.55.192,24.629,24.629,0,0,0,4.192,2.708,25,25,0,0,0,5.448,2.01A1.316,1.316,0,0,1,555.336,353.357Z" transform="translate(-537.209 -347.202)" fill="#0f183f"/>
        </g>
        <g id="Group_43771" data-name="Group 43771" transform="translate(0 6.009)">
          <path id="Path_87501" data-name="Path 87501" d="M489.464,355.948v.974H471.853v-.828a.6.6,0,0,1,.012-.146Z" transform="translate(-471.853 -355.948)" fill="#4d5369"/>
        </g>
        <g id="Group_43772" data-name="Group 43772" transform="translate(44.879 6.155)">
          <path id="Path_87502" data-name="Path 87502" d="M555.325,356.161v.828q-9.075.1-18.15.208c.005-.344.017-.693.023-1.036Z" transform="translate(-537.175 -356.161)" fill="#4d5369"/>
        </g>
        <g id="Group_43773" data-name="Group 43773" transform="translate(44.879 6.155)">
          <path id="Path_87503" data-name="Path 87503" d="M537.2,356.161c-.006.344-.018.693-.023,1.036v-1.036Z" transform="translate(-537.175 -356.161)" fill="#4d5369"/>
        </g>
      </g>
      <path id="Path_87504" data-name="Path 87504" d="M488.435,296.689l6.7-51.924,4.988-48.9h27.213l1.311,54.609v45.341l-7.152,1.016-4.537-48.116-3.448-26.375q-3.378,13.775-6.758,27.549-5.513,23.471-11.026,46.943Z" transform="translate(-477.042 -128.616)" fill="#4d5369"/>
      <g id="Group_43776" data-name="Group 43776" transform="translate(27.317 7.252)">
        <g id="Group_43775" data-name="Group 43775">
          <path id="Path_87505" data-name="Path 87505" d="M525.943,123.875c-.486.3-1.472.632-3.429-.117l.775,8.426-6.481,2.153-3.188-2.711a39.512,39.512,0,0,0,.886-13.436c-1.513-.633-2.47-1.753-2.387-2.8a1.723,1.723,0,0,1,.649-1.252,1.937,1.937,0,0,1,1.7-.183q.482-2.022.964-4.045l5.626-.387,5.625-.484c.148,1.411.325,3.383.436,5.748C527.466,122.343,526.656,123.435,525.943,123.875Z" transform="translate(-511.77 -108.698)" fill="#fff"/>
          <path id="Path_87506" data-name="Path 87506" d="M516.651,134.523a.342.342,0,0,1-.223-.082l-3.187-2.71a.344.344,0,0,1-.111-.342,39.17,39.17,0,0,0,.9-13.121c-1.538-.7-2.5-1.914-2.408-3.057a2.033,2.033,0,0,1,.787-1.5,2.113,2.113,0,0,1,1.646-.326l.883-3.705a.343.343,0,0,1,.311-.263l5.625-.387,5.619-.484a.343.343,0,0,1,.371.306c.2,1.892.347,3.833.438,5.768.36,7.687-.461,8.856-1.333,9.393h0a3.835,3.835,0,0,1-3.218.091l.726,7.894a.343.343,0,0,1-.234.357l-6.481,2.153A.345.345,0,0,1,516.651,134.523Zm-2.8-3.18,2.879,2.449,6.039-2.006-.75-8.154a.344.344,0,0,1,.465-.352c1.377.528,2.428.576,3.125.146h0c.682-.42,1.334-1.791,1.008-8.776-.085-1.808-.22-3.621-.4-5.393l-5.29.456-5.379.371-.9,3.8a.343.343,0,0,1-.45.244,1.582,1.582,0,0,0-1.377.136,1.365,1.365,0,0,0-.51,1c-.071.893.8,1.878,2.177,2.451a.342.342,0,0,1,.21.281,39.844,39.844,0,0,1-.844,13.347Z" transform="translate(-511.613 -108.542)" fill="#4d5369"/>
        </g>
      </g>
      <g id="Group_43778" data-name="Group 43778" transform="translate(67.172 25.303)">
        <g id="Group_43777" data-name="Group 43777">
          <path id="Path_87507" data-name="Path 87507" d="M573.786,142.488a2.632,2.632,0,0,1,.81-1.617c.764-.658,1.686-.47,2.517-.652.925-.2,2.153-.991,3.292-3.73a.849.849,0,0,0,.119-.774.878.878,0,0,0-.69-.391c-.82-.1-1.254.878-2.3,1.549-1.435.917-3.357,1.21-3.734.672s.895-1.712.643-1.956c-.315-.3-2.711,1.142-3.446,2.84-.075.175-.295.726-.513,1.413-.168.532-.284.982-.36,1.305Z" transform="translate(-569.778 -134.972)" fill="#fff"/>
          <path id="Path_87508" data-name="Path 87508" d="M573.629,142.676a.355.355,0,0,1-.118-.021l-3.664-1.342a.343.343,0,0,1-.216-.4c.1-.44.227-.888.367-1.329.217-.685.438-1.246.525-1.446a6.308,6.308,0,0,1,3.443-3.068.594.594,0,0,1,.558.118c.307.3.053.7-.215,1.136-.116.185-.469.751-.386.869.181.258,1.806.171,3.268-.765a5.908,5.908,0,0,0,.937-.786c.475-.461.917-.9,1.593-.813a1.027,1.027,0,0,1,.833,1.668c-.957,2.288-2.142,3.6-3.522,3.9a6.226,6.226,0,0,1-.827.105,2.483,2.483,0,0,0-1.541.472,2.253,2.253,0,0,0-.695,1.411.346.346,0,0,1-.34.291Zm-3.258-1.9,3,1.1a2.74,2.74,0,0,1,.842-1.419,3.1,3.1,0,0,1,1.934-.636,5.577,5.577,0,0,0,.734-.091c1.154-.254,2.18-1.439,3.047-3.527a.386.386,0,0,1,.035-.063c.045-.067.161-.289.094-.429a.532.532,0,0,0-.423-.2c-.326-.041-.578.187-1.03.625a6.561,6.561,0,0,1-1.046.872c-1.441.921-3.637,1.385-4.2.58-.344-.491.049-1.121.365-1.628l.068-.109a5.955,5.955,0,0,0-2.64,2.56c-.066.152-.284.7-.5,1.38C570.549,140.115,570.454,140.445,570.371,140.772Z" transform="translate(-569.621 -134.815)" fill="#4d5369"/>
        </g>
      </g>
      <path id="Path_87509" data-name="Path 87509" d="M543.63,140.009q-2.788,6.894-5.58,13.78l-8.888-14.625a3.694,3.694,0,0,0-1.806-1.514q-6.159-2.29-12.324-4.591a4.719,4.719,0,0,1-4.451,3.363,4.266,4.266,0,0,1-2.925-.985,4.034,4.034,0,0,1-1.312-2.456l-12.063,6.684a7.2,7.2,0,0,0-3.621,5.057q-1.714,9.871-3.426,19.744a3.708,3.708,0,0,0,5.288,3.907l7.422-3.517c.1,1.395.167,3.024.157,4.843q0,.695-.024,1.427l0,.123q-.034,1.1-.1,2.126c-.029.462-.063.913-.1,1.355-.1,1.127-.216,2.188-.35,3.178a61.477,61.477,0,0,0,27.447-.276q-.025-1.116-.038-2.25c-.005-.414-.008-.829-.01-1.247q-.007-1.232,0-2.486,0-.619.01-1.245c0-.321.009-.643.014-.967.093-5.226.379-10.192.8-14.889l10.19,12.423a2.429,2.429,0,0,0,4.232-.941q2.967-12.315,5.929-24.638C545.322,140.532,546.406,140.871,543.63,140.009ZM495.859,160.57q1.157-3.392,2.313-6.786c.491,1.946.854,3.778,1.125,5.466Z" transform="translate(-476.649 -108.938)" fill="#ffad9f"/>
      <g id="Group_43779" data-name="Group 43779" transform="translate(26.313 0)">
        <path id="Path_87510" data-name="Path 87510" d="M526.939,107.469c2.234-1.854,2.634-3.18,2.485-4.1a7.761,7.761,0,0,0-2-3.168c-2.247-1.918-4.033-2.256-5.244-2.214-1.936.067-2.164,1.1-5.169,1.648-2.524.462-3.536-.05-4.637.917a6.744,6.744,0,0,0-1.434,2.784c-.6,1.581-.892,2.372-.766,3.265a5.533,5.533,0,0,0,1.833,3.221,4.774,4.774,0,0,1,1.566,1.665,3.367,3.367,0,0,1,.3,1.029,10.024,10.024,0,0,0,.717-2.956,9.9,9.9,0,0,0,.027-1.245.812.812,0,0,1,.659-.835c1.779-.338,5.667.977,10.277.28A12.383,12.383,0,0,0,526.939,107.469Z" transform="translate(-510.152 -97.986)" fill="#0f183f"/>
      </g>
      <g id="Group_43780" data-name="Group 43780" transform="translate(59.892 42.755)">
        <path id="Path_87511" data-name="Path 87511" d="M560.532,162.312l-1.506,5.988q.116-4.042.233-8.085Z" transform="translate(-559.026 -160.216)" fill="#ffad9f"/>
      </g>
      <g id="Group_43781" data-name="Group 43781" transform="translate(21.382 41.129)">
        <path id="Path_87512" data-name="Path 87512" d="M504.2,157.85l-.814,4.6c-.086-.3-.178-.6-.269-.89l-.138.321.1-.333Z" transform="translate(-502.974 -157.85)" fill="#ffad9f"/>
      </g>
      <g id="Group_43782" data-name="Group 43782" transform="translate(23.296 51.557)">
        <path id="Path_87513" data-name="Path 87513" d="M505.761,177.389l9.2-4.361-9.1,6.161q-.028-.653-.069-1.325Q505.777,177.626,505.761,177.389Z" transform="translate(-505.761 -173.028)" fill="#ffad9f"/>
      </g>
      <g id="Group_43783" data-name="Group 43783" transform="translate(22.529 47.263)">
        <path id="Path_87514" data-name="Path 87514" d="M504.764,169.828l-.12-.722,8.065-2.328Z" transform="translate(-504.644 -166.778)" fill="#ffad9f"/>
      </g>
      <g id="Group_43788" data-name="Group 43788" transform="translate(32.841 35.724)">
        <g id="Group_43785" data-name="Group 43785">
          <g id="Group_43784" data-name="Group 43784">
            <path id="Path_87515" data-name="Path 87515" d="M522.563,150.882l-2.4,15.969a.47.47,0,0,0,.471.537h12.25a.475.475,0,0,0,.472-.4l2.4-15.969a.471.471,0,0,0-.471-.537H523.035A.473.473,0,0,0,522.563,150.882Z" transform="translate(-519.81 -150.139)" fill="#fff"/>
            <path id="Path_87516" data-name="Path 87516" d="M532.724,167.575h-12.25a.821.821,0,0,1-.624-.284.808.808,0,0,1-.188-.646l2.4-15.97h0a.812.812,0,0,1,.811-.691h12.251a.82.82,0,0,1,.625.286.8.8,0,0,1,.186.646l-2.4,15.968A.811.811,0,0,1,532.724,167.575Zm-9.977-16.8-2.4,15.969a.117.117,0,0,0,.028.1.135.135,0,0,0,.1.046h12.25a.131.131,0,0,0,.132-.106l2.4-15.969a.113.113,0,0,0-.028-.1.133.133,0,0,0-.1-.047H522.878a.131.131,0,0,0-.132.108Z" transform="translate(-519.653 -149.983)" fill="#4d5369"/>
          </g>
        </g>
        <g id="Group_43787" data-name="Group 43787" transform="translate(7.174 7.182)">
          <g id="Group_43786" data-name="Group 43786">
            <ellipse id="Ellipse_3515" data-name="Ellipse 3515" cx="1.293" cy="1.27" rx="1.293" ry="1.27" transform="translate(0.344 0.343)" fill="#fff"/>
            <path id="Path_87517" data-name="Path 87517" d="M531.732,163.664a1.614,1.614,0,1,1,1.637-1.614A1.627,1.627,0,0,1,531.732,163.664Zm0-2.54a.927.927,0,1,0,.95.926A.939.939,0,0,0,531.732,161.124Z" transform="translate(-530.095 -160.437)" fill="#4d5369"/>
          </g>
        </g>
      </g>
      <g id="Group_43790" data-name="Group 43790" transform="translate(30.574 42.768)">
        <g id="Group_43789" data-name="Group 43789">
          <path id="Path_87518" data-name="Path 87518" d="M516.854,165.535a4.76,4.76,0,0,0,2.97-1.948.953.953,0,0,1,.7-.392,5.471,5.471,0,0,0,2.743-.927c1.289-.644,1.464-1.6,2.352-1.53a1.338,1.338,0,0,1,.754.317c.693.62.39,1.885.259,2.434a5.861,5.861,0,0,1-1.681,2.815,7.093,7.093,0,0,1-2.34,1.518,1.648,1.648,0,0,1-.764.113,6.64,6.64,0,0,0-1.042-.014,6.792,6.792,0,0,0-2.6.71Z" transform="translate(-516.51 -160.392)" fill="#fff"/>
          <path id="Path_87519" data-name="Path 87519" d="M518.052,168.82a.337.337,0,0,1-.116-.021.345.345,0,0,1-.2-.186l-1.354-3.1a.343.343,0,0,1,.009-.3.347.347,0,0,1,.236-.179,4.476,4.476,0,0,0,1.329-.5,4.424,4.424,0,0,0,1.429-1.31,1.287,1.287,0,0,1,.955-.537,4.268,4.268,0,0,0,2.1-.618c.155-.085.322-.177.517-.274a4.2,4.2,0,0,0,1.142-.873,1.559,1.559,0,0,1,2.348-.289c.844.755.508,2.166.364,2.767a6.251,6.251,0,0,1-1.775,2.982,7.389,7.389,0,0,1-2.452,1.593,1.976,1.976,0,0,1-.923.137,6.176,6.176,0,0,0-.989-.013,6.418,6.418,0,0,0-2.469.675A.343.343,0,0,1,518.052,168.82Zm-.877-3.206,1.05,2.4a7.049,7.049,0,0,1,3.5-.577,1.3,1.3,0,0,0,.605-.09,6.726,6.726,0,0,0,2.226-1.444,5.511,5.511,0,0,0,1.588-2.65c.116-.485.385-1.616-.154-2.1a1.012,1.012,0,0,0-.552-.231c-.312-.025-.491.133-.853.495a4.832,4.832,0,0,1-1.32,1c-.186.093-.346.181-.493.262a4.913,4.913,0,0,1-2.374.7.615.615,0,0,0-.45.247,5.091,5.091,0,0,1-2.774,1.986Z" transform="translate(-516.354 -160.235)" fill="#4d5369"/>
        </g>
      </g>
      <path id="Path_87520" data-name="Path 87520" d="M514.25,133.05l-.908.416a.316.316,0,0,0-.165.4,6.143,6.143,0,0,0,11.447-.1.315.315,0,0,0-.194-.4l-.81-.284a.743.743,0,0,0-.911.385,4.163,4.163,0,0,1-7.47-.029A.752.752,0,0,0,514.25,133.05Z" transform="translate(-484.779 -108.939)" fill="#ffad9f"/>
      <path id="Path_87521" data-name="Path 87521" d="M515.316,166.82l-2.28.87,2.153,4.355,2.154-1Z" transform="translate(-484.741 -119.528)" fill="#ffad9f"/>
      <path id="Path_87522" data-name="Path 87522" d="M568.907,143.1q-.4,1.092-.805,2.186l4.732,1.422.633-2.115Z" transform="translate(-501.974 -112.105)" fill="#ffad9f"/>
      <g id="Group_43791" data-name="Group 43791" transform="translate(23.225 64.211)">
        <path id="Path_87523" data-name="Path 87523" d="M532.716,193.68a3.209,3.209,0,0,1-1.728-.591,2.108,2.108,0,0,0-2.471,0,3.392,3.392,0,0,1-3.84,0,2.1,2.1,0,0,0-2.469,0,3.392,3.392,0,0,1-3.84,0,2.106,2.106,0,0,0-2.469,0,3.39,3.39,0,0,1-3.839,0,2.106,2.106,0,0,0-2.469,0,3.389,3.389,0,0,1-3.838,0l-.1-.061c.036-.442.071-.893.1-1.355a4.18,4.18,0,0,1,.682.368,2.109,2.109,0,0,0,2.469,0,3.39,3.39,0,0,1,3.839,0,2.109,2.109,0,0,0,2.469,0,3.391,3.391,0,0,1,3.839,0,2.109,2.109,0,0,0,2.469,0,3.392,3.392,0,0,1,3.84,0,2.11,2.11,0,0,0,2.47,0,3.39,3.39,0,0,1,3.839,0,1.98,1.98,0,0,0,1.034.392C532.709,192.852,532.711,193.267,532.716,193.68Z" transform="translate(-505.657 -191.446)" fill="#ffad9f"/>
      </g>
      <g id="Group_43792" data-name="Group 43792" transform="translate(23.428 60.479)">
        <path id="Path_87524" data-name="Path 87524" d="M532.809,187q-.006.626-.01,1.245a3.205,3.205,0,0,1-1.718-.591,2.111,2.111,0,0,0-2.471,0,3.389,3.389,0,0,1-3.84,0,2.108,2.108,0,0,0-2.469,0,3.389,3.389,0,0,1-3.84,0,2.109,2.109,0,0,0-2.469,0,3.387,3.387,0,0,1-3.839,0,2.109,2.109,0,0,0-2.469,0,3.215,3.215,0,0,1-1.919.6,3.146,3.146,0,0,1-1.813-.529q.022-.732.024-1.427a4.423,4.423,0,0,1,.554.313,2.109,2.109,0,0,0,2.469,0,3.387,3.387,0,0,1,3.839,0,2.109,2.109,0,0,0,2.469,0,3.388,3.388,0,0,1,3.839,0,2.109,2.109,0,0,0,2.469,0,3.389,3.389,0,0,1,3.84,0,2.11,2.11,0,0,0,2.47,0,3.387,3.387,0,0,1,3.839,0A1.981,1.981,0,0,0,532.809,187Z" transform="translate(-505.953 -186.013)" fill="#ffad9f"/>
      </g>
    </g>
  </g>
</svg>
