<svg id="g1438" xmlns="http://www.w3.org/2000/svg" width="93.845" height="40.99" viewBox="0 0 93.845 40.99">
  <g id="g1406">
    <g id="g1390" transform="translate(43.668 15.503)">
      <path id="path1386" d="M172.047,53.711h-16.4a.468.468,0,0,0-.487.487v1.3a.468.468,0,0,0,.487.487h12.256V62.8a17.826,17.826,0,0,0-1.136-1.461,6.518,6.518,0,0,0-4.627-2.192,4.06,4.06,0,0,0-3.247,1.786,5.4,5.4,0,0,0-1.136,3.166,6.943,6.943,0,0,0,.974,3.734,4.59,4.59,0,0,0,4.058,2.029,3.205,3.205,0,0,0,3.409-3,2.725,2.725,0,0,0-1.38-2.354l-.893-.487V65.48a1.581,1.581,0,0,1-1.461.974,2.266,2.266,0,0,1-1.623-.649,1.278,1.278,0,0,1-.325-1.055,1.99,1.99,0,0,1,.487-1.3,1.736,1.736,0,0,1,1.461-.731,4.871,4.871,0,0,1,4.14,2.354,7.428,7.428,0,0,1,1.38,4.14v3.409l2.435,1.461a.3.3,0,0,0,.244.081.468.468,0,0,0,.487-.487h0V56.065h.974a.468.468,0,0,0,.487-.487v-1.3A.555.555,0,0,0,172.047,53.711Z" transform="translate(-155.164 -53.305)" fill="#ed1c24"/>
      <path id="path1388" d="M242.818,52.819H222.039a.468.468,0,0,0-.487.487h0v2.273c-2.029-2.11-3.815-3.166-5.438-3.166a6.109,6.109,0,0,0-3.977,1.218,3.9,3.9,0,0,0-1.7,3.084c0,3.653,4.058,3.571,5.114,3.084a1.55,1.55,0,0,1,.649-.244,1.124,1.124,0,0,1,1.136,1.218c0,.812-1.217,1.542-2.679,1.542a1.746,1.746,0,0,1-1.623-.731l-.649-.974-.406,1.136a2.837,2.837,0,0,0-.243.974,3.209,3.209,0,0,0,1.217,2.354,3.829,3.829,0,0,0,2.6.974,4.292,4.292,0,0,0,3.653-1.7,4.812,4.812,0,0,0,1.055-3.166,3.865,3.865,0,0,0-.812-2.192,2.839,2.839,0,0,0-2.354-1.461,3.186,3.186,0,0,0-1.136.243,2.065,2.065,0,0,1-.568.162.7.7,0,0,1-.568-.325,1.082,1.082,0,0,1-.325-.812c0-.893.812-1.786,2.273-1.786h.081a4.1,4.1,0,0,1,2.841,1.38,11.564,11.564,0,0,1,1.786,2.273V71.569l2.435,1.461a.3.3,0,0,0,.243.081.468.468,0,0,0,.487-.487h0V55.173h3.734V66.455l2.922,1.218h.162a.468.468,0,0,0,.487-.487V67.1c.487-3.328,1.948-5.6,4.383-6.98v.649c0,.487,0,1.7.081,2.354a2.776,2.776,0,0,0,.081.893h0a19.6,19.6,0,0,0,.568,4.708c.812,2.76,2.191,3.409,3.166,3.409h.081a1.909,1.909,0,0,0,1.38-.487,1.43,1.43,0,0,0,.406-1.055,2.71,2.71,0,0,0-.244-1.217l-.243-.406-.487.081c-.487.162-.73.162-.73.081H240.3c-.162,0-.162,0-.243-.081-.162-.081-.487-.325-.73-1.218a9.8,9.8,0,0,1-.243-2.029c0-3.653.73-6.412,1.948-6.98h.081a.548.548,0,0,0,.325-.487.3.3,0,0,0-.081-.244v-.081a4.96,4.96,0,0,0-3.409-2.354h-.325a11.523,11.523,0,0,0-4.789,2.76c-.487.406-.974.812-1.38,1.218V55.173h11.363a.468.468,0,0,0,.487-.487v-1.3A.457.457,0,0,0,242.818,52.819Z" transform="translate(-193.143 -52.413)" fill="#ed1c24"/>
    </g>
    <path id="path1392" d="M53.879,35.289a9.321,9.321,0,0,1-.081,1.542,18.208,18.208,0,0,1-1.623,6.331,12.248,12.248,0,0,1-1.218,2.273A19.143,19.143,0,1,1,26.2,18.163a17.821,17.821,0,0,0-1.38,2.029c0,.081-.081.081-.081.162h0c-.244.244-.487.406-.731.649-.325.243-.568.568-.893.812l-.162.162-.162.162c-.081.081-.162.244-.325.325-.162.244-.406.487-.568.731A14.246,14.246,0,0,0,19.951,26.6c-.081.081-.081.244-.162.325-.081.162-.081.325-.162.406,0,.081-.081.162-.081.244-.081.244-.162.406-.244.649-.081.162-.081.325-.162.406,0,.081-.081.162-.081.244,0,.162-.081.325-.081.487l-.244,1.461a.732.732,0,0,1-.081.406v.731h0v1.218a16.365,16.365,0,0,0,6.169,12.906A16.793,16.793,0,0,0,35.373,49.9a16.26,16.26,0,0,0,9.74-3.166,16.744,16.744,0,0,0,4.87-5.519c.162-.325.325-.568.487-.893h0a15.058,15.058,0,0,0,1.542-6.575v-.568a10.878,10.878,0,0,0-.081-1.623l.081.081c.243.244.487.406.731.649.243-.406.487-.731.731-1.136a19.14,19.14,0,0,1,.325,2.273,15.666,15.666,0,0,1,.081,1.867Z" transform="translate(-15.568 -13.374)" fill="#ed1c24"/>
    <path id="path1394" d="M54.292,9.429,50.721,2.854a17.027,17.027,0,0,0-7.143,24.918,15.3,15.3,0,0,1-.162-2.76A17.029,17.029,0,0,1,54.292,9.429Z" transform="translate(-32.864 -2.854)" fill="#f7941d"/>
    <path id="path1396" d="M68.01,13.924a17.626,17.626,0,0,1,4.627-.568,17.033,17.033,0,0,1,2.922.244l-.081-2.922-.162-5.844A17.139,17.139,0,0,0,73.2,4.67a15.145,15.145,0,0,0-8.685,2.76L66.467,11a14.958,14.958,0,0,0-8.117,6.818,14.109,14.109,0,0,0-1.786,5.195,15.032,15.032,0,0,1,1.7-2.679A17.566,17.566,0,0,1,68.01,13.924Z" transform="translate(-43.74 -4.102)" fill="#ed1c24"/>
    <path id="path1398" d="M80.1,23.612l.162,4.14a14.9,14.9,0,0,0-4.3-.649,15.523,15.523,0,0,0-7.873,2.192,15.055,15.055,0,0,0-6.331,7.954,16.081,16.081,0,0,1,4.14-3.977,15.1,15.1,0,0,1,14.529-1.055,12.841,12.841,0,0,1,3.9,2.679l2.273-3.409,2.922-4.464A14.864,14.864,0,0,0,80.1,23.612Z" transform="translate(-47.307 -17.119)" fill="#f7941d"/>
    <path id="path1400" d="M58.788,38.512v.568a15.914,15.914,0,0,1-1.542,6.575h0c-.162.325-.325.568-.487.893a16.708,16.708,0,0,1-14.61,8.685A16.178,16.178,0,0,1,31.6,51.418a16.739,16.739,0,0,1-6.169-12.906V37.295h0v-.731a.732.732,0,0,1,.081-.406l.244-1.461c0-.162.081-.325.081-.487,0-.081.081-.162.081-.244.081-.162.081-.325.162-.406a5.593,5.593,0,0,1,.243-.649c0-.081.081-.162.081-.243.081-.162.081-.325.162-.406s.081-.243.162-.325a17.655,17.655,0,0,1,1.948-3.409c.162-.244.406-.487.568-.731.081-.081.162-.244.325-.325.081-.081.081-.162.162-.162.081-.081.081-.162.162-.162a4.254,4.254,0,0,1,.893-.812c.244-.244.487-.406.731-.649h0c0,.081-.081.081-.081.162a.283.283,0,0,1-.081.162,19.672,19.672,0,0,0-1.867,6.737,16.3,16.3,0,0,0-.081,2.029c0,8.766,5.114,15.828,11.445,15.828H41.5a15.088,15.088,0,0,0,2.679-.325,10.1,10.1,0,0,0,7.467-9.74V40.3a9.806,9.806,0,0,0-3.084-6.98,14.949,14.949,0,0,1,3.815.568,16.622,16.622,0,0,1,6.331,3.166l.081.081A7.774,7.774,0,0,0,58.788,38.512Z" transform="translate(-22.344 -18.545)" fill="#f7941d"/>
    <g id="g1404" transform="translate(2.76 6.818)">
      <path id="path1402" d="M58.075,37.8v.568a16.031,16.031,0,0,1-1.623,6.656c-.162.325-.325.568-.487.893a16.987,16.987,0,0,1-4.951,5.519A16.315,16.315,0,0,1,41.192,54.6,16.787,16.787,0,0,1,30.559,24.812l.162-.162c0,.081-.081.081-.081.162s-.081.081-.081.162A16.632,16.632,0,0,0,41.192,54.438a16.251,16.251,0,0,0,9.74-3.166,16.744,16.744,0,0,0,4.87-5.519,4.35,4.35,0,0,0,.406-.893,15.438,15.438,0,0,0,1.623-6.575v-.568a10.878,10.878,0,0,0-.081-1.623v-.081l.081.081.081.081a6.09,6.09,0,0,1,.162,1.623Z" transform="translate(-24.39 -24.65)" fill="#f7941d"/>
    </g>
  </g>
</svg>
