<svg id="Group_43745" data-name="Group 43745" xmlns="http://www.w3.org/2000/svg" width="210.872" height="200" viewBox="0 0 210.872 200">
  <path id="Path_87407" data-name="Path 87407" d="M61.83,312.3a35.346,35.346,0,0,1-4.822-14.19c-1.061-9.726,2-21.277,9.185-27.522,10.378-9.021,22.823-1.288,42.252-3.44,36.579-4.053,37.688-36.476,77.519-44.273,5.7-1.116,32.54-5.71,54.519,9.226a58.807,58.807,0,0,1,19.289,22.576c12.858,26.872-1.392,53.51-3.675,57.616Z" transform="translate(-54.207 -112.975)" fill="#f7f7f9"/>
  <g id="Group_43729" data-name="Group 43729" transform="translate(0.579 146.061)">
    <path id="Path_87408" data-name="Path 87408" d="M353.746,327.535a12.149,12.149,0,0,0-1.961,1.217c-2.437,1.856-2.688,3.522-4.978,4.712a7.55,7.55,0,0,1-2.255.743,7.9,7.9,0,0,1-3.9-.375s-2.276-4.911,6.893-7.6l.4,1.509.686-1.254a5.485,5.485,0,0,1,2-.223A5.673,5.673,0,0,1,353.746,327.535Z" transform="translate(-321.229 -298.18)" fill="#ffad9f"/>
    <path id="Path_87409" data-name="Path 87409" d="M355.646,300.9a10.52,10.52,0,0,1-2.714,4.757c-1.37,1.337-2.343,1.442-4.387,3.408a9.143,9.143,0,0,0-2.339,2.926,7.578,7.578,0,0,0-.409,4.644,14.9,14.9,0,0,0,7.558-3.537l-1.02-1.731,1.741.93A14.623,14.623,0,0,0,355.646,300.9Z" transform="translate(-326.928 -288.726)" fill="#ffad9f"/>
    <path id="Path_87410" data-name="Path 87410" d="M351.264,302.022c6.89-1.838,9.148-9.163,9.148-9.163-.221-.374-3.339-1.15-3.339-1.15l4.031-.753a5.142,5.142,0,0,0,.177-3.581c-.528-2.422.984-5.895.984-5.895a23,23,0,0,0-6.416,2.856c-2.1,1.355-5.268,3.4-6.427,7.159a9.7,9.7,0,0,0-.381,1.872l1.481,1.882-1.55-.661A14.47,14.47,0,0,0,351.264,302.022Z" transform="translate(-335.12 -281.48)" fill="#ffad9f"/>
    <path id="Path_87411" data-name="Path 87411" d="M384.745,312.016s5.462-11.419-10.171-14.863a7.8,7.8,0,0,1,1.684,5.55c-.111,3.727,1.029,4.283,1.029,4.283l2.867-.516-2.275,2.276S381.158,312.693,384.745,312.016Z" transform="translate(-374.574 -287.328)" fill="#ffad9f"/>
    <path id="Path_87412" data-name="Path 87412" d="M375.217,326.987s10.245-3.991,10.255,5.17c0,0-3.162,3.123-6.465-1.239l.755-1.764-1.423.36S376.286,327.222,375.217,326.987Z" transform="translate(-374.779 -298.138)" fill="#ffad9f"/>
    <g id="Group_43723" data-name="Group 43723" transform="translate(3.879 29.53)">
      <path id="Path_87413" data-name="Path 87413" d="M379.249,341.925h.01a.193.193,0,0,0,.154-.226,16.674,16.674,0,0,0-10.959-13.1.192.192,0,1,0-.1.371,16.29,16.29,0,0,1,10.68,12.8A.192.192,0,0,0,379.249,341.925Z" transform="translate(-368.211 -328.588)" fill="#4d5369"/>
    </g>
    <g id="Group_43724" data-name="Group 43724" transform="translate(4.812 14.851)">
      <path id="Path_87414" data-name="Path 87414" d="M378.153,335.237a.192.192,0,0,0,.165-.21,69,69,0,0,0-10.191-29.765.192.192,0,1,0-.325.2,68.636,68.636,0,0,1,10.134,29.6.193.193,0,0,0,.211.172Z" transform="translate(-367.771 -305.171)" fill="#4d5369"/>
    </g>
    <g id="Group_43725" data-name="Group 43725" transform="translate(14.252 10.371)">
      <path id="Path_87415" data-name="Path 87415" d="M362.493,336.773l.013,0a.192.192,0,0,0,.15-.228,65.108,65.108,0,0,1,3.652-38.253.192.192,0,0,0-.355-.148,65.485,65.485,0,0,0-3.673,38.479A.191.191,0,0,0,362.493,336.773Z" transform="translate(-360.92 -298.024)" fill="#4d5369"/>
    </g>
    <g id="Group_43726" data-name="Group 43726" transform="translate(15.016 20.562)">
      <path id="Path_87416" data-name="Path 87416" d="M351.864,339.5a.192.192,0,0,0,.166-.2c-.349-5.066.035-14.613,6.534-21.649a22.71,22.71,0,0,1,3.42-3.02.192.192,0,0,0-.224-.313,23.126,23.126,0,0,0-3.478,3.072c-6.6,7.141-6.988,16.809-6.635,21.936a.192.192,0,0,0,.2.179Z" transform="translate(-351.556 -314.281)" fill="#4d5369"/>
    </g>
    <g id="Group_43727" data-name="Group 43727" transform="translate(14.148 31.309)">
      <path id="Path_87417" data-name="Path 87417" d="M351.071,346.029a.193.193,0,0,0,.164-.16A18.032,18.032,0,0,1,362.547,331.8a.192.192,0,0,0,.11-.25.2.2,0,0,0-.249-.109,18.418,18.418,0,0,0-11.552,14.37.192.192,0,0,0,.159.221A.187.187,0,0,0,351.071,346.029Z" transform="translate(-350.853 -331.426)" fill="#4d5369"/>
    </g>
    <g id="Group_43728" data-name="Group 43728" transform="translate(7.52 43.749)">
      <path id="Path_87418" data-name="Path 87418" d="M371.388,351.271l-1.86,9.487h-11.22l-1.854-9.487Zm-12.642,8.96H369.1l1.649-8.434H357.092Z" transform="translate(-356.454 -351.271)" fill="#4d5369"/>
      <path id="Path_87419" data-name="Path 87419" d="M357.479,352.111l1.654,8.434h10.351l1.649-8.434Z" transform="translate(-356.842 -351.585)" fill="#fff"/>
    </g>
    <path id="Path_87420" data-name="Path 87420" d="M355.634,349.421h15.14a.48.48,0,0,0,.459-.344l.63-2.15a.479.479,0,0,0-.46-.614H355a.479.479,0,0,0-.459.614l.631,2.15A.479.479,0,0,0,355.634,349.421Z" transform="translate(-348.22 -305.672)" fill="#ffad9f"/>
  </g>
  <g id="Group_43730" data-name="Group 43730" transform="translate(0 198.651)">
    <path id="Path_87421" data-name="Path 87421" d="M61.711,366.722H268.58a.674.674,0,0,0,0-1.349H61.711a.674.674,0,0,0,0,1.349Z" transform="translate(-61.037 -365.373)" fill="#4d5369"/>
  </g>
  <g id="Group_43743" data-name="Group 43743" transform="translate(28.891 0)">
    <g id="Group_43732" data-name="Group 43732" transform="translate(0)">
      <path id="Path_87422" data-name="Path 87422" d="M209.547,48.891l-4.879,1.8a4.5,4.5,0,0,0-2.942,4.221V181.13a7.845,7.845,0,0,0,7.845,7.845h76.405a5.179,5.179,0,0,0,4.046-1.946l2.837-3.55-80.6-3.953Z" transform="translate(-201.726 -48.63)" fill="#4d5369"/>
      <g id="Group_43731" data-name="Group 43731" transform="translate(4.53)">
        <path id="Path_87423" data-name="Path 87423" d="M204.928,48.475h77.937a4.856,4.856,0,0,1,4.852,4.852V180.347a4.853,4.853,0,0,1-4.846,4.846H204.934a4.856,4.856,0,0,1-4.852-4.852V53.321A4.853,4.853,0,0,1,204.928,48.475Zm-4.219,131.866a4.227,4.227,0,0,0,4.225,4.225h77.937a4.224,4.224,0,0,0,4.219-4.219V53.327a4.227,4.227,0,0,0-4.225-4.225H204.928a4.224,4.224,0,0,0-4.219,4.219Z" transform="translate(-200.082 -48.475)" fill="#4d5369"/>
        <path id="Path_87424" data-name="Path 87424" d="M205.3,49.475h77.937a4.227,4.227,0,0,1,4.225,4.225V180.721a4.224,4.224,0,0,1-4.219,4.219H205.307a4.227,4.227,0,0,1-4.225-4.225V53.694A4.224,4.224,0,0,1,205.3,49.475ZM203.746,179.6a2.825,2.825,0,0,0,2.821,2.821h75.4a2.838,2.838,0,0,0,2.833-2.833V54.822a2.826,2.826,0,0,0-2.821-2.827H264.89a3.482,3.482,0,0,0-3.241,2.238l-.339.89a2.845,2.845,0,0,1-2.652,1.83H229.541a2.844,2.844,0,0,1-2.758-2.144l-.05-.2a3.462,3.462,0,0,0-3.36-2.614H206.58a2.837,2.837,0,0,0-2.833,2.827Z" transform="translate(-200.455 -48.848)" fill="#fff"/>
        <path id="Path_87425" data-name="Path 87425" d="M208.165,53.5h16.794a3.462,3.462,0,0,1,3.36,2.614l.05.2a2.844,2.844,0,0,0,2.758,2.144h29.118a2.845,2.845,0,0,0,2.652-1.83l.339-.89a3.482,3.482,0,0,1,3.241-2.238h17.088a2.826,2.826,0,0,1,2.821,2.827V181.086a2.838,2.838,0,0,1-2.833,2.833h-75.4a2.825,2.825,0,0,1-2.821-2.821V56.322A2.837,2.837,0,0,1,208.165,53.5Zm-2.207,127.6a2.2,2.2,0,0,0,2.194,2.194h75.4a2.21,2.21,0,0,0,2.207-2.207V56.322a2.2,2.2,0,0,0-2.194-2.2H266.476a2.845,2.845,0,0,0-2.652,1.83l-.339.89a3.482,3.482,0,0,1-3.241,2.238H231.127a3.462,3.462,0,0,1-3.36-2.614l-.05-.2a2.844,2.844,0,0,0-2.758-2.144H208.165a2.208,2.208,0,0,0-2.207,2.2Z" transform="translate(-202.041 -50.348)" fill="#4d5369"/>
        <path id="Path_87426" data-name="Path 87426" d="M206.332,56.7V181.472a2.2,2.2,0,0,0,2.194,2.194h75.4a2.21,2.21,0,0,0,2.207-2.207V56.7a2.2,2.2,0,0,0-2.194-2.2H266.849a2.845,2.845,0,0,0-2.652,1.83l-.339.89a3.482,3.482,0,0,1-3.241,2.238H231.5a3.462,3.462,0,0,1-3.36-2.614l-.05-.2a2.844,2.844,0,0,0-2.758-2.144H208.539A2.208,2.208,0,0,0,206.332,56.7Z" transform="translate(-202.414 -50.721)" fill="#fff"/>
      </g>
    </g>
    <g id="Group_43733" data-name="Group 43733" transform="translate(30.87 22.836)">
      <rect id="Rectangle_28914" data-name="Rectangle 28914" width="80.869" height="90.242" rx="5.043" transform="translate(0.314 0.313)" fill="#fff"/>
      <path id="Path_87427" data-name="Path 87427" d="M171.331,175.774h74.546a3.479,3.479,0,0,0,3.475-3.475V88.38a3.479,3.479,0,0,0-3.475-3.475H171.331a3.48,3.48,0,0,0-3.475,3.475V172.3A3.48,3.48,0,0,0,171.331,175.774Zm74.546-90.242a2.851,2.851,0,0,1,2.848,2.848V172.3a2.852,2.852,0,0,1-2.848,2.848H171.331a2.852,2.852,0,0,1-2.848-2.848V88.38a2.851,2.851,0,0,1,2.848-2.848Z" transform="translate(-167.856 -84.905)" fill="#4d5369"/>
    </g>
    <g id="Group_43734" data-name="Group 43734" transform="translate(40.352 80.052)">
      <rect id="Rectangle_28915" data-name="Rectangle 28915" width="13.409" height="13.409" rx="3.905" transform="translate(0)" fill="#ffad9f"/>
      <rect id="Rectangle_28916" data-name="Rectangle 28916" width="13.409" height="1.443" rx="0.722" transform="translate(0 15.915)" fill="#4d5369"/>
    </g>
    <g id="Group_43735" data-name="Group 43735" transform="translate(65.426 80.052)">
      <rect id="Rectangle_28917" data-name="Rectangle 28917" width="13.409" height="13.409" rx="3.905" transform="translate(0)" fill="#ffad9f"/>
      <rect id="Rectangle_28918" data-name="Rectangle 28918" width="13.409" height="1.443" rx="0.722" transform="translate(0 15.915)" fill="#4d5369"/>
    </g>
    <g id="Group_43736" data-name="Group 43736" transform="translate(90.501 80.052)">
      <rect id="Rectangle_28919" data-name="Rectangle 28919" width="13.409" height="13.409" rx="3.905" transform="translate(0)" fill="#ffad9f"/>
      <rect id="Rectangle_28920" data-name="Rectangle 28920" width="13.409" height="1.443" rx="0.722" transform="translate(0 15.915)" fill="#4d5369"/>
    </g>
    <g id="Group_43737" data-name="Group 43737" transform="translate(40.352 54.978)">
      <rect id="Rectangle_28921" data-name="Rectangle 28921" width="13.409" height="13.409" rx="3.905" transform="translate(0)" fill="#ffad9f"/>
      <rect id="Rectangle_28922" data-name="Rectangle 28922" width="13.409" height="1.443" rx="0.722" transform="translate(0 15.915)" fill="#4d5369"/>
    </g>
    <g id="Group_43738" data-name="Group 43738" transform="translate(65.426 54.978)">
      <rect id="Rectangle_28923" data-name="Rectangle 28923" width="13.409" height="13.409" rx="3.905" transform="translate(0)" fill="#ffad9f"/>
      <rect id="Rectangle_28924" data-name="Rectangle 28924" width="13.409" height="1.443" rx="0.722" transform="translate(0 15.915)" fill="#4d5369"/>
    </g>
    <g id="Group_43739" data-name="Group 43739" transform="translate(90.501 54.978)">
      <rect id="Rectangle_28925" data-name="Rectangle 28925" width="13.409" height="13.409" rx="3.905" transform="translate(0)" fill="#ffad9f"/>
      <rect id="Rectangle_28926" data-name="Rectangle 28926" width="13.409" height="1.443" rx="0.722" transform="translate(0 15.915)" fill="#4d5369"/>
    </g>
    <g id="Group_43740" data-name="Group 43740" transform="translate(40.352 29.904)">
      <rect id="Rectangle_28927" data-name="Rectangle 28927" width="13.409" height="13.409" rx="3.905" transform="translate(0)" fill="#ffad9f"/>
      <rect id="Rectangle_28928" data-name="Rectangle 28928" width="13.409" height="1.443" rx="0.722" transform="translate(0 15.915)" fill="#4d5369"/>
    </g>
    <g id="Group_43741" data-name="Group 43741" transform="translate(65.426 29.904)">
      <rect id="Rectangle_28929" data-name="Rectangle 28929" width="13.409" height="13.409" rx="3.905" transform="translate(0)" fill="#ffad9f"/>
      <rect id="Rectangle_28930" data-name="Rectangle 28930" width="13.409" height="1.443" rx="0.722" transform="translate(0 15.915)" fill="#4d5369"/>
    </g>
    <g id="Group_43742" data-name="Group 43742" transform="translate(90.501 29.904)">
      <rect id="Rectangle_28931" data-name="Rectangle 28931" width="13.409" height="13.409" rx="3.905" transform="translate(0)" fill="#ffad9f"/>
      <rect id="Rectangle_28932" data-name="Rectangle 28932" width="13.409" height="1.443" rx="0.722" transform="translate(0 15.915)" fill="#4d5369"/>
    </g>
  </g>
  <g id="Group_43744" data-name="Group 43744" transform="translate(128.558 59.273)">
    <path id="Path_87428" data-name="Path 87428" d="M93.581,158.56c.041,3.1.3,3.9.871,4.522a4.052,4.052,0,0,0,2.655,1.173,4.692,4.692,0,0,0,2.958-.782.343.343,0,0,1,.384.569,5.38,5.38,0,0,1-2.641.9l-.09,1.5a5.416,5.416,0,0,0,3.122,1.18,5.5,5.5,0,0,0,3.465-1.071,11.047,11.047,0,0,1,.213-3.561,4.806,4.806,0,0,1-.727-1.016,5.028,5.028,0,0,1-.577-2.628c-.014.007-.034.007-.048.014H103.1a.343.343,0,0,1-.061-.68,1.448,1.448,0,0,0,.926-.555c.316-.459.391-1.221,0-1.516a1.065,1.065,0,0,0-1.1.014.344.344,0,1,1-.315-.611,2.665,2.665,0,0,1,.261-.1c.3-1.036.288-1.763-.041-2.1-.3-.3-.789-.226-1.8-.055-.411.075-.878.158-1.406.213a12.731,12.731,0,0,1-5.8-.522C93.635,155.157,93.567,156.872,93.581,158.56Z" transform="translate(-45.257 -146.92)" fill="#fff"/>
    <path id="Path_87429" data-name="Path 87429" d="M88.424,146.508c.446-1.729,3.89-2.3,5.852-2.367,1.447-.048,3.856-.13,5.763,1.626a6.577,6.577,0,0,1,1.873,3.238.329.329,0,0,0,.233.247,2.483,2.483,0,0,1,1.05.6,3.44,3.44,0,0,1,.789,2.69,5.241,5.241,0,0,1-1.331,3.094,10.935,10.935,0,0,0-1.612,2.833c-.028.083-.048.172-.076.261a4.741,4.741,0,0,1-.357-.555,4.454,4.454,0,0,1-.473-2.573,2.027,2.027,0,0,0,.611-.562,1.846,1.846,0,0,0-.144-2.45,1.409,1.409,0,0,0-.83-.281,2.509,2.509,0,0,0-.288-2.45c-.562-.569-1.338-.432-2.415-.247-.4.069-.851.151-1.358.206-1.009.11-3.877.315-5.709-.591-.137-.075-.268-.157-.4-.233a2.772,2.772,0,0,1-.782-.741A2.353,2.353,0,0,1,88.424,146.508Z" transform="translate(-41.475 -143.438)" fill="#4d5369"/>
    <path id="Path_87430" data-name="Path 87430" d="M88.815,148.251a2.772,2.772,0,0,0,.782.741c.137.076.267.158.4.233,1.832.906,4.7.7,5.709.591.507-.055.96-.137,1.358-.206,1.077-.185,1.852-.322,2.415.247a2.509,2.509,0,0,1,.288,2.45,1.409,1.409,0,0,1,.83.281,1.846,1.846,0,0,1,.144,2.45,2.027,2.027,0,0,1-.611.562,4.454,4.454,0,0,0,.473,2.573,4.741,4.741,0,0,0,.357.555c.028-.089.048-.178.076-.261a10.935,10.935,0,0,1,1.612-2.833,5.241,5.241,0,0,0,1.331-3.094,3.44,3.44,0,0,0-.789-2.69,2.483,2.483,0,0,0-1.05-.6.329.329,0,0,1-.233-.247,6.577,6.577,0,0,0-1.873-3.238c-1.908-1.756-4.316-1.674-5.763-1.626-1.962.062-5.407.638-5.852,2.367A2.353,2.353,0,0,0,88.815,148.251Z" transform="translate(-41.475 -143.438)" fill="#191919"/>
    <path id="Path_87431" data-name="Path 87431" d="M74.335,243.034h1.153a.34.34,0,0,1,.343.344v.466a20.621,20.621,0,0,1,16.624,4.247,41.129,41.129,0,0,0-.734-9.571C86.019,240.27,80.2,241.778,74.335,243.034Z" transform="translate(-21.171 -178.662)" fill="#ffad9f"/>
    <path id="Path_87432" data-name="Path 87432" d="M71.663,208.469a1.713,1.713,0,0,0,.488-.371,1.575,1.575,0,0,0,.13-.163,1.727,1.727,0,0,0,.195-.358,1.615,1.615,0,0,0,.1-.4c.762-5.648,1.738-11.341,2.9-16.918.436-2.076.9-4.177,1.405-6.259.162-.7.332-1.386.5-2.076a.972.972,0,0,1,.046-.15,1.529,1.529,0,0,1,.651-.839,34.568,34.568,0,0,1,7.58-3.794,6.96,6.96,0,0,0,8.14-.019,35.8,35.8,0,0,1,5.472,1.777,34.955,34.955,0,0,1,5.687,3.019,1.768,1.768,0,0,1,.579.644,1.342,1.342,0,0,1,.13.312.794.794,0,0,1,.039.169c.93,5.108,1.757,10.307,2.453,15.447q.449,3.338.846,6.709c.26,2.245.494,4.5.715,6.734a1.4,1.4,0,0,1-.071.618.317.317,0,0,1-.052.13,1.315,1.315,0,0,1-.312.481,1.392,1.392,0,0,1-.384.286,1.408,1.408,0,0,1-.228.1c-1.047.345-2.095.683-3.156,1.016a205.451,205.451,0,0,1-23.717,5.914H81.8l-1.777-5.941,17.457-7.073a1.586,1.586,0,0,0,.625-.443,1.548,1.548,0,0,0,.286-.423,1.745,1.745,0,0,0,.15-.989l-1.315-9.071a.35.35,0,0,0-.117-.208.34.34,0,0,0-.261-.078.39.39,0,0,0-.123.039.284.284,0,0,0-.091.085.35.35,0,0,0-.085.228v.039l1.3,9.071a1.316,1.316,0,0,1,.006.228.356.356,0,0,1-.006.085.835.835,0,0,1-.091.286.788.788,0,0,1-.163.247.932.932,0,0,1-.377.267l-20.106,8.153a.341.341,0,0,0-.208.364.132.132,0,0,0,.006.052l.371,1.152c-.82-.1-1.64-.189-2.492-.28-.67-.071-1.334-.13-1.985-.189l2.694-1.36a2.239,2.239,0,0,0,.436-.3,2.145,2.145,0,0,0,.345-.391,2.107,2.107,0,0,0,.313-.722,1.736,1.736,0,0,0,.039-.266L77.688,201.5a.273.273,0,0,0-.006-.1c-.006-.019-.013-.032-.019-.052a.285.285,0,0,0-.065-.1.492.492,0,0,0-.091-.078H77.5a.377.377,0,0,0-.123-.033.329.329,0,0,0-.247.085.235.235,0,0,0-.085.1.385.385,0,0,0-.039.124l-1.054,11.549a1.014,1.014,0,0,1-.078.345,1.269,1.269,0,0,1-.156.313,1.4,1.4,0,0,1-.527.462l-4.659,2.368-1.971.9-1.412-6.637v-.007Zm8.459-15.616a2.8,2.8,0,0,0,5.609,0v-3.117a.336.336,0,0,0-.339-.339H80.46a.336.336,0,0,0-.338.339Z" transform="translate(-33.906 -155.753)" fill="#ffad9f"/>
    <path id="Path_87433" data-name="Path 87433" d="M105.778,196.7h4.932a.336.336,0,0,1,.339.339v3.117a2.8,2.8,0,0,1-5.609,0v-3.117A.336.336,0,0,1,105.778,196.7Zm.345,3.455a2.121,2.121,0,0,0,4.243,0v-2.772h-4.243Z" transform="translate(-59.224 -163.058)" fill="#4d5369"/>
    <path id="Path_87434" data-name="Path 87434" d="M156.93,230.073a2.445,2.445,0,0,1,3.431.014,2.878,2.878,0,0,1,1,1.661,1.972,1.972,0,0,1-2,2.422,2.943,2.943,0,0,1-1.852-.706,2.977,2.977,0,0,1-1-1.661,2.351,2.351,0,0,1-.041-.432A1.985,1.985,0,0,1,156.93,230.073Zm.261,1.6a2.222,2.222,0,0,0,.769,1.263,1.78,1.78,0,0,0,2.47.1,1.372,1.372,0,0,0,.261-1.159,2.333,2.333,0,0,0-2.175-1.812,1.291,1.291,0,0,0-1.325,1.612Z" transform="translate(-141.57 -175.251)" fill="#4d5369"/>
    <path id="Path_87435" data-name="Path 87435" d="M137.478,168.636a2.355,2.355,0,0,1,1.053,1.567c.934,5.121,1.755,10.324,2.457,15.477.6,4.457,1.128,8.983,1.567,13.465a2.232,2.232,0,0,1-1.53,2.326q-1.561.527-3.166,1.028c-.2.069-.4.125-.608.182a41.327,41.327,0,0,1,.715,10.425.35.35,0,0,1-.006.138c-.056.871-.157,1.755-.3,2.645a.319.319,0,0,1-.031.157c-.664,3.993-2.244,7.974-5.6,10.619a13.161,13.161,0,0,1-2.05,1.323h11.258a.34.34,0,0,1,.345.345v4.093a.348.348,0,0,1-.345.345H99.265l7.328,30.8a.068.068,0,0,1,.006.031l.52,2.188a.334.334,0,0,1-.182.382l-1.053.514.7,2.05a.156.156,0,0,1,.006.056,1.373,1.373,0,0,1,.947-.188,1.457,1.457,0,0,1,1,.652l2.576,4.056a1.319,1.319,0,0,1,.157,1.072,1.3,1.3,0,0,1-.677.84l-15.151,7.8-.589.3a.327.327,0,0,1-.439-.107l-.138-.2-.5-.727a2,2,0,0,1,.288-2.589,24.527,24.527,0,0,0,5.5-7.416,1.332,1.332,0,0,1,.439-.527l-.677-1.887-.84.4a.226.226,0,0,1-.138.044.285.285,0,0,1-.125-.031.282.282,0,0,1-.194-.182l-.9-2.106c0-.006,0-.006-.013-.013v-.006a.224.224,0,0,1-.025-.069l-3.347-7.861-1.316,8.262v.006l-.364,2.3a.344.344,0,0,1-.339.288H91.73l-1.906-.063-.188,3.586c.138-.025.282-.056.42-.088a1.249,1.249,0,0,1,1.084.226,1.262,1.262,0,0,1,.489.99v7.027a.356.356,0,0,1-.345.345H70.73a.323.323,0,0,1-.244-.113.29.29,0,0,1-.1-.245l.081-1.7a1.333,1.333,0,0,1,1.122-1.266,15.532,15.532,0,0,0,9.165-5.021,1.323,1.323,0,0,1,1.3-.407l.238-3.573-1.761-.056a.4.4,0,0,1-.232-.107.343.343,0,0,1-.088-.251c.038-.853.069-1.686.119-2.52a.138.138,0,0,1-.006-.05.068.068,0,0,1,.006-.038c.652-13.929,1.316-25.7,1.931-34.534l-.119-.282H73.733a.348.348,0,0,1-.345-.345v-4.093a.34.34,0,0,1,.345-.345H80.1l-.9-2.106a6.835,6.835,0,0,1,.715-4.783,6.755,6.755,0,0,1,3.648-3.04,16.886,16.886,0,0,1,.476-2.576,9.436,9.436,0,0,1,1.3-2.464,8.63,8.63,0,0,1,2.934-2.438H70.717a.334.334,0,0,1-.339-.27l-4.332-23.332a.377.377,0,0,1,.069-.282.417.417,0,0,1,.27-.125l6.833.088.69.006.514.006,1.3.013.32.006h.332l.351.006,19.915.226a.343.343,0,0,1,.339.27l2.156,10.117,4.363-2.181a.973.973,0,0,0,.545-.758c.758-5.667,1.743-11.378,2.909-16.975.583-2.783,1.229-5.592,1.912-8.35a2.345,2.345,0,0,1,.984-1.4,35.242,35.242,0,0,1,4.181-2.382,37.329,37.329,0,0,1,3.542-1.479l.238-1.11.1-1.617a.306.306,0,0,0-.075-.006,4.7,4.7,0,0,1-3.1-1.385c-.777-.853-1.016-1.962-1.059-4.984-.006-.351-.006-.708.006-1.059q.009-2.191.2-4.394a3.445,3.445,0,0,1-1.066-1,2.99,2.99,0,0,1-.489-2.294c.658-2.551,5.529-2.852,6.494-2.884,1.448-.044,4.137-.138,6.256,1.805a7.188,7.188,0,0,1,2.018,3.391,3.1,3.1,0,0,1,1.141.708,4.094,4.094,0,0,1,1,3.21,5.942,5.942,0,0,1-1.467,3.473,10.2,10.2,0,0,0-1.517,2.658c-.031.094-.069.188-.094.282a10.023,10.023,0,0,0-.382,4.175l.395,1a38.284,38.284,0,0,1,5.5,1.787m-11.653,44.35v-1.8h-4.15c-1.5.295-3.015.583-4.532.846a.122.122,0,0,1-.05.006.35.35,0,0,1-.332-.244l-.194-.608h-9.328l.382,1.8Zm-8.5-7.811-1.718.7,1.53,4.833v.013l.182.589c.295-.056.589-.107.878-.163s.577-.107.871-.157Zm-6.356,5.328-.27-.113a3.233,3.233,0,0,0-1.805-.176l-1.448.288Zm-2.207-.959a.138.138,0,0,1,.05-.006,3.849,3.849,0,0,1,1.793.094c.113.038.232.075.345.125l1.874.746h3.529c-.094-.282-.182-.558-.263-.84-.075-.238-.15-.483-.226-.721-.132-.42-.257-.846-.389-1.266l-.69-.094-.7-.094c-.476-.063-.959-.113-1.454-.169-.527-.056-1.053-.094-1.567-.132s-1.016-.063-1.5-.088l-2.909,1.329.307,1.467Zm-6.6-18.843V187.6l-19.414-.213h-.213l-.357-.006H76.04l-.32-.006-1.3-.019-.514-.006-.69-.006-6.419-.075L71,209.889H101.12l-1-4.689Zm18.01-32.935c.006.407.013.777.025,1.1.006.119.013.238.019.345v.069c.006.075.013.144.013.213.025.376.056.7.1.978a1.593,1.593,0,0,0,.025.182c.019.119.038.232.063.332a1.671,1.671,0,0,0,.05.207,1.618,1.618,0,0,0,.063.207,1.31,1.31,0,0,0,.069.188,1.058,1.058,0,0,0,.075.169,1.15,1.15,0,0,0,.081.15,1.369,1.369,0,0,0,.138.194,2.107,2.107,0,0,0,.15.182,2.4,2.4,0,0,0,.182.176c.063.056.119.107.188.163a1.774,1.774,0,0,0,.176.125,2.418,2.418,0,0,0,.27.169.006.006,0,0,0,.006.006,4.338,4.338,0,0,0,.671.295,3.6,3.6,0,0,0,.37.113,5.343,5.343,0,0,0,.658.107l.138.019a3.385,3.385,0,0,0,.351.019h.013c.107,0,.213-.006.32-.013.044-.006.081-.006.125-.013.138-.019.276-.038.407-.063.113-.019.213-.044.313-.069a1.871,1.871,0,0,0,.2-.063.522.522,0,0,0,.094-.025,4.675,4.675,0,0,0,.915-.42,2.11,2.11,0,0,0,.213-.132.341.341,0,0,1,.476.088.333.333,0,0,1,.05.276.379.379,0,0,1-.075.15.667.667,0,0,1-.069.056,5.39,5.39,0,0,1-2.639.9l-.088,1.5a5.4,5.4,0,0,0,3.116,1.178c.081.006.163.006.244.006.119,0,.232-.006.345-.013.138-.013.276-.025.407-.044l.332-.056c.006-.006.013-.006.025-.006a4.72,4.72,0,0,0,.552-.157c.063-.019.125-.038.188-.063s.132-.05.194-.075a2.554,2.554,0,0,0,.263-.119,2.213,2.213,0,0,0,.244-.119c.113-.063.219-.119.313-.182s.157-.1.226-.144a.063.063,0,0,0,.031-.025.621.621,0,0,0,.107-.069v-.006a10.9,10.9,0,0,1,.213-3.561,4.621,4.621,0,0,1-.928-1.448,2.948,2.948,0,0,1-.15-.407,1.2,1.2,0,0,1-.056-.2c-.019-.063-.038-.132-.05-.194a2.691,2.691,0,0,1-.056-.295,2.271,2.271,0,0,1-.038-.288.424.424,0,0,1-.013-.088c-.006-.063-.006-.125-.013-.188-.006-.119-.006-.238-.006-.357a1.639,1.639,0,0,0,0-.176c-.006,0-.013.006-.019.006s-.019.006-.025.013h-.063a.351.351,0,0,1-.219-.081.358.358,0,0,1-.044-.483.367.367,0,0,1,.088-.081.3.3,0,0,1,.113-.038,1.048,1.048,0,0,0,.182-.044,1.211,1.211,0,0,0,.244-.094.7.7,0,0,0,.132-.075,1.1,1.1,0,0,0,.257-.207,1.332,1.332,0,0,0,.113-.138.985.985,0,0,0,.113-.194,1.561,1.561,0,0,0,.138-.865.864.864,0,0,0-.05-.182.48.48,0,0,0-.063-.113c0-.013-.013-.025-.019-.038s-.019-.019-.025-.031a.178.178,0,0,0-.063-.056.076.076,0,0,0-.031-.031.337.337,0,0,0-.1-.063.437.437,0,0,0-.125-.05.821.821,0,0,0-.257-.038,1.216,1.216,0,0,0-.15.013,1.72,1.72,0,0,0-.232.05,2.372,2.372,0,0,0-.232.1.178.178,0,0,1-.081.025.3.3,0,0,1-.182-.006.225.225,0,0,1-.069-.025.251.251,0,0,1-.075-.063.391.391,0,0,1-.056-.075c-.013-.031-.019-.056-.031-.082a.334.334,0,0,1,.006-.175.434.434,0,0,1,.031-.081.667.667,0,0,1,.063-.075.3.3,0,0,1,.075-.056c.088-.038.169-.063.263-.094.307-1.034.288-1.768-.038-2.1-.3-.3-.79-.226-1.8-.056-.414.075-.878.157-1.41.213a12.728,12.728,0,0,1-5.8-.52h-.006c-.019.251-.038.5-.044.746-.025.238-.038.483-.044.721-.019.2-.025.395-.031.6-.019.414-.038.827-.044,1.235,0,.069-.006.144-.006.213-.006.251-.013.5-.006.733C114.366,154.1,114.366,154.387,114.366,154.669Zm7.3,10.362a6.776,6.776,0,0,0,.959-.038c.119-.013.232-.031.345-.05a5.754,5.754,0,0,0,.608-.144c.081-.025.163-.05.238-.075a6.6,6.6,0,0,0,1.667-.84l-.207-.52a6.138,6.138,0,0,1-3.423,1.066c-.082,0-.176,0-.27-.006a5.6,5.6,0,0,1-1.009-.138c-.157-.038-.313-.075-.458-.119a6.049,6.049,0,0,1-.809-.307,5.451,5.451,0,0,1-.664-.364c-.1-.063-.188-.119-.276-.182l-.119.57a6.051,6.051,0,0,0,1.573.809c.075.025.157.05.238.075s.157.05.238.069a5.623,5.623,0,0,0,1.072.182C121.468,165.025,121.568,165.031,121.669,165.031Zm3.905-6.839c.013-.05.025-.088.038-.132.056-.157.119-.307.176-.451.125-.288.257-.552.389-.8s.282-.476.42-.7.282-.414.42-.608l.207-.282c.094-.113.176-.238.257-.351s.163-.232.238-.351a3.422,3.422,0,0,0,.213-.345,3.945,3.945,0,0,0,.194-.357c.044-.094.088-.182.125-.276s.075-.194.107-.295c.019-.063.038-.132.056-.2s.031-.144.044-.219.031-.144.044-.219.025-.15.031-.232.013-.163.019-.251a1.587,1.587,0,0,0,.006-.182,4.585,4.585,0,0,0-.019-.758c-.006-.044-.013-.094-.019-.144a1.251,1.251,0,0,0-.025-.15,1.531,1.531,0,0,0-.038-.163c-.013-.044-.025-.1-.038-.15a2.055,2.055,0,0,0-.107-.313,2.227,2.227,0,0,0-.132-.276,2.3,2.3,0,0,0-.42-.552,2.494,2.494,0,0,0-1.047-.6.194.194,0,0,1-.081-.038.2.2,0,0,1-.069-.056.049.049,0,0,1-.025-.025c-.006-.006-.006-.013-.013-.019a.42.42,0,0,1-.044-.107,6.419,6.419,0,0,0-.395-1.147,5.453,5.453,0,0,0-.32-.633,6.668,6.668,0,0,0-.508-.758c-.107-.132-.226-.27-.351-.4q-.141-.15-.3-.3c-.1-.088-.194-.176-.295-.257a3.2,3.2,0,0,0-.307-.226,2.345,2.345,0,0,0-.307-.2,3.131,3.131,0,0,0-.313-.182l-.006-.006a8.826,8.826,0,0,0-4.538-.758c-.244.006-.514.025-.8.05a2.156,2.156,0,0,0-.282.031c-.094.013-.182.019-.282.031-.019,0-.044.006-.063.006-.082.013-.169.019-.257.031a.038.038,0,0,1-.025.006c-.119.019-.244.038-.37.063l-.376.075c-.125.025-.251.05-.37.081s-.232.063-.339.088c-.132.038-.263.075-.382.113s-.238.081-.351.125c-.006,0-.013.006-.025.006-.1.044-.2.082-.3.125-.031.013-.069.031-.1.044-.075.038-.144.075-.207.107a.416.416,0,0,0-.075.038l-.075.038c0,.006-.006.006-.013.006-.082.044-.157.094-.226.138s-.144.1-.207.15-.125.113-.188.163a1.18,1.18,0,0,0-.125.125c-.038.044-.075.088-.113.125s-.069.094-.1.144a1.685,1.685,0,0,0-.15.3,1.512,1.512,0,0,0-.05.157,2.351,2.351,0,0,0,.389,1.743c.056.075.107.144.163.207s.125.132.188.194a3.214,3.214,0,0,0,.433.339c.138.075.263.157.407.238a9.922,9.922,0,0,0,4.413.677c.364-.013.683-.038.947-.056.138-.013.251-.025.351-.038.232-.025.451-.056.664-.088a.552.552,0,0,1,.107-.013.423.423,0,0,1,.088-.013c.157-.031.307-.056.445-.081.019,0,.038-.006.056-.006,1.066-.188,1.837-.326,2.407.244h.006a1.254,1.254,0,0,1,.088.1c0,.006.006.006.006.013l.006.006c.031.044.063.088.094.138s.05.094.075.144a1.165,1.165,0,0,1,.063.157.97.97,0,0,1,.044.144c0,.006.006.019.006.025a.093.093,0,0,1,.006.044.4.4,0,0,1,.013.044.106.106,0,0,1,.006.044c.006.025.013.056.019.082v.013c0,.031.006.069.006.113s.006.069.006.113a.759.759,0,0,1,.006.119c0,.088-.006.176-.013.27a2.092,2.092,0,0,1-.031.27c-.013.1-.031.194-.05.3s-.044.207-.069.313a1.355,1.355,0,0,1,.445.075,1.273,1.273,0,0,1,.389.2,1.128,1.128,0,0,1,.125.119,1.025,1.025,0,0,1,.107.125c.013.013.019.025.031.038a.22.22,0,0,1,.031.05.165.165,0,0,1,.031.056,1.319,1.319,0,0,1,.081.163,1.011,1.011,0,0,1,.056.182.918.918,0,0,1,.031.125,1.572,1.572,0,0,1,.025.169,1.9,1.9,0,0,1-.094.834c-.019.05-.038.107-.056.157a.681.681,0,0,1-.063.157,2.07,2.07,0,0,1-.163.282,1.95,1.95,0,0,1-.144.175c-.05.05-.1.1-.157.15a1.758,1.758,0,0,1-.313.232,4.76,4.76,0,0,0,.031,1.254,4.235,4.235,0,0,0,.113.514v.006a4.746,4.746,0,0,0,.232.6c.031.063.063.132.1.2.056.094.107.188.163.282.031.05.069.1.1.144l.006.006a.739.739,0,0,0,.081.113.006.006,0,0,1,.006.006c.006-.025.013-.05.019-.069ZM137.66,201.84c1.059-.326,2.106-.664,3.159-1.009.075-.031.15-.063.226-.1a1.308,1.308,0,0,0,.382-.288,1.238,1.238,0,0,0,.313-.483.311.311,0,0,0,.05-.125,1.38,1.38,0,0,0,.075-.621c-.219-2.238-.458-4.488-.721-6.732s-.539-4.482-.834-6.707q-.527-3.855-1.147-7.735c-.407-2.583-.846-5.165-1.316-7.717a.922.922,0,0,0-.038-.169,1.109,1.109,0,0,0-.132-.307,1.778,1.778,0,0,0-.577-.646,35.293,35.293,0,0,0-5.686-3.021,35.733,35.733,0,0,0-5.472-1.774,6.954,6.954,0,0,1-8.143.019,32.429,32.429,0,0,0-3.473,1.448,33.67,33.67,0,0,0-4.106,2.344,1.642,1.642,0,0,0-.527.552,1.3,1.3,0,0,0-.125.288c-.013.044-.025.1-.038.15-.176.69-.345,1.379-.508,2.075-.5,2.081-.972,4.181-1.4,6.262-1.166,5.573-2.144,11.265-2.9,16.913a1.72,1.72,0,0,1-.107.4,1.974,1.974,0,0,1-.194.357c-.038.056-.088.107-.132.163a1.766,1.766,0,0,1-.489.37L99.283,198v.006l1.41,6.638,1.975-.9,4.658-2.37a1.449,1.449,0,0,0,.527-.464,1.222,1.222,0,0,0,.157-.313,1.025,1.025,0,0,0,.075-.345l1.059-11.547a.416.416,0,0,1,.038-.125c.013-.019.025-.031.038-.05s.025-.031.044-.05a.347.347,0,0,1,.251-.081.371.371,0,0,1,.119.031h.006a.3.3,0,0,1,.094.081.273.273,0,0,1,.063.1.4.4,0,0,0,.025.056.179.179,0,0,1,.013.1l-1.059,11.547a.952.952,0,0,1-.019.132.817.817,0,0,1-.025.132,2.005,2.005,0,0,1-.313.721,2.053,2.053,0,0,1-.345.395,2.1,2.1,0,0,1-.433.295l-2.7,1.36c.652.063,1.316.119,1.987.188.853.094,1.667.182,2.489.282h.006l-.37-1.153a.118.118,0,0,1-.013-.05.338.338,0,0,1,.207-.364l20.11-8.155a.951.951,0,0,0,.376-.263,1.086,1.086,0,0,0,.251-.533.413.413,0,0,0,.006-.088.908.908,0,0,0,0-.226l-1.3-9.071c0-.013-.006-.025-.006-.038a.372.372,0,0,1,.082-.232.3.3,0,0,1,.094-.081.378.378,0,0,1,.119-.038.353.353,0,0,1,.389.282l1.3,9.071a1.713,1.713,0,0,1-.15.99,1.5,1.5,0,0,1-.282.42,1.552,1.552,0,0,1-.627.445l-17.458,7.071,1.787,5.943A204.836,204.836,0,0,0,137.66,201.84Zm-.3,8.212c-.006-.332-.013-.664-.031-.984-.006-.069-.006-.132-.013-.194v-.056c0-.05-.006-.1-.006-.157s-.006-.088-.006-.138l-.019-.282c-.006-.038-.006-.081-.013-.119a.539.539,0,0,0-.006-.1,1.416,1.416,0,0,0-.006-.163c0-.044-.006-.075-.006-.113-.019-.263-.044-.514-.069-.759-.006-.05-.006-.1-.013-.144s-.006-.081-.013-.119c-.013-.119-.025-.238-.038-.351l-.038-.339c-.006-.088-.013-.163-.025-.251-.056-.414-.107-.8-.157-1.153-.019-.107-.038-.207-.05-.307s-.038-.194-.05-.282c-.006-.031-.006-.063-.013-.094-.025-.169-.056-.326-.081-.47-.006-.019-.006-.038-.013-.056-.019-.107-.038-.207-.056-.288s-.031-.169-.044-.238c-5.686,1.749-11.5,3.253-17.358,4.507-.013,0-.019.006-.031.006h1.153a.346.346,0,0,1,.244.1.321.321,0,0,1,.1.238v.47a20.6,20.6,0,0,1,16.624,4.244C137.365,211.638,137.371,210.83,137.359,210.052Zm-.169,4.206c.038-.326.063-.639.088-.959q-.226-.188-.451-.357a4.679,4.679,0,0,0-.458-.351c-.345-.263-.7-.514-1.059-.746-.163-.113-.332-.213-.5-.313-.119-.075-.244-.15-.364-.219-.332-.194-.671-.382-1.009-.558s-.69-.339-1.041-.5c-.232-.1-.464-.2-.7-.288-.3-.119-.6-.232-.909-.338-.276-.094-.545-.182-.821-.263s-.552-.157-.834-.226a20.219,20.219,0,0,0-8.431-.238v.953a21.237,21.237,0,0,1,3.153-.094c.251.006.5.019.752.044.276.019.552.044.827.081s.552.069.827.113c.219.038.439.075.658.119.433.081.871.176,1.3.288a20.378,20.378,0,0,1,2.821.959,21.3,21.3,0,0,1,5.178,3.128c.2.169.395.332.583.5.094.082.182.157.27.238v-.006C137.121,214.9,137.158,214.578,137.19,214.258Zm3.7,17.822v-3.41H98.738l-.182,1.141.545,2.269ZM99.2,274.437q-.216.376-.451.733c-.1.157-.2.313-.307.47-.113.176-.232.345-.351.508-.276.4-.57.79-.871,1.172-.163.2-.326.4-.5.6-.15.182-.3.357-.464.533s-.332.37-.5.545c-.389.42-.8.827-1.222,1.216a1.308,1.308,0,0,0-.188,1.7l.464.671,15.477-7.967a.644.644,0,0,0,.288-.846c-.013-.031-.025-.056-.038-.082l-2.576-4.049a.782.782,0,0,0-.37-.313.644.644,0,0,0-.157-.044.8.8,0,0,0-.119-.006.65.65,0,0,0-.244.044.635.635,0,0,0-.213.132q-.263.226-.545.433a11.851,11.851,0,0,1-1.153.765c-.2.119-.4.226-.608.332s-.426.207-.639.3c-.025.013-.05.025-.081.038-.213.094-.433.182-.652.263-.313.113-.633.213-.953.3-.163.044-.32.081-.483.119-.326.075-.652.132-.984.182a.861.861,0,0,0-.182.05,1.225,1.225,0,0,0-.157.081c-.006,0-.006.006-.013.013a.433.433,0,0,0-.113.1.534.534,0,0,0-.107.157C99.892,273.215,99.559,273.835,99.2,274.437Zm1.454-2.934c.238-.038.47-.075.7-.125s.464-.1.69-.163c.15-.044.3-.088.451-.138s.3-.094.445-.15.3-.107.445-.169c.288-.119.577-.244.859-.389a11.327,11.327,0,0,0,1.868-1.21l.013-.013a.263.263,0,0,1-.063-.025.294.294,0,0,1-.132-.157l-.677-1.975h-.006l-5.291,2.583Zm-2.125-1.993.79-.389a.157.157,0,0,1,.044-.025.425.425,0,0,0,.05-.019l6.971-3.4-.364-1.523-8.13,3.855Zm7.322-6.037-7.3-30.7h-.458l-4.131,26.008,3.661,8.594ZM98.387,232.08l-.113-.47-.075.47ZM81.926,274.863a.616.616,0,0,0-.658.182,16.551,16.551,0,0,1-1.492,1.473c-.169.144-.345.288-.514.426-.2.157-.407.313-.614.464s-.42.295-.633.433c-.169.113-.345.219-.52.326a14.4,14.4,0,0,1-1.856.953,15.522,15.522,0,0,1-3.943,1.16.663.663,0,0,0-.545.633l-.063,1.329H90.94v-6.682a.552.552,0,0,0-.219-.445.559.559,0,0,0-.5-.107c-.483.119-.965.213-1.454.288a14.539,14.539,0,0,1-1.956.176c-.263.013-.527.013-.79.006A16.213,16.213,0,0,1,81.926,274.863Zm4.106-.075c.094.006.194.006.288.006.219,0,.439,0,.652-.013s.439-.019.658-.044.433-.038.652-.069c.069-.006.138-.019.213-.031.144-.019.295-.044.439-.069l.207-3.742-6.162-.2-.251,3.736c.244.063.5.113.746.163.219.038.439.075.658.107.113.019.226.031.339.05.238.025.483.05.727.069C85.474,274.769,85.75,274.782,86.032,274.788ZM80.9,269.873l10.544.345.257-1.611-10.713-.6C80.96,268.626,80.929,269.247,80.9,269.873Zm-6.833-41.2v3.41h7.773l-1.454-3.41Zm9.4-9.835a6.115,6.115,0,0,0-2.959,2.6,5.579,5.579,0,0,0-.382.815,3.8,3.8,0,0,0-.138.4c-.038.125-.075.251-.1.376s-.056.251-.075.376c-.013.088-.025.182-.038.27-.013.069-.019.144-.025.213a6.387,6.387,0,0,0,.107,1.78l.984,2.319.295.683,1.222,2.877c.075-1,.144-1.962.213-2.877.019-.232.038-.458.05-.683.006-.125.019-.244.025-.364.05-.671.1-1.31.15-1.931.044-.508.081-1,.125-1.473.025-.3.056-.6.081-.878.038-.395.075-.777.107-1.147q.028-.31.056-.6c.113-1.041.213-1.962.307-2.758Zm4.5-7.284a1.34,1.34,0,0,0-.157.1c-.1.063-.207.138-.3.207a2.033,2.033,0,0,0-.194.15c-.088.063-.163.125-.244.194a1.289,1.289,0,0,0-.144.125c-.1.088-.2.176-.295.27a4.107,4.107,0,0,0-.364.376,3.667,3.667,0,0,0-.282.339c-.031.038-.063.081-.094.119,0,0-.013.019-.038.05s-.056.075-.094.132c-.075.113-.188.282-.313.483-.088.157-.188.332-.288.527-.063.125-.132.257-.188.4a3.121,3.121,0,0,0-.144.332c-.044.113-.094.232-.132.351-.025.063-.044.138-.069.226s-.044.182-.069.288c-.025.132-.056.282-.081.445a.118.118,0,0,0-.013.05c-.006.006-.006.006-.006.013a1.68,1.68,0,0,0-.031.188.37.37,0,0,0-.013.088c-.019.094-.038.194-.05.3-.038.226-.069.47-.107.733-.006.069-.019.144-.025.219v.006a.174.174,0,0,1,.006.056c0,.025-.006.044-.006.063a.126.126,0,0,1-.025.05v.006c-.069.545-.138,1.141-.213,1.812-.013.075-.019.15-.031.226-.081.8-.169,1.686-.257,2.664-.013.132-.025.263-.031.395-.013.157-.025.313-.044.47q-.16,1.815-.326,3.981c-.019.226-.038.451-.056.683-.038.47-.069.953-.107,1.448-.031.426-.063.853-.094,1.3-.013.219-.031.439-.044.664-.013.113-.019.226-.025.345s-.013.226-.019.345c-.006.044-.006.1-.013.144v.006c-.006.119-.019.238-.031.357s-.019.257-.025.389c-.019.251-.031.5-.044.759v.006c-.019.263-.031.539-.056.809-.013.138-.019.276-.025.414s-.019.282-.031.42q-.15,2.238-.295,4.683c-.013.194-.025.395-.044.589-.025.464-.056.928-.081,1.4-.006.163-.019.32-.025.483-.013.138-.019.282-.025.433-.013.176-.019.351-.038.527-.013.238-.025.476-.038.721q-.15,2.558-.3,5.316c-.019.351-.044.7-.063,1.053-.013.307-.031.608-.05.915q-.113,2.125-.226,4.357c-.025.433-.044.871-.069,1.31-.056,1.147-.119,2.313-.176,3.5-.019.407-.038.809-.056,1.216-.006.169-.019.345-.025.52-.019.295-.031.6-.044.9s-.031.6-.044.9c-.038.8-.075,1.611-.119,2.432l10.795.608,1.442-9.071.2-1.266L97.39,232.77l.113-.69.539-3.41.063-.395a.342.342,0,0,1,.038-.113.2.2,0,0,1,.044-.056c.006-.006.013-.006.019-.013a.146.146,0,0,1,.044-.044.15.15,0,0,1,.069-.038.246.246,0,0,1,.113-.025h29.907a12.84,12.84,0,0,0,3.26-1.862,10.485,10.485,0,0,0,1.11-1c.088-.088.169-.176.257-.27a9.179,9.179,0,0,0,.658-.759,1.824,1.824,0,0,0,.132-.175c.063-.075.125-.157.182-.238a5.97,5.97,0,0,0,.376-.539,4.063,4.063,0,0,0,.226-.345,14.211,14.211,0,0,0,.928-1.755l.056-.132c.031-.063.063-.132.088-.194a1.723,1.723,0,0,0,.094-.226,2.037,2.037,0,0,0,.094-.251c.038-.088.075-.176.107-.263.025-.056.044-.113.063-.169.056-.157.113-.313.169-.476a1.237,1.237,0,0,0,.05-.163c.05-.15.1-.307.144-.464.075-.27.15-.533.219-.8.075-.295.144-.6.207-.9.069-.32.132-.646.188-.972a20.6,20.6,0,0,0-8.9-4.965c-.276-.075-.558-.138-.84-.194-.069-.019-.138-.031-.207-.044-.282-.063-.564-.113-.846-.157a19.773,19.773,0,0,0-2.589-.244c-.407-.013-.821-.013-1.235,0a.609.609,0,0,0-.107.006c-.307.013-.614.031-.928.05-.295.019-.589.05-.89.088H89.962c-.188.069-.376.144-.558.219s-.364.157-.533.244a3.918,3.918,0,0,0-.395.207c-.063.031-.125.069-.188.1C88.182,211.413,88.075,211.481,87.969,211.55Z" transform="translate(-66.042 -143.031)" fill="#4d5369"/>
    <path id="Path_87436" data-name="Path 87436" d="M162.905,279.647v3.41h7.773l-1.454-3.41Z" transform="translate(-154.876 -194.008)" fill="#fff"/>
    <path id="Path_87437" data-name="Path 87437" d="M68.715,280.788l.545,2.269h41.786v-3.41H68.9Z" transform="translate(-36.201 -194.008)" fill="#fff"/>
    <path id="Path_87438" data-name="Path 87438" d="M106.53,197.792v2.772a2.121,2.121,0,0,0,4.243,0v-2.772Z" transform="translate(-59.631 -163.464)" fill="#fff"/>
    <path id="Path_87439" data-name="Path 87439" d="M117.194,357.054l.459.672,15.478-7.966a.629.629,0,0,0,.33-.4.639.639,0,0,0-.083-.521l-2.573-4.055a.748.748,0,0,0-.528-.35.665.665,0,0,0-.117-.007.672.672,0,0,0-.459.172,12.2,12.2,0,0,1-6.1,2.738.734.734,0,0,0-.57.4,25.073,25.073,0,0,1-2.971,4.741,26.679,26.679,0,0,1-2.682,2.889A1.306,1.306,0,0,0,117.194,357.054Z" transform="translate(-88.884 -218.178)" fill="#fff"/>
    <path id="Path_87440" data-name="Path 87440" d="M123.754,340.114l.638,1.5.789-.384a.418.418,0,0,1,.1-.048l6.971-3.4-.364-1.523Z" transform="translate(-91.903 -215.132)" fill="#fff"/>
    <path id="Path_87441" data-name="Path 87441" d="M147.177,344.264l10.545.344.254-1.606-10.71-.6C147.232,343.015,147.2,343.64,147.177,344.264Z" transform="translate(-132.314 -217.423)" fill="#fff"/>
    <path id="Path_87442" data-name="Path 87442" d="M151.27,350.311a14.915,14.915,0,0,0,3.3.433,15.306,15.306,0,0,0,2.9-.219l.206-3.746-6.161-.2Z" transform="translate(-134.583 -218.983)" fill="#fff"/>
    <path id="Path_87443" data-name="Path 87443" d="M124.17,343.358l.7,1.934a11.709,11.709,0,0,0,3.588-1.139,11.039,11.039,0,0,0,1.873-1.207l.007-.007a.34.34,0,0,1-.192-.185l-.679-1.976Z" transform="translate(-90.255 -216.818)" fill="#fff"/>
    <path id="Path_87444" data-name="Path 87444" d="M74.48,247.92v.954a21,21,0,0,1,7.519.555,21.211,21.211,0,0,1,8.851,4.81c.09-.645.151-1.29.2-1.921a19.957,19.957,0,0,0-16.569-4.4Z" transform="translate(-19.817 -182.045)" fill="#fff"/>
    <path id="Path_87445" data-name="Path 87445" d="M102.007,246.816l.384,1.8h18.2v-1.8h-4.15c-1.5.3-3.012.583-4.528.844a.134.134,0,0,1-.055.007.346.346,0,0,1-.329-.24l-.192-.611Z" transform="translate(-66.617 -181.757)" fill="#fff"/>
    <path id="Path_87446" data-name="Path 87446" d="M117.122,241.624l.309,1.468,1.8-.35a3.849,3.849,0,0,1,2.189.206l1.873.748h3.526c-.295-.94-.583-1.88-.878-2.82-.905-.137-1.852-.254-2.84-.357-1.063-.11-2.092-.179-3.067-.226Z" transform="translate(-82.315 -179.323)" fill="#fff"/>
    <path id="Path_87447" data-name="Path 87447" d="M112.788,237.921l1.53,4.837v.014l.185.583c.584-.1,1.16-.213,1.743-.316l-1.736-5.811Z" transform="translate(-69.027 -178.18)" fill="#fff"/>
    <path id="Path_87448" data-name="Path 87448" d="M93.284,175.958a6.252,6.252,0,0,0,3.417,1.153,6.327,6.327,0,0,0,3.821-1.153l-.206-.521a6.147,6.147,0,0,1-3.424,1.063c-.082,0-.178,0-.267-.007a6.1,6.1,0,0,1-3.218-1.1Z" transform="translate(-41.077 -155.105)" fill="#fff"/>
    <path id="Path_87449" data-name="Path 87449" d="M148.392,360.7h19.855v-6.682a.556.556,0,0,0-.219-.446.577.577,0,0,0-.5-.11,16.019,16.019,0,0,1-8.295-.144.623.623,0,0,0-.659.186A16.283,16.283,0,0,1,149,358.735a.66.66,0,0,0-.549.631Z" transform="translate(-143.347 -221.485)" fill="#fff"/>
    <path id="Path_87450" data-name="Path 87450" d="M132.16,213.6l4.2,22.627h30.12l-1-4.693-3.76-17.6-19.629-.22-.686-.007-2.134-.027-.686-.007Z" transform="translate(-131.404 -169.362)" fill="#fff"/>
    <path id="Path_87451" data-name="Path 87451" d="M157.6,232.076a2.222,2.222,0,0,0,.769,1.262,1.78,1.78,0,0,0,2.47.1,1.372,1.372,0,0,0,.261-1.159,2.333,2.333,0,0,0-2.175-1.812,1.291,1.291,0,0,0-1.325,1.612Z" transform="translate(-141.976 -175.656)" fill="#ffad9f"/>
    <path id="Path_87452" data-name="Path 87452" d="M124.6,312.195l3.664,8.6,8.233-3.9v-.007l-7.307-30.7h-.46Z" transform="translate(-96.686 -196.447)" fill="#4d5369"/>
    <path id="Path_87453" data-name="Path 87453" d="M160.438,270.789l.988,2.319.3.686,1.221,2.875c.075-1,.144-1.963.212-2.875.014-.233.034-.46.048-.686.3-3.9.59-6.991.851-9.152a6.09,6.09,0,0,0-2.957,2.6A6.164,6.164,0,0,0,160.438,270.789Z" transform="translate(-146.628 -188.153)" fill="#4d5369"/>
    <path id="Path_87454" data-name="Path 87454" d="M75.01,307.436l10.793.611,1.441-9.07.2-1.269,3.938-24.823.11-.686.542-3.409.061-.4a.344.344,0,0,1,.33-.288H122.33a12.811,12.811,0,0,0,3.259-1.859c3.176-2.5,4.7-6.277,5.345-10.086a20.252,20.252,0,0,0-16.542-5.461H83.957a8.68,8.68,0,0,0-4.076,2.854,8.836,8.836,0,0,0-1.194,2.271,15.862,15.862,0,0,0-.466,2.552v.007a.216.216,0,0,1-.028.172v.007c-.275,2.141-.576,5.365-.9,9.543-.021.226-.034.453-.055.686-.083,1.077-.165,2.216-.247,3.409-.014.227-.034.453-.048.686-.007.048-.007.1-.014.144v.007c-.034.494-.068.988-.1,1.5v.007C76.252,283.135,75.627,294.325,75.01,307.436Z" transform="translate(-60.034 -183.147)" fill="#4d5369"/>
  </g>
</svg>
