<svg xmlns="http://www.w3.org/2000/svg" width="197.298" height="60" viewBox="0 0 197.298 60">
  <g id="Group_43909" data-name="Group 43909" transform="translate(-2173.476 -482.998)">
    <g id="Group_43839" data-name="Group 43839" transform="translate(2184.528 493.092)">
      <g id="Group_43832" data-name="Group 43832" transform="translate(22.723 14.802)">
        <g id="Group_43831" data-name="Group 43831">
          <path id="Path_87538" data-name="Path 87538" d="M2444.9,677.312l-7.517-4.338-6.182,5.976,5.65,5.462,8.049-4.646a1.417,1.417,0,0,0,0-2.454Z" transform="translate(-2431.202 -672.974)" fill="#ffd109"/>
        </g>
      </g>
      <g id="Group_43834" data-name="Group 43834" transform="translate(1.229 0)">
        <g id="Group_43833" data-name="Group 43833">
          <path id="Path_87539" data-name="Path 87539" d="M2293.587,574.09l-8.273-4.775-18.128-9.29,20.476,19.793Z" transform="translate(-2267.186 -560.025)" fill="#06ef79"/>
        </g>
      </g>
      <g id="Group_43836" data-name="Group 43836" transform="translate(1.53 21.763)">
        <g id="Group_43835" data-name="Group 43835">
          <path id="Path_87540" data-name="Path 87540" d="M2269.482,745.6l17.859-9.838,7.709-4.45-5.393-5.214Z" transform="translate(-2269.482 -726.095)" fill="#f93646"/>
        </g>
      </g>
      <g id="Group_43838" data-name="Group 43838" transform="translate(0 0.801)">
        <g id="Group_43837" data-name="Group 43837">
          <path id="Path_87541" data-name="Path 87541" d="M2257.827,566.136l-.019,39.973,20.686-20Z" transform="translate(-2257.808 -566.136)" fill="#05d5fb"/>
        </g>
      </g>
    </g>
    <g id="Group_43843" data-name="Group 43843" transform="translate(2173.476 482.998)">
      <g id="Group_43842" data-name="Group 43842">
        <g id="Group_43841" data-name="Group 43841">
          <g id="Group_43840" data-name="Group 43840">
            <path id="Path_87542" data-name="Path 87542" d="M2363.148,484.309a6.323,6.323,0,0,1,6.316,6.316v44.747a6.323,6.323,0,0,1-6.316,6.316H2181.1a6.323,6.323,0,0,1-6.316-6.316V490.624a6.323,6.323,0,0,1,6.316-6.316h182.045m0-1.311H2181.1a7.626,7.626,0,0,0-7.627,7.626v44.747A7.627,7.627,0,0,0,2181.1,543h182.045a7.626,7.626,0,0,0,7.626-7.627V490.624a7.626,7.626,0,0,0-7.626-7.626Z" transform="translate(-2173.476 -482.998)"/>
          </g>
        </g>
      </g>
    </g>
    <g id="Group_43855" data-name="Group 43855" transform="translate(2226.324 510.651)">
      <g id="Group_43854" data-name="Group 43854">
        <g id="Group_43844" data-name="Group 43844" transform="translate(0 0.716)">
          <path id="Path_87543" data-name="Path 87543" d="M2588.555,707.349h2.751v6.241a8.743,8.743,0,0,1-2.819,1.476,10.82,10.82,0,0,1-3.311.514,8.928,8.928,0,0,1-4.317-1.04,7.723,7.723,0,0,1-3.02-2.875,8.36,8.36,0,0,1,0-8.277,7.707,7.707,0,0,1,3.031-2.874,9.04,9.04,0,0,1,4.351-1.04,9.5,9.5,0,0,1,3.579.649,7.029,7.029,0,0,1,2.707,1.9l-1.834,1.79a5.885,5.885,0,0,0-4.317-1.79,6.1,6.1,0,0,0-2.942.693,5.055,5.055,0,0,0-2.013,1.946,5.6,5.6,0,0,0-.727,2.863,5.509,5.509,0,0,0,.727,2.819,5.207,5.207,0,0,0,2.013,1.969,5.9,5.9,0,0,0,2.919.716,6.3,6.3,0,0,0,3.221-.805Z" transform="translate(-2576.744 -699.475)"/>
        </g>
        <g id="Group_43845" data-name="Group 43845" transform="translate(17.135 4.519)">
          <path id="Path_87544" data-name="Path 87544" d="M2710.585,739.948a5.7,5.7,0,0,1-2.271-2.181,6.521,6.521,0,0,1,0-6.32,5.731,5.731,0,0,1,2.271-2.17,7.25,7.25,0,0,1,6.554,0,5.735,5.735,0,0,1,2.271,2.17,6.521,6.521,0,0,1,0,6.32,5.708,5.708,0,0,1-2.271,2.181,7.251,7.251,0,0,1-6.554,0Zm5.816-2.64a4.142,4.142,0,0,0,0-5.414,3.417,3.417,0,0,0-2.55-1.029,3.38,3.38,0,0,0-2.539,1.029,4.177,4.177,0,0,0,0,5.414,3.379,3.379,0,0,0,2.539,1.029A3.415,3.415,0,0,0,2716.4,737.308Z" transform="translate(-2707.498 -728.494)"/>
        </g>
        <g id="Group_43846" data-name="Group 43846" transform="translate(31.564 4.519)">
          <path id="Path_87545" data-name="Path 87545" d="M2820.685,739.948a5.705,5.705,0,0,1-2.271-2.181,6.521,6.521,0,0,1,0-6.32,5.732,5.732,0,0,1,2.271-2.17,7.25,7.25,0,0,1,6.554,0,5.738,5.738,0,0,1,2.271,2.17,6.523,6.523,0,0,1,0,6.32,5.71,5.71,0,0,1-2.271,2.181,7.251,7.251,0,0,1-6.554,0Zm5.816-2.64a4.143,4.143,0,0,0,0-5.414,3.417,3.417,0,0,0-2.55-1.029,3.38,3.38,0,0,0-2.539,1.029,4.178,4.178,0,0,0,0,5.414,3.379,3.379,0,0,0,2.539,1.029A3.416,3.416,0,0,0,2826.5,737.308Z" transform="translate(-2817.598 -728.494)"/>
        </g>
        <g id="Group_43847" data-name="Group 43847" transform="translate(45.992 4.519)">
          <path id="Path_87546" data-name="Path 87546" d="M2940.539,728.628v10.134q0,6.308-6.443,6.308a11.956,11.956,0,0,1-3.266-.436,6.933,6.933,0,0,1-2.55-1.264l1.253-2.1a5.988,5.988,0,0,0,1.98,1.04,7.768,7.768,0,0,0,2.427.391,4.007,4.007,0,0,0,2.886-.895,3.658,3.658,0,0,0,.917-2.729v-.626a4.6,4.6,0,0,1-1.745,1.186,6.152,6.152,0,0,1-2.26.4,6.48,6.48,0,0,1-3.076-.727,5.457,5.457,0,0,1-2.17-2.047,6.118,6.118,0,0,1,0-6.029,5.408,5.408,0,0,1,2.17-2.025,6.565,6.565,0,0,1,3.076-.716,6.311,6.311,0,0,1,2.36.425,4.358,4.358,0,0,1,1.779,1.3v-1.588Zm-3.77,8.087a3.227,3.227,0,0,0,1.018-2.472,3.166,3.166,0,0,0-1.018-2.438,4.115,4.115,0,0,0-5.234,0,3.165,3.165,0,0,0-1.018,2.438,3.226,3.226,0,0,0,1.018,2.472,4.078,4.078,0,0,0,5.234,0Z" transform="translate(-2927.698 -728.494)"/>
        </g>
        <g id="Group_43848" data-name="Group 43848" transform="translate(62.501)">
          <path id="Path_87547" data-name="Path 87547" d="M3053.672,694.012h2.8v16.6h-2.8Z" transform="translate(-3053.672 -694.012)"/>
        </g>
        <g id="Group_43849" data-name="Group 43849" transform="translate(67.982 4.519)">
          <path id="Path_87548" data-name="Path 87548" d="M3107.66,735.5h-9.373a3.249,3.249,0,0,0,1.286,2.092,4.216,4.216,0,0,0,2.584.772,4.353,4.353,0,0,0,3.244-1.3l1.5,1.723a5.049,5.049,0,0,1-2.036,1.454,8.068,8.068,0,0,1-6.241-.291,5.637,5.637,0,0,1-2.315-2.181,6.155,6.155,0,0,1-.817-3.165,6.252,6.252,0,0,1,.794-3.143,5.637,5.637,0,0,1,2.2-2.181,6.429,6.429,0,0,1,3.177-.783,6.269,6.269,0,0,1,3.121.772,5.469,5.469,0,0,1,2.147,2.17,6.583,6.583,0,0,1,.772,3.232Q3107.705,734.959,3107.66,735.5Zm-8.266-3.971a3.34,3.34,0,0,0-1.13,2.114h6.778a3.3,3.3,0,0,0-1.1-2.1,3.334,3.334,0,0,0-2.282-.805A3.374,3.374,0,0,0,3099.395,731.525Z" transform="translate(-3095.491 -728.494)"/>
        </g>
        <g id="Group_43850" data-name="Group 43850" transform="translate(89.322 0.94)">
          <path id="Path_87549" data-name="Path 87549" d="M3268.325,701.853a5.157,5.157,0,0,1,2.315,1.924,5.877,5.877,0,0,1,0,5.939,5.129,5.129,0,0,1-2.315,1.935,8.672,8.672,0,0,1-3.546.671h-3.534v4.519h-2.908V701.182h6.442A8.672,8.672,0,0,1,3268.325,701.853Zm-.794,7.2a3.19,3.19,0,0,0,0-4.608,4.468,4.468,0,0,0-2.886-.805h-3.4v6.219h3.4A4.469,4.469,0,0,0,3267.531,709.056Z" transform="translate(-3258.337 -701.182)"/>
        </g>
        <g id="Group_43851" data-name="Group 43851" transform="translate(105.295)">
          <path id="Path_87550" data-name="Path 87550" d="M3380.216,694.012h2.8v16.6h-2.8Z" transform="translate(-3380.216 -694.012)"/>
        </g>
        <g id="Group_43852" data-name="Group 43852" transform="translate(110.909 4.519)">
          <path id="Path_87551" data-name="Path 87551" d="M3432.511,729.758a4.886,4.886,0,0,1,1.4,3.814v7h-2.64V739.12a3.253,3.253,0,0,1-1.465,1.2,5.729,5.729,0,0,1-2.293.414,5.62,5.62,0,0,1-2.349-.459,3.624,3.624,0,0,1-1.555-1.275,3.234,3.234,0,0,1-.548-1.846,3.162,3.162,0,0,1,1.2-2.584,5.943,5.943,0,0,1,3.769-.973h3.087v-.179a2.449,2.449,0,0,0-.75-1.924,3.242,3.242,0,0,0-2.226-.671,6.424,6.424,0,0,0-1.98.313,4.873,4.873,0,0,0-1.644.872l-1.1-2.036a6.793,6.793,0,0,1,2.259-1.1,10.055,10.055,0,0,1,2.8-.38A5.826,5.826,0,0,1,3432.511,729.758Zm-2.55,8.456a2.617,2.617,0,0,0,1.152-1.376v-1.387h-2.886q-2.416,0-2.416,1.588a1.425,1.425,0,0,0,.6,1.208,2.767,2.767,0,0,0,1.678.447A3.609,3.609,0,0,0,3429.961,738.214Z" transform="translate(-3423.06 -728.494)"/>
        </g>
        <g id="Group_43853" data-name="Group 43853" transform="translate(122.9 4.653)">
          <path id="Path_87552" data-name="Path 87552" d="M3527.955,729.518l-5.593,12.908a6.012,6.012,0,0,1-1.9,2.74,4.556,4.556,0,0,1-2.707.794,5.558,5.558,0,0,1-1.767-.291,3.91,3.91,0,0,1-1.432-.805l1.119-2.058a3.043,3.043,0,0,0,.951.6,2.912,2.912,0,0,0,1.107.224,1.906,1.906,0,0,0,1.219-.38,3.368,3.368,0,0,0,.884-1.275l.2-.47-5.212-11.99h2.908l3.758,8.836,3.781-8.836Z" transform="translate(-3514.555 -729.518)"/>
        </g>
      </g>
    </g>
    <g id="Group_43856" data-name="Group 43856" transform="translate(2226.85 493.155)">
      <path id="Path_87553" data-name="Path 87553" d="M2585.233,570.244a3.864,3.864,0,0,1-1.766-.413,4.67,4.67,0,0,1-1.428-1.11,5.239,5.239,0,0,1-.947-1.57,4.951,4.951,0,0,1-.338-1.807,5.093,5.093,0,0,1,1.279-3.4,4.381,4.381,0,0,1,1.421-1.062,4.122,4.122,0,0,1,1.78-.386,4.187,4.187,0,0,1,2.3.582,3.744,3.744,0,0,1,1.367,1.516l-.934.649a2.813,2.813,0,0,0-1.15-1.245,3.261,3.261,0,0,0-1.61-.406,2.821,2.821,0,0,0-1.326.311,3.177,3.177,0,0,0-1.021.846,3.869,3.869,0,0,0-.65,1.211,4.461,4.461,0,0,0-.223,1.407,4.192,4.192,0,0,0,.25,1.455,3.748,3.748,0,0,0,.71,1.2,3.419,3.419,0,0,0,1.069.819,2.949,2.949,0,0,0,1.313.3,3.148,3.148,0,0,0,1.57-.419,4.754,4.754,0,0,0,1.407-1.286V568.7A3.907,3.907,0,0,1,2585.233,570.244Zm2.923-3.938h-2.07v-.92h3.1v4.79h-1.029Z" transform="translate(-2580.754 -560.501)"/>
      <path id="Path_87554" data-name="Path 87554" d="M2665.752,569.542v1.083h-6.523v-9.608h6.4V562.1h-5.183v3.112h4.506v1.015h-4.506v3.315Z" transform="translate(-2648.945 -560.949)"/>
      <path id="Path_87555" data-name="Path 87555" d="M2722.529,562.1h-3.316v8.525H2718V562.1h-3.315v-1.083h7.849Z" transform="translate(-2697.129 -560.949)"/>
      <path id="Path_87556" data-name="Path 87556" d="M2808.129,570.625v-9.608h1.218v9.608Z" transform="translate(-2778.332 -560.949)"/>
      <path id="Path_87557" data-name="Path 87557" d="M2836.193,563.263v7.361h-1.218v-9.608H2836l5.873,7.51v-7.5h1.218v9.594h-1.11Z" transform="translate(-2801.659 -560.949)"/>
      <path id="Path_87558" data-name="Path 87558" d="M2940.377,570.244a4.114,4.114,0,0,1-1.84-.406,4.477,4.477,0,0,1-1.427-1.1,5.171,5.171,0,0,1-1.252-3.363,4.943,4.943,0,0,1,.345-1.834,5.116,5.116,0,0,1,.961-1.556,4.648,4.648,0,0,1,1.441-1.083,4.079,4.079,0,0,1,1.8-.4,4,4,0,0,1,1.84.419,4.535,4.535,0,0,1,1.421,1.123,5.288,5.288,0,0,1,.92,1.57,5.056,5.056,0,0,1-.968,5.163,4.551,4.551,0,0,1-1.441,1.076A4.136,4.136,0,0,1,2940.377,570.244Zm-3.288-4.872a4.286,4.286,0,0,0,.237,1.414A3.9,3.9,0,0,0,2938,568a3.237,3.237,0,0,0,1.042.839,2.928,2.928,0,0,0,1.353.311,2.887,2.887,0,0,0,1.38-.325,3.251,3.251,0,0,0,1.035-.866,3.951,3.951,0,0,0,.649-1.218,4.334,4.334,0,0,0,.223-1.367,4.234,4.234,0,0,0-.237-1.407,3.944,3.944,0,0,0-.677-1.211,3.228,3.228,0,0,0-1.042-.839,3.113,3.113,0,0,0-2.713.013,3.179,3.179,0,0,0-1.035.859,4.089,4.089,0,0,0-.656,1.211A4.2,4.2,0,0,0,2937.089,565.372Z" transform="translate(-2889.322 -560.501)"/>
      <path id="Path_87559" data-name="Path 87559" d="M3019.062,563.263v7.361h-1.218v-9.608h1.029l5.873,7.51v-7.5h1.218v9.594h-1.11Z" transform="translate(-2960.563 -560.949)"/>
    </g>
  </g>
</svg>
