<svg xmlns="http://www.w3.org/2000/svg" xmlns:xlink="http://www.w3.org/1999/xlink" width="357.064" height="55" viewBox="0 0 357.064 55">
  <defs>
    <clipPath id="clip-path">
      <path id="Path_15133" data-name="Path 15133" d="M227.49,127.488H115.731v7.981H227.49v-7.981" transform="translate(-115.731 -127.488)" fill="none"/>
    </clipPath>
    <clipPath id="clip-path-2">
      <path id="Path_15162" data-name="Path 15162" d="M222.25,129.226H115.672v6.282H222.25v-6.282" transform="translate(-115.672 -129.226)" fill="none"/>
    </clipPath>
  </defs>
  <g id="proud" transform="translate(-286.043 -119.601)">
    <g id="Group_13091" data-name="Group 13091" transform="translate(286.043 119.601)">
      <g id="Group_13090" data-name="Group 13090" transform="translate(0)">
        <g id="Group_13078" data-name="Group 13078" transform="translate(185.241)">
          <path id="Path_15095" data-name="Path 15095" d="M169.439,121.743a40.271,40.271,0,0,1,9.311-.5c.178.01.36.054.657.094-1.264,2.108-2.468,4.107-3.7,6.151a8.632,8.632,0,0,0-5.124-1.1,18.657,18.657,0,0,0-2.918.795.63.63,0,0,0-.306.207c-.207.316-.6.711-.528.958a1.3,1.3,0,0,0,.9.691c1.081.193,2.187.222,3.268.4a5.8,5.8,0,0,1,1.693.587,1.484,1.484,0,0,1,.775,1.846,3.193,3.193,0,0,1-.459,1.081q-2.414,3.251-4.873,6.467a8.139,8.139,0,0,1-.958.978,1.223,1.223,0,0,1-1.831.069,4.642,4.642,0,0,1-.7-.79c-1.288-1.787-2.562-3.579-3.841-5.371a1.666,1.666,0,0,1-.272-.415.732.732,0,0,1,0-.523.553.553,0,0,1,.484-.089,7.82,7.82,0,0,1,1.037.415,4.518,4.518,0,0,0,3.086.36,2.727,2.727,0,0,0,1.728-1.338c.257-.43.128-.745-.326-.854a2.5,2.5,0,0,0-1.1-.044,8.488,8.488,0,0,1-4.715-.43,1.107,1.107,0,0,1-.736-1.121,4.889,4.889,0,0,1,.869-2.937A12.89,12.89,0,0,1,169.439,121.743Z" transform="translate(-126.458 -113.356)" fill="#2f983b"/>
          <g id="Group_13077" data-name="Group 13077">
            <path id="Path_15096" data-name="Path 15096" d="M163.878,127.4a5.778,5.778,0,0,0-4.093-1.377,4.543,4.543,0,0,0-3.273,1.446,1.234,1.234,0,0,0,.109.193c1.846,1.516,3.683,3.036,5.554,4.527a.639.639,0,0,0,.6-.064c.444-.4.839-.859,1.259-1.3A2.1,2.1,0,0,0,163.878,127.4Z" transform="translate(-140.131 -94.33)" fill="none"/>
            <path id="Path_15097" data-name="Path 15097" d="M159.417,129.232c.01.765.044,1.53.069,2.3.775.039,1.55.094,2.33.128.331.015.662,0,1.052,0l-1.017-.4-2.291-4.256-.143.059C159.417,127.791,159.408,128.512,159.417,129.232Z" transform="translate(-128.71 -90.449)" fill="none"/>
            <path id="Path_15098" data-name="Path 15098" d="M157.977,123.108a1.366,1.366,0,0,0-2-.1,3.209,3.209,0,0,0-1.234,2.493c-.074,2.982,1.634,5.174,3.411,7.573.331-.568.607-.948.795-1.372a9.115,9.115,0,0,0,.262-5.983A4.925,4.925,0,0,0,157.977,123.108Z" transform="translate(-147.121 -107.725)" fill="none"/>
            <path id="Path_15099" data-name="Path 15099" d="M162.751,131.661c-1.155-1.629-2.231-3.145-3.308-4.655l2.291,4.256Z" transform="translate(-128.592 -90.449)" fill="none"/>
            <path id="Path_15100" data-name="Path 15100" d="M160.932,127.34c-.879.968-1.758,1.94-2.636,2.908l.1.183c.8,0,1.595.015,2.389-.015a.489.489,0,0,0,.336-.336c.03-.889.015-1.772.015-2.651Z" transform="translate(-133.108 -89.134)" fill="none"/>
            <path id="Path_15101" data-name="Path 15101" d="M177.016,160.324a55.924,55.924,0,0,0,9.622-7.993c4.078-4.364,7.726-9.029,9.676-14.806a13.682,13.682,0,0,0,.918-4.739,6.276,6.276,0,0,0-.355-1.876c-.247-.691-.731-.755-1.21-.222-1.412,1.55-2.839,3.09-4.206,4.68-4.117,4.794-8.205,9.617-12.307,14.42a7.053,7.053,0,0,1-.894.943.948.948,0,0,1-1.516-.183,10.989,10.989,0,0,1-.7-1.106,114.492,114.492,0,0,1-7.139-12.2,2.885,2.885,0,0,1,.563-3.574c1.985-1.955,3.974-3.9,6-5.816a.913.913,0,0,0,.2-1.353c-1.333-2.009-2.651-4.024-4.009-6.018a1.946,1.946,0,0,0-2.483-.676,7.9,7.9,0,0,0-1.723,1.21c-2.947,2.656-5.865,5.352-8.812,8.013a4.623,4.623,0,0,0-1.382,2.177,9.619,9.619,0,0,0,.583,6.685,38.1,38.1,0,0,0,4.646,7.943c.118.163.2.351.36.622l6.591,9.706c1.076,1.511,2.152,3.026,3.308,4.655h3.88l.015,0h-.015A.97.97,0,0,1,177.016,160.324Z" transform="translate(-138.592 -119.601)" fill="#e4001b"/>
            <path id="Path_15102" data-name="Path 15102" d="M187.352,154.139c-.39,0-.721.015-1.052,0-.78-.035-1.555-.089-2.33-.128-.025-.77-.059-1.535-.069-2.3-.01-.721,0-1.441,0-2.167l.143-.059-6.591-9.706c-2.923-1.634-6.013-1.387-9.089-1.55a1.408,1.408,0,0,1,.128-.351,10.959,10.959,0,0,0,2.009-5.228,6.619,6.619,0,0,0-.35-4.325A9.4,9.4,0,0,0,167.1,125l-.015-.015a22,22,0,0,0-10.254-3.658c-2.118-.217-3.258.632-3.54,2.755a15.413,15.413,0,0,0,.079,3.959,25.111,25.111,0,0,0,3.145,8.417,45.074,45.074,0,0,0,8.289,11.4c.745.711,1.506,1.412,2.281,2.083,1.377,1.219,2.789,2.4,4.167,3.609.178.158.341.321.513.479-.02.054-.039.1-.059.158-.237.015-.469.039-.706.039-1.3,0-2.607,0-3.915,0q-5.524,0-11.059,0c-1.234,0-1.2,0-1.239,1.259-.025.622.128.8.785.8q5.754-.022,11.513-.025,6.465-.007,12.934-.01c.968,0,.968,0,.968.992,0,1.051,0,2.1,0,3.15,0,2.236.01,4.473-.015,6.709-.01.661.2.834.81.775a7.219,7.219,0,0,1,1.5,0c.578.054.745-.143.741-.726q-.037-3.377-.044-6.754-.007-1.733-.015-3.471c0-.874,0-.879.854-.879q11.922-.015,23.83-.025c1.244,0,1.219,0,1.244-1.264.01-.528-.168-.662-.676-.662q-8.708.03-17.4.02h-.563l-.015,0ZM165.018,136.9c-.188.424-.464.8-.795,1.372-1.777-2.4-3.485-4.591-3.411-7.573a3.209,3.209,0,0,1,1.234-2.493,1.366,1.366,0,0,1,2,.1,4.925,4.925,0,0,1,1.229,2.612A9.115,9.115,0,0,1,165.018,136.9Zm12.075,12.52c-.42.439-.815.894-1.259,1.3a.639.639,0,0,1-.6.064c-1.871-1.491-3.708-3.011-5.554-4.527a1.238,1.238,0,0,1-.109-.193,4.543,4.543,0,0,1,3.273-1.446A5.778,5.778,0,0,1,176.941,146,2.1,2.1,0,0,1,177.094,149.425Zm4.117,4.448a.489.489,0,0,1-.336.336c-.795.03-1.59.015-2.389.015l-.1-.183c.879-.968,1.757-1.94,2.636-2.908l.207.089C181.226,152.1,181.241,152.984,181.211,153.873Z" transform="translate(-153.194 -112.927)" fill="#2f983b"/>
          </g>
        </g>
        <g id="Group_13079" data-name="Group 13079" transform="translate(264.777 1.491)">
          <path id="Path_15103" data-name="Path 15103" d="M211.179,124.42c-1.3.489-2.819.706-3.885,1.511-11.493,8.718-20.078,19.505-23.588,33.807a4.132,4.132,0,0,0-.128.681c-.2,2.74-.415,5.549,2.375,7.228s5.174.183,7.129-1.55a63.527,63.527,0,0,0,7.351-7.632c3.475-4.33,6.63-8.906,9.972-13.339a9,9,0,0,1,1.674-1.447c2.009.316,1.945,1.56,2.034,2.849q.629,9.086,1.4,18.172a22.023,22.023,0,0,0,.815,3.308l-1.545,2.241c-4.246-1.9-2.779-6.018-4.024-9.227h-6.423c-2.429,2.641-4.759,5.426-7.371,7.919a14.744,14.744,0,0,1-9.424,4.453c-6.788.385-11.528-5.129-10.5-11.918,1.5-9.9,6.744-17.935,12.49-25.721,3.772-5.1,7.978-9.9,13.453-13.236a18.627,18.627,0,0,1,7.257-2.572c3.939-.464,6.729,2.824,6.107,6.768-1.037,6.531-4.438,11.76-9.365,16.03-1.866,1.614-3.767,1.55-4.887.04-1.451-1.965-.252-3.406,1.18-4.542,3.056-2.419,5.934-4.981,7.538-8.615a30.475,30.475,0,0,0,1.234-4.458Zm-.587,28.535-.528-.212c-.982,1.377-1.965,2.76-3.229,4.532h3.757Z" transform="translate(-139.401 -119.903)" fill="#1155a1"/>
          <path id="Path_15104" data-name="Path 15104" d="M174.08,143.887c-.395,2.814,1.3,4.823,4.226,5.184a13.694,13.694,0,0,0,8.634-1.95c1.935-1.111,3.708-2.5,5.663-3.574a20.056,20.056,0,0,1,3.643-1.195l.657.765c-.37.79-.538,1.822-1.145,2.335-5.3,4.492-11.2,7.647-18.385,7.44-5.638-.168-9.054-4.517-7.815-10.051,2.108-9.385,8.783-14.47,17.225-17.713a8.3,8.3,0,0,1,3.668-.123,3.886,3.886,0,0,1,3.229,5.115c-2.32,6.65-7.356,10.446-13.823,12.54A55.516,55.516,0,0,1,174.08,143.887Zm1.881-3.846a15.49,15.49,0,0,0,11.927-7.257c.38-.568.207-1.511.286-2.246C183.944,129.733,177.013,135.213,175.961,140.041Z" transform="translate(-169.305 -100.384)" fill="#1155a1"/>
          <path id="Path_15105" data-name="Path 15105" d="M194.915,134.7c3.14,1.669,4.369,4.2,3.717,7.4-.78,3.836-2.982,6.526-6.986,7.45-.963.222-1.906.528-2.982.834l-.968-1.195V133.161l-2.444-.894c.2-.869.124-2.024.657-2.528a35.332,35.332,0,0,1,5.564-4.409,3.909,3.909,0,0,1,4.937.454c1.57,1.481,1.382,3.382.7,5.149A27.932,27.932,0,0,1,194.915,134.7Zm-3.505,11.646c2.987-1.461,4.354-4.226,3.722-6.813-.538-2.222-1.861-2.631-3.722-1.244Zm-.272-12.831c1.772-1.841,3.347-3.081,3.16-6.062-1.59.928-2.745,1.6-3.93,2.3C190.63,131.023,190.823,131.971,191.139,133.511Z" transform="translate(-106.515 -101.166)" fill="#1155a1"/>
          <path id="Path_15106" data-name="Path 15106" d="M184.072,131.166h-8.338c-.242-.326-.839-1.121-1.284-1.708.38-2.1,1.382-2.873,3.13-2.8,1.53.059,3.066,0,4.6.035C185.232,126.772,185.938,128.14,184.072,131.166Z" transform="translate(-149.048 -93.326)" fill="#1155a1"/>
        </g>
        <g id="Group_13089" data-name="Group 13089" transform="translate(0 1.492)">
          <g id="Group_13080" data-name="Group 13080" transform="translate(140.343)">
            <path id="Path_15107" data-name="Path 15107" d="M144.1,131.557v-8.283l7.036,4.138,7.106,4.145-7.071,4.139-7.07,4.141Z" transform="translate(-144.099 -106.633)" fill="#60beb1"/>
            <path id="Path_15108" data-name="Path 15108" d="M144.1,128.186V119.9l7.036,4.142,7.106,4.141-7.071,4.14-7.07,4.139Z" transform="translate(-144.099 -119.903)" fill="#b9cc1c"/>
            <path id="Path_15109" data-name="Path 15109" d="M145.773,129.852v-8.283l6.938,4.141,7.058,4.142-7,4.141-7,4.141Z" transform="translate(-137.509 -113.345)" fill="#e93641"/>
          </g>
          <g id="Group_13087" data-name="Group 13087" transform="translate(0 37.445)">
            <g id="Group_13083" data-name="Group 13083" transform="translate(0.292)">
              <g id="Group_13082" data-name="Group 13082" clip-path="url(#clip-path)">
                <g id="Group_13081" data-name="Group 13081" transform="translate(0.002 0.028)">
                  <path id="Path_15110" data-name="Path 15110" d="M115.731,127.69a7.023,7.023,0,0,1,1.353-.123,2.387,2.387,0,0,1,1.585.42,1.223,1.223,0,0,1,.474,1.017,1.362,1.362,0,0,1-.973,1.264v.02a1.484,1.484,0,0,1,1.19,1.442,1.546,1.546,0,0,1-.489,1.15,2.9,2.9,0,0,1-1.99.543,7.61,7.61,0,0,1-1.15-.074Zm.74,2.355h.676c.785,0,1.244-.4,1.244-.968,0-.671-.513-.938-1.264-.938a2.847,2.847,0,0,0-.657.054Zm0,2.76a4.074,4.074,0,0,0,.622.035c.77,0,1.476-.281,1.476-1.116,0-.79-.671-1.116-1.486-1.116h-.612Z" transform="translate(-115.731 -127.207)" fill="#555252"/>
                  <path id="Path_15111" data-name="Path 15111" d="M119.373,132.112l-.064-.518h-.025a1.548,1.548,0,0,1-1.264.617,1.181,1.181,0,0,1-1.264-1.19c0-1,.889-1.545,2.488-1.535V129.4a.856.856,0,0,0-.938-.963,2.026,2.026,0,0,0-1.081.311l-.168-.494a2.512,2.512,0,0,1,1.358-.37c1.264,0,1.57.864,1.57,1.693v1.545a5.464,5.464,0,0,0,.069.987ZM119.259,130c-.82-.02-1.748.128-1.748.933a.659.659,0,0,0,.706.711,1.026,1.026,0,0,0,1-.686.713.713,0,0,0,.044-.237Z" transform="translate(-111.696 -125.951)" fill="#555252"/>
                  <path id="Path_15112" data-name="Path 15112" d="M117.847,129.1c0-.425-.01-.775-.039-1.116h.666l.044.681h.02a1.507,1.507,0,0,1,1.363-.775c.573,0,1.461.346,1.461,1.758v2.468h-.75v-2.385c0-.662-.247-1.214-.958-1.214a1.091,1.091,0,0,0-1.056,1.116v2.483h-.75Z" transform="translate(-107.558 -125.951)" fill="#555252"/>
                  <path id="Path_15113" data-name="Path 15113" d="M122.735,127.98c-.02.3-.035.627-.035,1.135v2.4a2.375,2.375,0,0,1-.592,1.891,2.188,2.188,0,0,1-1.5.494,2.627,2.627,0,0,1-1.377-.346l.188-.573a2.323,2.323,0,0,0,1.214.331c.765,0,1.333-.4,1.333-1.451v-.454h-.02a1.473,1.473,0,0,1-1.313.686,1.842,1.842,0,0,1-1.758-2.009,1.985,1.985,0,0,1,1.861-2.2,1.379,1.379,0,0,1,1.289.716h.015l.035-.622Zm-.78,1.634a1.193,1.193,0,0,0-.04-.341,1.089,1.089,0,0,0-1.051-.8c-.721,0-1.234.612-1.234,1.565,0,.81.415,1.481,1.224,1.481a1.092,1.092,0,0,0,1.042-.765,1.277,1.277,0,0,0,.059-.4Z" transform="translate(-103.358 -125.951)" fill="#555252"/>
                  <path id="Path_15114" data-name="Path 15114" d="M120.061,127.514h.75v6.062h-.75Z" transform="translate(-98.685 -127.415)" fill="#555252"/>
                  <path id="Path_15115" data-name="Path 15115" d="M123.172,132.112l-.059-.518h-.025a1.555,1.555,0,0,1-1.264.617,1.178,1.178,0,0,1-1.264-1.19c0-1,.884-1.545,2.483-1.535V129.4a.856.856,0,0,0-.938-.963,2.008,2.008,0,0,0-1.076.311l-.173-.494a2.524,2.524,0,0,1,1.358-.37c1.264,0,1.575.864,1.575,1.693v1.545a6,6,0,0,0,.064.987ZM123.058,130c-.82-.02-1.748.128-1.748.933a.661.661,0,0,0,.706.711,1.028,1.028,0,0,0,1-.686.848.848,0,0,0,.04-.237Z" transform="translate(-96.72 -125.951)" fill="#555252"/>
                  <path id="Path_15116" data-name="Path 15116" d="M125.428,127.514v5c0,.365.01.785.035,1.066h-.676l-.035-.721h-.015a1.531,1.531,0,0,1-1.407.82,1.889,1.889,0,0,1-1.772-2.1,1.979,1.979,0,0,1,1.856-2.222,1.371,1.371,0,0,1,1.244.632h.02v-2.468Zm-.75,3.614a1.32,1.32,0,0,0-.035-.316,1.106,1.106,0,0,0-1.086-.874c-.775,0-1.239.681-1.239,1.6,0,.839.41,1.525,1.224,1.525a1.123,1.123,0,0,0,1.1-.894,1.376,1.376,0,0,0,.035-.326Z" transform="translate(-92.795 -127.415)" fill="#555252"/>
                  <path id="Path_15117" data-name="Path 15117" d="M123.409,130.182a1.324,1.324,0,0,0,1.417,1.437,2.822,2.822,0,0,0,1.145-.212l.128.533a3.289,3.289,0,0,1-1.377.257,1.915,1.915,0,0,1-2.029-2.083,2,2,0,0,1,1.935-2.227,1.747,1.747,0,0,1,1.708,1.945,2.6,2.6,0,0,1-.025.35Zm2.2-.538a1.07,1.07,0,0,0-1.042-1.219,1.239,1.239,0,0,0-1.15,1.219Z" transform="translate(-88.323 -125.951)" fill="#555252"/>
                  <path id="Path_15118" data-name="Path 15118" d="M123.908,131.342a1.935,1.935,0,0,0,.992.3c.543,0,.8-.276.8-.617s-.212-.553-.765-.76c-.745-.262-1.1-.671-1.1-1.17a1.275,1.275,0,0,1,1.427-1.21,2.107,2.107,0,0,1,1.017.252l-.188.548a1.593,1.593,0,0,0-.844-.237c-.444,0-.691.257-.691.563,0,.341.247.5.785.7.716.272,1.086.632,1.086,1.249,0,.726-.568,1.234-1.55,1.234a2.342,2.342,0,0,1-1.16-.281Z" transform="translate(-84.28 -125.951)" fill="#555252"/>
                  <path id="Path_15119" data-name="Path 15119" d="M124.622,127.514h.755v2.577h.015a1.419,1.419,0,0,1,.538-.528,1.546,1.546,0,0,1,.765-.212c.558,0,1.447.346,1.447,1.762v2.464h-.75v-2.37c0-.671-.252-1.229-.958-1.229a1.08,1.08,0,0,0-1.007.745.9.9,0,0,0-.049.36v2.493h-.755Z" transform="translate(-80.729 -127.415)" fill="#555252"/>
                  <path id="Path_15120" data-name="Path 15120" d="M127.549,131.521l-.6,1.812h-.77l1.96-5.756h.9L131,133.332h-.8l-.612-1.812Zm1.891-.578-.563-1.659c-.133-.375-.212-.716-.3-1.052h-.015c-.089.341-.183.7-.291,1.042l-.568,1.669Z" transform="translate(-74.591 -127.171)" fill="#555252"/>
                  <path id="Path_15121" data-name="Path 15121" d="M127.608,131.342a1.95,1.95,0,0,0,.992.3c.548,0,.8-.276.8-.617s-.217-.553-.77-.76c-.741-.262-1.091-.671-1.091-1.17a1.274,1.274,0,0,1,1.422-1.21,2.076,2.076,0,0,1,1.017.252l-.188.548a1.579,1.579,0,0,0-.844-.237c-.444,0-.691.257-.691.563,0,.341.247.5.785.7.716.272,1.086.632,1.086,1.249,0,.726-.568,1.234-1.545,1.234a2.315,2.315,0,0,1-1.16-.281Z" transform="translate(-69.694 -125.951)" fill="#555252"/>
                  <path id="Path_15122" data-name="Path 15122" d="M128.456,131.342a1.931,1.931,0,0,0,.987.3c.548,0,.8-.276.8-.617s-.212-.553-.765-.76c-.745-.262-1.1-.671-1.1-1.17a1.275,1.275,0,0,1,1.427-1.21,2.107,2.107,0,0,1,1.017.252l-.188.548a1.6,1.6,0,0,0-.849-.237c-.439,0-.691.257-.691.563,0,.341.252.5.785.7.721.272,1.086.632,1.086,1.249,0,.726-.563,1.234-1.545,1.234a2.329,2.329,0,0,1-1.16-.281Z" transform="translate(-66.375 -125.951)" fill="#555252"/>
                  <path id="Path_15123" data-name="Path 15123" d="M133.147,130.009a2.024,2.024,0,0,1-2.059,2.2,1.966,1.966,0,0,1-1.98-2.128,2.022,2.022,0,0,1,2.049-2.2A1.955,1.955,0,0,1,133.147,130.009Zm-3.278.044c0,.908.518,1.59,1.254,1.59.716,0,1.254-.676,1.254-1.6,0-.7-.351-1.59-1.239-1.59S129.869,129.273,129.869,130.053Z" transform="translate(-63.064 -125.951)" fill="#555252"/>
                  <path id="Path_15124" data-name="Path 15124" d="M133.462,131.951a2.757,2.757,0,0,1-1.185.237,1.959,1.959,0,0,1-2.059-2.108,2.1,2.1,0,0,1,2.222-2.192,2.5,2.5,0,0,1,1.042.212l-.173.578a1.721,1.721,0,0,0-.869-.193,1.431,1.431,0,0,0-1.461,1.56,1.415,1.415,0,0,0,1.437,1.545,2.048,2.048,0,0,0,.918-.207Z" transform="translate(-58.698 -125.943)" fill="#555252"/>
                  <path id="Path_15125" data-name="Path 15125" d="M132.122,128.044a.464.464,0,0,1-.928,0,.454.454,0,0,1,.469-.469A.446.446,0,0,1,132.122,128.044Zm-.839,5.292V129.2h.755v4.132Z" transform="translate(-54.856 -127.175)" fill="#555252"/>
                  <path id="Path_15126" data-name="Path 15126" d="M134.325,132.112l-.064-.518h-.025a1.548,1.548,0,0,1-1.264.617,1.181,1.181,0,0,1-1.264-1.19c0-1,.889-1.545,2.488-1.535V129.4a.858.858,0,0,0-.943-.963,2.021,2.021,0,0,0-1.076.311l-.168-.494a2.512,2.512,0,0,1,1.358-.37c1.259,0,1.57.864,1.57,1.693v1.545a5.463,5.463,0,0,0,.069.987ZM134.211,130c-.82-.02-1.748.128-1.748.933a.659.659,0,0,0,.706.711,1.026,1.026,0,0,0,1-.686.712.712,0,0,0,.044-.237Z" transform="translate(-52.832 -125.951)" fill="#555252"/>
                  <path id="Path_15127" data-name="Path 15127" d="M134.043,127.665v1.185h1.081v.573h-1.081v2.231c0,.513.148.8.568.8a1.712,1.712,0,0,0,.434-.049l.035.558a1.735,1.735,0,0,1-.666.1,1.027,1.027,0,0,1-.81-.316,1.513,1.513,0,0,1-.291-1.071v-2.256h-.642v-.573h.642v-.992Z" transform="translate(-49.041 -126.821)" fill="#555252"/>
                  <path id="Path_15128" data-name="Path 15128" d="M134.406,128.044a.464.464,0,0,1-.928,0,.454.454,0,0,1,.469-.469A.446.446,0,0,1,134.406,128.044Zm-.839,5.292V129.2h.755v4.132Z" transform="translate(-45.864 -127.175)" fill="#555252"/>
                  <path id="Path_15129" data-name="Path 15129" d="M138.035,130.009a2.023,2.023,0,0,1-2.054,2.2A1.969,1.969,0,0,1,134,130.083a2.022,2.022,0,0,1,2.049-2.2A1.955,1.955,0,0,1,138.035,130.009Zm-3.278.044c0,.908.523,1.59,1.259,1.59.716,0,1.254-.676,1.254-1.6,0-.7-.351-1.59-1.239-1.59S134.757,129.273,134.757,130.053Z" transform="translate(-43.821 -125.951)" fill="#555252"/>
                  <path id="Path_15130" data-name="Path 15130" d="M135.195,129.1c0-.425-.01-.775-.035-1.116h.666l.044.681h.015a1.522,1.522,0,0,1,1.367-.775c.573,0,1.456.346,1.456,1.758v2.468h-.745v-2.385c0-.662-.247-1.214-.958-1.214a1.055,1.055,0,0,0-1.007.765,1.067,1.067,0,0,0-.054.35v2.483h-.75Z" transform="translate(-39.242 -125.951)" fill="#555252"/>
                  <path id="Path_15131" data-name="Path 15131" d="M140.787,130.009a2.024,2.024,0,0,1-2.059,2.2,1.966,1.966,0,0,1-1.98-2.128,2.02,2.02,0,0,1,2.049-2.2A1.955,1.955,0,0,1,140.787,130.009Zm-3.278.044c0,.908.518,1.59,1.254,1.59s1.254-.676,1.254-1.6c0-.7-.351-1.59-1.234-1.59S137.509,129.273,137.509,130.053Z" transform="translate(-32.987 -125.951)" fill="#555252"/>
                  <path id="Path_15132" data-name="Path 15132" d="M138.4,133.655V130.1h-.583v-.573h.583v-.193a1.942,1.942,0,0,1,.479-1.446,1.449,1.449,0,0,1,1.007-.39,1.757,1.757,0,0,1,.642.123l-.1.578a1.153,1.153,0,0,0-.474-.089c-.647,0-.8.558-.8,1.195v.222h1v.573h-1v3.56Z" transform="translate(-28.786 -127.494)" fill="#555252"/>
                </g>
              </g>
            </g>
            <g id="Group_13086" data-name="Group 13086" transform="translate(0 8.58)">
              <g id="Group_13085" data-name="Group 13085" clip-path="url(#clip-path-2)">
                <g id="Group_13084" data-name="Group 13084" transform="translate(0.002 0.028)">
                  <path id="Path_15134" data-name="Path 15134" d="M115.86,134.237a2.6,2.6,0,0,0,1.328.38c.765,0,1.21-.4,1.21-.982,0-.543-.311-.849-1.086-1.145-.943-.336-1.521-.825-1.521-1.634a1.655,1.655,0,0,1,1.861-1.56,2.6,2.6,0,0,1,1.274.281l-.207.6a2.29,2.29,0,0,0-1.091-.267c-.79,0-1.086.469-1.086.859,0,.543.351.8,1.145,1.111.973.375,1.466.844,1.466,1.693,0,.889-.657,1.654-2.014,1.654a3,3,0,0,1-1.466-.365Z" transform="translate(-115.672 -128.984)" fill="#555252"/>
                  <path id="Path_15135" data-name="Path 15135" d="M120.516,131.747a2.02,2.02,0,0,1-2.059,2.2,1.966,1.966,0,0,1-1.98-2.128,2.018,2.018,0,0,1,2.049-2.192A1.955,1.955,0,0,1,120.516,131.747Zm-3.278.044c0,.908.518,1.59,1.259,1.59.716,0,1.254-.676,1.254-1.609,0-.7-.351-1.59-1.239-1.59S117.238,131.006,117.238,131.791Z" transform="translate(-112.499 -127.689)" fill="#555252"/>
                  <path id="Path_15136" data-name="Path 15136" d="M117.926,135.393v-3.564h-.578v-.573h.578v-.193a1.959,1.959,0,0,1,.484-1.447,1.424,1.424,0,0,1,1-.385,1.734,1.734,0,0,1,.642.124l-.1.577a1.137,1.137,0,0,0-.474-.089c-.642,0-.8.558-.8,1.195v.217h1v.573h-1v3.564Z" transform="translate(-109.074 -129.232)" fill="#555252"/>
                  <path id="Path_15137" data-name="Path 15137" d="M119.2,129.4v1.18h1.076v.573H119.2v2.232c0,.513.148.8.563.8a1.716,1.716,0,0,0,.435-.049l.035.558a1.737,1.737,0,0,1-.667.1,1.027,1.027,0,0,1-.81-.316,1.527,1.527,0,0,1-.291-1.076v-2.256h-.642v-.573h.642V129.6Z" transform="translate(-107.224 -128.559)" fill="#555252"/>
                  <path id="Path_15138" data-name="Path 15138" d="M119.116,129.642l.548,2.1c.118.464.232.889.306,1.313h.025c.1-.42.232-.864.37-1.3l.676-2.113h.627l.642,2.073c.153.494.272.923.37,1.343h.025a12.231,12.231,0,0,1,.316-1.338l.588-2.078h.741l-1.328,4.137h-.686L121.7,131.8a13.379,13.379,0,0,1-.365-1.358h-.02a12.672,12.672,0,0,1-.375,1.372l-.666,1.96H119.6l-1.244-4.137Z" transform="translate(-105.125 -127.618)" fill="#555252"/>
                  <path id="Path_15139" data-name="Path 15139" d="M122.228,133.85l-.059-.523h-.025a1.555,1.555,0,0,1-1.264.617,1.179,1.179,0,0,1-1.264-1.19c0-.992.889-1.54,2.483-1.535v-.084a.85.85,0,0,0-.938-.958,2.021,2.021,0,0,0-1.076.311l-.168-.5a2.549,2.549,0,0,1,1.353-.365c1.264,0,1.575.864,1.575,1.693v1.54a5.527,5.527,0,0,0,.069.992Zm-.109-2.108c-.82-.02-1.753.128-1.753.928a.667.667,0,0,0,.711.716,1.026,1.026,0,0,0,1-.686.864.864,0,0,0,.044-.242Z" transform="translate(-100.145 -127.689)" fill="#555252"/>
                  <path id="Path_15140" data-name="Path 15140" d="M120.5,131.006c0-.489-.01-.908-.034-1.293h.661l.025.81h.03a1.247,1.247,0,0,1,1.145-.9.73.73,0,0,1,.217.025v.711a.992.992,0,0,0-.257-.03,1.047,1.047,0,0,0-1.007.968,1.818,1.818,0,0,0-.035.346v2.207H120.5Z" transform="translate(-96.787 -127.689)" fill="#555252"/>
                  <path id="Path_15141" data-name="Path 15141" d="M121.657,131.92a1.324,1.324,0,0,0,1.417,1.437,2.824,2.824,0,0,0,1.145-.212l.128.533a3.371,3.371,0,0,1-1.377.257,1.917,1.917,0,0,1-2.029-2.083,2,2,0,0,1,1.935-2.227,1.746,1.746,0,0,1,1.708,1.94,2.687,2.687,0,0,1-.025.356Zm2.2-.538a1.072,1.072,0,0,0-1.042-1.224,1.244,1.244,0,0,0-1.15,1.224Z" transform="translate(-94.929 -127.689)" fill="#555252"/>
                  <path id="Path_15142" data-name="Path 15142" d="M126.074,135.145c-.168-.163-.316-.321-.543-.568a2.339,2.339,0,0,1-1.678.661,1.631,1.631,0,0,1-1.772-1.614,1.886,1.886,0,0,1,1.131-1.684v-.025a1.976,1.976,0,0,1-.479-1.2,1.4,1.4,0,0,1,1.461-1.417,1.2,1.2,0,0,1,1.274,1.219c0,.6-.351,1.086-1.264,1.535v.03c.484.563,1.032,1.195,1.4,1.6a4.339,4.339,0,0,0,.553-1.683h.681a4.338,4.338,0,0,1-.829,2.128c.311.321.607.652.948,1.017Zm-.908-.992c-.341-.38-.982-1.071-1.619-1.812a1.416,1.416,0,0,0-.745,1.17,1.138,1.138,0,0,0,1.18,1.165A1.615,1.615,0,0,0,125.166,134.153Zm-1.748-3.51a1.608,1.608,0,0,0,.435,1.037c.578-.336.958-.642.958-1.131a.677.677,0,0,0-.671-.741A.746.746,0,0,0,123.418,130.643Z" transform="translate(-90.445 -128.984)" fill="#555252"/>
                  <path id="Path_15143" data-name="Path 15143" d="M124.237,129.314v5.756h-.745v-5.756Z" transform="translate(-84.886 -128.909)" fill="#555252"/>
                  <path id="Path_15144" data-name="Path 15144" d="M123.887,130.834c0-.425-.01-.78-.035-1.121h.666l.044.681h.015a1.528,1.528,0,0,1,1.368-.77c.573,0,1.456.341,1.456,1.758v2.468h-.745v-2.385c0-.666-.252-1.219-.958-1.219a1.061,1.061,0,0,0-1.007.765,1.119,1.119,0,0,0-.054.355v2.483h-.75Z" transform="translate(-83.469 -127.689)" fill="#555252"/>
                  <path id="Path_15145" data-name="Path 15145" d="M125.261,135.393v-3.564h-.583v-.573h.583v-.193a1.957,1.957,0,0,1,.479-1.447,1.444,1.444,0,0,1,1.007-.385,1.779,1.779,0,0,1,.642.124l-.1.577a1.163,1.163,0,0,0-.479-.089c-.642,0-.8.558-.8,1.195v.217h1v.573h-1v3.564Z" transform="translate(-80.217 -129.232)" fill="#555252"/>
                  <path id="Path_15146" data-name="Path 15146" d="M129.222,131.747a2.022,2.022,0,0,1-2.059,2.2,1.963,1.963,0,0,1-1.98-2.128,2.015,2.015,0,0,1,2.049-2.192A1.955,1.955,0,0,1,129.222,131.747Zm-3.283.044c0,.908.523,1.59,1.259,1.59.716,0,1.254-.676,1.254-1.609,0-.7-.351-1.59-1.239-1.59S125.939,131.006,125.939,131.791Z" transform="translate(-78.225 -127.689)" fill="#555252"/>
                  <path id="Path_15147" data-name="Path 15147" d="M126.183,131.006c0-.489-.01-.908-.035-1.293h.661l.025.81h.03a1.247,1.247,0,0,1,1.145-.9.73.73,0,0,1,.217.025v.711a.992.992,0,0,0-.257-.03,1.047,1.047,0,0,0-1.007.968,1.815,1.815,0,0,0-.035.346v2.207h-.745Z" transform="translate(-74.43 -127.689)" fill="#555252"/>
                  <path id="Path_15148" data-name="Path 15148" d="M126.708,130.834c0-.425-.01-.78-.035-1.121h.662l.03.671h.025a1.425,1.425,0,0,1,1.3-.76,1.233,1.233,0,0,1,1.175.825h.015a1.708,1.708,0,0,1,.464-.533,1.406,1.406,0,0,1,.913-.291c.543,0,1.353.355,1.353,1.787v2.439h-.731v-2.34c0-.795-.291-1.274-.9-1.274a.977.977,0,0,0-.889.681,1.253,1.253,0,0,0-.059.38v2.552H129.3v-2.478c0-.657-.3-1.135-.869-1.135a1.029,1.029,0,0,0-.928.75,1.09,1.09,0,0,0-.059.365v2.5h-.736Z" transform="translate(-72.363 -127.689)" fill="#555252"/>
                  <path id="Path_15149" data-name="Path 15149" d="M130.633,133.85l-.059-.523h-.025a1.555,1.555,0,0,1-1.264.617,1.176,1.176,0,0,1-1.264-1.19c0-.992.884-1.54,2.483-1.535v-.084a.853.853,0,0,0-.938-.958,2.008,2.008,0,0,0-1.076.311l-.173-.5a2.568,2.568,0,0,1,1.358-.365c1.264,0,1.57.864,1.57,1.693v1.54a6.01,6.01,0,0,0,.069.992Zm-.114-2.108c-.819-.02-1.748.128-1.748.928a.665.665,0,0,0,.706.716,1.028,1.028,0,0,0,1-.686.852.852,0,0,0,.039-.242Z" transform="translate(-67.056 -127.689)" fill="#555252"/>
                  <path id="Path_15150" data-name="Path 15150" d="M130.158,129.4v1.18h1.076v.573h-1.076v2.232c0,.513.148.8.568.8a1.671,1.671,0,0,0,.43-.049l.039.558a1.772,1.772,0,0,1-.666.1,1.045,1.045,0,0,1-.815-.316,1.527,1.527,0,0,1-.291-1.076v-2.256h-.637v-.573h.637V129.6Z" transform="translate(-64.044 -128.559)" fill="#555252"/>
                  <path id="Path_15151" data-name="Path 15151" d="M130.322,129.782a.464.464,0,0,1-.928,0,.454.454,0,0,1,.469-.469A.44.44,0,0,1,130.322,129.782Zm-.834,5.292v-4.137h.75v4.137Z" transform="translate(-61.651 -128.913)" fill="#555252"/>
                  <path id="Path_15152" data-name="Path 15152" d="M133.754,131.747a2.02,2.02,0,0,1-2.059,2.2,1.963,1.963,0,0,1-1.98-2.128,2.018,2.018,0,0,1,2.049-2.192A1.955,1.955,0,0,1,133.754,131.747Zm-3.278.044c0,.908.518,1.59,1.254,1.59.716,0,1.254-.676,1.254-1.609,0-.7-.35-1.59-1.239-1.59S130.476,131.006,130.476,131.791Z" transform="translate(-60.383 -127.689)" fill="#555252"/>
                  <path id="Path_15153" data-name="Path 15153" d="M130.715,130.834c0-.425-.01-.78-.035-1.121h.667l.044.681h.015a1.528,1.528,0,0,1,1.368-.77c.573,0,1.456.341,1.456,1.758v2.468h-.745v-2.385c0-.666-.252-1.219-.958-1.219a1.061,1.061,0,0,0-1.007.765,1.12,1.12,0,0,0-.054.355v2.483h-.75Z" transform="translate(-56.588 -127.689)" fill="#555252"/>
                  <path id="Path_15154" data-name="Path 15154" d="M132.068,134.237a2.614,2.614,0,0,0,1.328.38c.765,0,1.21-.4,1.21-.982,0-.543-.311-.849-1.086-1.145-.943-.336-1.521-.825-1.521-1.634a1.658,1.658,0,0,1,1.861-1.56,2.6,2.6,0,0,1,1.274.281l-.207.6a2.273,2.273,0,0,0-1.091-.267c-.79,0-1.081.469-1.081.859,0,.543.346.8,1.14,1.111.973.375,1.466.844,1.466,1.693,0,.889-.652,1.654-2.014,1.654a3,3,0,0,1-1.466-.365Z" transform="translate(-51.864 -128.984)" fill="#555252"/>
                  <path id="Path_15155" data-name="Path 15155" d="M133.407,131.92a1.322,1.322,0,0,0,1.417,1.437,2.842,2.842,0,0,0,1.145-.212l.128.533a3.391,3.391,0,0,1-1.377.257,1.921,1.921,0,0,1-2.034-2.083,2,2,0,0,1,1.94-2.227,1.746,1.746,0,0,1,1.708,1.94,2.686,2.686,0,0,1-.025.356Zm2.2-.538a1.072,1.072,0,0,0-1.042-1.224,1.248,1.248,0,0,0-1.155,1.224Z" transform="translate(-48.691 -127.689)" fill="#555252"/>
                  <path id="Path_15156" data-name="Path 15156" d="M133.606,131.006c0-.489-.01-.908-.039-1.293h.661l.025.81h.035a1.237,1.237,0,0,1,1.145-.9.716.716,0,0,1,.212.025v.711a.966.966,0,0,0-.257-.03,1.051,1.051,0,0,0-1.007.968,1.824,1.824,0,0,0-.035.346v2.207h-.741Z" transform="translate(-45.222 -127.689)" fill="#555252"/>
                  <path id="Path_15157" data-name="Path 15157" d="M134.8,129.642l.815,2.325a11.069,11.069,0,0,1,.331,1.056h.025c.094-.341.217-.681.351-1.056l.8-2.325h.785l-1.624,4.137h-.716L134,129.642Z" transform="translate(-43.534 -127.618)" fill="#555252"/>
                  <path id="Path_15158" data-name="Path 15158" d="M135.8,129.782a.464.464,0,0,1-.928,0,.454.454,0,0,1,.469-.469A.441.441,0,0,1,135.8,129.782Zm-.834,5.292v-4.137h.755v4.137Z" transform="translate(-40.081 -128.913)" fill="#555252"/>
                  <path id="Path_15159" data-name="Path 15159" d="M138.439,133.693a2.836,2.836,0,0,1-1.185.237,1.962,1.962,0,0,1-2.059-2.108,2.1,2.1,0,0,1,2.222-2.2,2.584,2.584,0,0,1,1.042.212l-.173.583a1.715,1.715,0,0,0-.869-.2,1.432,1.432,0,0,0-1.461,1.565,1.418,1.418,0,0,0,1.437,1.545,2.117,2.117,0,0,0,.918-.207Z" transform="translate(-38.813 -127.685)" fill="#555252"/>
                  <path id="Path_15160" data-name="Path 15160" d="M136.651,131.92a1.322,1.322,0,0,0,1.417,1.437,2.861,2.861,0,0,0,1.145-.212l.128.533a3.39,3.39,0,0,1-1.377.257,1.921,1.921,0,0,1-2.034-2.083,2,2,0,0,1,1.94-2.227,1.746,1.746,0,0,1,1.708,1.94,2.7,2.7,0,0,1-.025.356Zm2.2-.538a1.072,1.072,0,0,0-1.042-1.224,1.248,1.248,0,0,0-1.155,1.224Z" transform="translate(-35.92 -127.689)" fill="#555252"/>
                  <path id="Path_15161" data-name="Path 15161" d="M136.947,133.08a2,2,0,0,0,.992.3c.543,0,.8-.276.8-.617s-.217-.553-.77-.76c-.746-.262-1.1-.676-1.1-1.17a1.276,1.276,0,0,1,1.427-1.21,2.091,2.091,0,0,1,1.017.252l-.188.548a1.591,1.591,0,0,0-.844-.242c-.444,0-.691.257-.691.568,0,.341.247.494.785.7.716.271,1.086.632,1.086,1.249,0,.726-.568,1.234-1.55,1.234a2.29,2.29,0,0,1-1.16-.286Z" transform="translate(-32.656 -127.689)" fill="#555252"/>
                </g>
              </g>
            </g>
          </g>
          <g id="Group_13088" data-name="Group 13088" transform="translate(0.061 0.492)">
            <path id="Path_15163" data-name="Path 15163" d="M115.684,120.1h13.349c6.107,0,12.342,1.451,12.342,8.669,0,2.74-1.382,5.44-4.142,6.309v.252c3.431,1.2,5.6,3.693,5.6,7.43,0,6.428-6.023,8.635-11.547,8.635H115.684Zm11.676,12.031c1.674,0,3.554-.168,3.554-2.32,0-2.325-2.138-2.162-3.811-2.162h-.795v4.483Zm-1.052,11.789h1.3c1.881,0,4.6-.039,4.6-2.617,0-2.612-2.928-2.572-4.774-2.572h-1.131Z" transform="translate(-115.684 -119.601)" fill="#7c7c7b"/>
            <path id="Path_15164" data-name="Path 15164" d="M133.5,151.4H121.363L132.328,120.1H145L156.262,151.4H144.127l-1.047-3.905h-8.659Zm7.573-11.335-1.343-5.519c-.331-1.328-.538-2.7-.75-4.028h-.42l-2.093,9.548Z" transform="translate(-93.327 -119.601)" fill="#7c7c7b"/>
            <path id="Path_15165" data-name="Path 15165" d="M132.1,140.59l.588.459a12.08,12.08,0,0,0,7.153,2.863c1.131,0,2.927-.459,2.927-1.866s-1.506-1.535-2.552-1.748l-2.3-.41c-4.478-.79-8.245-3.406-8.245-8.3,0-7.43,6.818-11.582,13.68-11.582a18.939,18.939,0,0,1,10.007,2.74l-3.1,8.012a11.981,11.981,0,0,0-6.655-2.37c-1,0-2.468.38-2.468,1.664,0,1.16,1.427,1.328,2.305,1.535l2.592.583c4.853,1.076,8.368,3.653,8.368,8.965,0,7.469-6.862,11.167-13.68,11.167a28.559,28.559,0,0,1-12.135-2.868Z" transform="translate(-64.895 -120.003)" fill="#7c7c7b"/>
            <rect id="Rectangle_1709" data-name="Rectangle 1709" width="11.464" height="31.297" transform="translate(93.15 0.502)" fill="#7c7c7b"/>
            <path id="Path_15166" data-name="Path 15166" d="M141.131,140.59l.588.459a12.093,12.093,0,0,0,7.158,2.863c1.126,0,2.923-.459,2.923-1.866s-1.506-1.535-2.547-1.748l-2.3-.41c-4.483-.79-8.244-3.406-8.244-8.3,0-7.43,6.818-11.582,13.68-11.582a18.91,18.91,0,0,1,10,2.74l-3.1,8.012a12,12,0,0,0-6.655-2.37c-1,0-2.468.38-2.468,1.664,0,1.16,1.422,1.328,2.3,1.535l2.6.583c4.848,1.076,8.363,3.653,8.363,8.965,0,7.469-6.857,11.167-13.675,11.167a28.559,28.559,0,0,1-12.135-2.868Z" transform="translate(-29.322 -120.003)" fill="#7c7c7b"/>
          </g>
        </g>
      </g>
    </g>
  </g>
</svg>
